<?xml version="1.0" encoding="iso-8859-1"?>
<!-- Generator: Adobe Illustrator 21.0.0, SVG Export Plug-In . SVG Version: 6.00 Build 0)  -->
<svg xmlns="http://www.w3.org/2000/svg" xmlns:xlink="http://www.w3.org/1999/xlink" version="1.1" id="Capa_1" x="0px" y="0px" viewBox="0 0 512 512" style="enable-background:new 0 0 512 512;" xml:space="preserve" width="512" height="512">
<g>
	<path style="fill:#7657C1;" d="M256,22C120.69,22,11,131.69,11,267c0,130.892,102.646,237.804,231.833,244.646l76.632-7.964l0,0   C424.006,475.719,501,380.359,501,267C501,131.69,391.31,22,256,22z"/>
	<path style="fill:#F9BD91;" d="M267.439,358.638c-11.015-0.344-20.18,8.305-20.517,19.3l-4.089,133.707   c4.36,0.231,8.749,0.354,13.167,0.354c9.031,0,17.943-0.504,26.72-1.456l4.018-131.39   C287.074,368.16,278.434,358.974,267.439,358.638z"/>
	<path style="fill:#FCD2AE;" d="M301.456,478.113c-6.334-8.993-18.759-11.146-27.753-4.815c-8.993,6.336-11.148,18.76-4.814,27.753   l7.135,10.129c14.898-1.205,29.416-3.748,43.441-7.5L301.456,478.113z"/>
	<path style="fill:#FCD2AE;" d="M285.181,509.505c-7.794,0-15.194-4.603-18.386-12.245l-50.483-120.833   c-4.24-10.149,0.551-21.815,10.7-26.056c10.148-4.235,21.816,0.551,26.056,10.7l50.483,120.833   c4.24,10.149-0.551,21.815-10.7,26.056C290.342,509.008,287.74,509.505,285.181,509.505z"/>
	<path style="fill:#F9BD91;" d="M221.453,172.228l-55.692-69.374l-43.468-75.973c-1.332-2.347-3.224-4.403-5.396-5.912L93.052,3.475   c-7.983-5.857-19.2-4.134-25.057,3.849c-5.856,7.982-4.133,19.201,3.849,25.057l7.209,5.289c-3.914,0.888-7.857,2.847-6.483,7.179   c2.098,6.615,15.458,3.713,19.788,2.583l0.668,0.49l42.484,74.253c0.686,1.199,1.498,2.276,2.394,3.249   c65.636,81.856,63.977,78.471,71.304,91.295c-0.029-2.28,0.092-4.143,1.721-6.509C218.131,199.757,221.584,187.305,221.453,172.228   z"/>
	<path style="fill:#FCD2AE;" d="M444.005,7.323c-5.857-7.982-17.073-9.706-25.056-3.849l-23.853,17.5   c-2.164,1.504-4.054,3.555-5.387,5.903l-43.47,75.977l-55.937,69.679c-0.09,12.18,1.927,28.156,10.934,41.074   c0.712,1.023,1.156,2.174,1.322,3.373c7.897-13.903,8.319-12.358,71.543-91.564c0.894-0.972,1.704-2.046,2.388-3.242l42.484-74.253   l0.668-0.49c4.33,1.131,17.691,4.032,19.788-2.583c1.374-4.332-2.569-6.291-6.483-7.179l7.209-5.289   C448.138,26.525,449.86,15.306,444.005,7.323z"/>
	<path style="fill:#F9BD91;" d="M256,408.173v0.003c-0.014,0-0.071,0-0.085,0v-0.003c-8.833-0.207-17.933-0.859-27.152-1.945   l22.854,54.703c-0.986-19.106,21.355-29.904,35.745-17.775l-14.979-35.854C266.847,407.753,261.374,408.048,256,408.173z"/>
	<path style="fill:#F9BD91;" d="M278.61,170.454c-2.369,0-5.618-1.92-5.618-4.29v-12.917c-3.324,2.897-7.13,5.28-11.288,7.024   c-3.602,1.511-7.73,1.505-11.318,0c-4.268-1.79-8.162-4.259-11.546-7.261v13.154c0,2.369-4.576,4.29-6.945,4.29   c-0.083,0-0.163,0.012-0.246,0.012l1.96,9.587c4.817,14.909,9.055,26.484,15.017,29.743c4.561,2.494,10.012,2.496,14.578,0.003   c5.964-3.258,10.205-14.838,15.024-29.751l2.123-9.51c-0.551-0.052-1.108-0.085-1.672-0.085H278.61z"/>
	<path style="fill:#EAA77A;" d="M256.31,161.389c-2.021,0.036-4.046-0.331-5.923-1.118c-4.268-1.79-8.162-4.259-11.546-7.261v13.154   c0,2.369-4.576,4.29-6.945,4.29c-0.083,0-0.163,0.012-0.246,0.012l1.96,9.587c3.924,12.144,7.464,22.074,11.863,27.101   C254.395,196.67,256.186,175.416,256.31,161.389z"/>
	<path style="fill:#FC8181;" d="M390.574,359.872c-22.557-1.478-58.91-7.533-94.286-29.687l0,0l-30.214,23.306   c-5.935,4.76-14.381,4.755-20.311-0.011l-30.24-23.296c-35.376,22.154-71.626,28.209-94.183,29.687   c-6.613,0.433-8.736,9.15-3.055,12.564c40.017,24.044,92.304,36.686,137.629,37.747v0.003c0.014,0,0.071,0,0.085,0v-0.003   c45.383-1.062,97.653-13.727,137.629-37.747C399.31,369.022,397.187,360.305,390.574,359.872z"/>
	<path style="fill:#FF3C63;" d="M269.343,374.767c-18.401-4.352-11.252-17.856-11.252-17.856l-0.002-0.01   c-4.29,0.576-8.761-0.556-12.325-3.42l-30.24-23.296c-35.376,22.154-71.626,28.209-94.183,29.687   c-6.613,0.434-8.736,9.15-3.055,12.564c40.017,24.044,92.304,36.686,137.629,37.747v0.003c0.014,0,0.071,0,0.085,0v-0.003   c15.958-0.374,32.767-2.188,49.594-5.42C258.836,397.531,286.417,378.805,269.343,374.767z"/>
	<path style="fill:#E2E9F2;" d="M303.413,212.09c-9.246-13.263-10.897-29.98-10.385-42.867c0.103-2.603-1.97-4.765-4.576-4.765   h-4.405c-1.819,0-3.448,1.083-4.188,2.745c-3.683,8.274-9.983,35.925-17.93,40.266c-3.742,2.044-8.288,2.043-12.03-0.003   c-7.945-4.342-14.243-31.992-17.925-40.263c-0.74-1.661-2.369-2.745-4.188-2.745h-4.489c-2.598,0-4.679,2.153-4.575,4.749   c0.487,12.132-1.127,26.642-9.98,39.495c-1.415,2.055-2.214,4.475-2.207,6.97c0.054,21.676,6.343,26.863,8.97,34.152   c0.403,2.096,1.068,4.68,1.812,7.807h76.809c0.862-3.551,1.674-6.138,2.198-7.777c1.418-2.968,3.766-7.898,3.617-7.587   c5.784-12.094,5.32-23.942,5.35-24.218C305.297,215.917,304.633,213.84,303.413,212.09z"/>
	<path style="fill:#C7D6E5;" d="M215.843,251.43c0.015,0.068,0.031,0.138,0.046,0.206c0.377,1.679,0.886,3.7,1.431,5.995h33.971   c-0.683-4.543-1.969-8.429-4.168-11.418c-15.512-21.091,0-41.237,0-41.237l0.001-0.003l-0.001-0.001   c-6.648-8.209-11.878-30.378-15.126-37.72c-0.007-0.016-0.014-0.034-0.021-0.05c-0.77-1.73-2.458-2.745-4.188-2.745h-4.489   c-2.613,0-4.679,2.165-4.575,4.749c0.573,14.225-1.967,27.862-9.98,39.495c-1.415,2.055-2.214,4.475-2.207,6.97   C206.595,239.279,214,243.136,215.843,251.43z"/>
	<path style="fill:#383C6B;" d="M256,47.303c6.76,0,12.496,1.267,17.324,3.22c0.136-0.859,0.208-1.738,0.208-2.633   c0-9.43-7.849-17.074-17.532-17.074c-9.683,0-17.532,7.644-17.532,17.074c0,0.896,0.072,1.775,0.208,2.633   C243.504,48.57,249.239,47.303,256,47.303z"/>
	<path style="fill:#383C6B;" d="M256,47.303c6.76,0,12.496,1.267,17.324,3.22c0.136-0.859,0.208-1.738,0.208-2.633   c0-9.43-7.849-17.074-17.532-17.074c-9.683,0-17.532,7.644-17.532,17.074c0,0.896,0.072,1.775,0.208,2.633   C243.504,48.57,249.239,47.303,256,47.303z"/>
	<path style="fill:#2B3160;" d="M250.963,38.939c0-3.5,1.946-6.544,4.814-8.112c-9.579,0.118-17.309,7.706-17.309,17.063   c0,0.896,0.072,1.775,0.208,2.633c4.828-1.953,10.564-3.22,17.324-3.22c0.105,0,0.204,0.007,0.308,0.007   C253.154,45.839,250.963,42.649,250.963,38.939z"/>
	<path style="fill:#474979;" d="M221.738,99.744L221.738,99.744c0.49-1.563,1.162-3.483,2.069-4.479   c0.817-0.896,1.329-2.006,1.366-3.192c0.212-6.931,2.948-28.29,29.218-18.482c1.032,0.385,2.184,0.385,3.217,0   c26.27-9.807,29.006,11.551,29.218,18.482c0.036,1.186,0.549,2.296,1.366,3.192c0.907,0.996,1.579,2.916,2.069,4.479l0,0   c1.331-0.864,3.397-1.46,5.265-1.417l0-0.005V82.03c0-12.748-7.297-24.562-19.139-30.512c-5.41-2.718-12.136-4.604-20.388-4.604   c-8.251,0-14.978,1.886-20.388,4.604c-11.842,5.95-19.139,17.764-19.139,30.512v16.292l0,0.005   C218.341,98.284,220.407,98.88,221.738,99.744z"/>
	<path style="fill:#383C6B;" d="M245.335,60.735c0-6.274,3.906-11.624,9.413-13.785c-7.675,0.183-14.006,1.991-19.136,4.569   c-11.842,5.95-19.139,17.764-19.139,30.512v16.292l0,0.005c1.868-0.043,3.934,0.553,5.265,1.417v0   c0.491-1.563,1.162-3.483,2.069-4.479c0.817-0.896,1.329-2.006,1.366-3.192c0.204-6.64,2.738-26.502,26.047-19.537   C247.651,69.831,245.335,65.559,245.335,60.735z"/>
	<path style="fill:#F9BD91;" d="M221.413,120.26c0,0-2.144-13.213,0.325-21.082c-2.241-1.454-6.569-2.165-8.516-0.311   c-3.986,3.795-1.066,9.525,0.332,13.145c0.429,1.112,0.706,2.235,0.831,3.362c0.272,2.447,1.634,6.029,7.284,5.944   C221.584,120.966,221.496,120.619,221.413,120.26z"/>
	<path style="fill:#EAA77A;" d="M220.557,109.884c-1.087,0.864-2.459,1.383-3.955,1.383c-1.458,0-2.798-0.496-3.872-1.321   c0.291,0.738,0.582,1.435,0.825,2.066c0.429,1.112,0.706,2.235,0.831,3.362c0.272,2.447,1.634,6.029,7.284,5.944   c-0.085-0.353-0.173-0.7-0.256-1.058C221.413,120.26,220.632,115.437,220.557,109.884z"/>
	<path style="fill:#F9BD91;" d="M298.778,98.867c-1.947-1.854-6.276-1.143-8.516,0.311c2.469,7.869,0.325,21.082,0.325,21.082   c-0.083,0.358-0.171,0.706-0.256,1.058c5.649,0.084,7.012-3.497,7.284-5.944c0.125-1.126,0.402-2.25,0.831-3.362   C299.843,108.392,302.764,102.662,298.778,98.867z"/>
	<path style="fill:#EAA77A;" d="M295.49,111.267c-1.537,0-2.946-0.545-4.046-1.451c-0.07,5.581-0.857,10.444-0.857,10.444   c-0.084,0.358-0.171,0.705-0.256,1.058c5.649,0.084,7.012-3.497,7.284-5.944c0.125-1.126,0.402-2.25,0.831-3.362   c0.233-0.603,0.508-1.267,0.786-1.968C298.181,110.81,296.89,111.267,295.49,111.267z"/>
	<path style="fill:#FCD2AE;" d="M288.398,95.229c-0.821-0.897-1.336-2.007-1.373-3.194c-0.214-6.935-2.963-28.305-29.364-18.492   c-1.037,0.385-2.195,0.385-3.233,0c-26.401-9.813-29.15,11.558-29.364,18.492c-0.036,1.187-0.552,2.297-1.373,3.194   c-5.503,6.013-2.406,25.008-2.406,25.008c2.632,11.261,6.299,19.627,10,25.768c4.379,7.265,11.114,12.926,19.1,16.275   c3.588,1.505,7.716,1.511,11.318,0c7.986-3.35,14.721-9.01,19.1-16.275c3.701-6.141,7.368-14.506,10-25.768   C290.805,120.237,293.902,101.242,288.398,95.229z"/>
	<path style="fill:#F9BD91;" d="M247.876,146.005c-2.684-6.141-5.344-14.506-7.253-25.768c0,0-2.246-18.995,1.745-25.008   c0.595-0.897,0.969-2.007,0.996-3.193c0.104-4.657,1.046-15.81,7.445-19.673c-23.022-6.595-25.54,13.07-25.744,19.673   c-0.036,1.187-0.552,2.297-1.373,3.193c-5.503,6.013-2.406,25.008-2.406,25.008c2.632,11.261,6.299,19.627,10,25.768   c4.378,7.265,11.114,12.926,19.1,16.275c3.588,1.505,7.716,1.511,11.318,0l0.014-0.006   C255.931,158.923,251.05,153.266,247.876,146.005z"/>
	<path style="fill:#F9BD91;" d="M307.626,150.953l-17.325,21.581c-0.09,12.18,1.927,28.156,10.934,41.074   c0.712,1.023,1.156,2.174,1.322,3.373c5.788-10.191,7.564-12.085,32.996-43.561C320.553,181.727,302.667,167.656,307.626,150.953z"/>
	<path style="fill:#EAA77A;" d="M221.453,172.228l-16.558-20.626c4.384,16.902-13.961,30.281-28.655,21.477   c27.033,33.519,27.511,34.085,32.97,43.64c-0.029-2.28,0.092-4.143,1.721-6.509C218.131,199.757,221.584,187.305,221.453,172.228z"/>
	<path style="fill:#E2E9F2;" d="M221.608,293.95c0,13.218-2.928,25.551-5.674,34.212c-0.414,1.305-0.517,2.611-0.383,3.864   l29.617,22.816c6.276,5.044,15.215,5.049,21.497,0.011l29.616-22.845c0.13-1.248,0.027-2.548-0.384-3.846   c-2.747-8.661-5.674-20.993-5.674-34.212c0-24.63,4.462-38.964,6.103-44.095c1.418-2.968,3.766-7.898,3.617-7.587   c5.784-12.094,5.32-23.942,5.35-24.218c0.005-2.133-0.66-4.21-1.879-5.96c-9.246-13.263-10.897-29.98-10.385-42.867   c0.103-2.603-1.97-4.765-4.576-4.765h-4.405c-1.819,0-3.448,1.083-4.188,2.745c-3.683,8.274-9.983,35.925-17.93,40.266   c-3.742,2.044-8.288,2.043-12.03-0.003c-7.945-4.342-14.243-31.992-17.925-40.263c-0.74-1.661-2.369-2.745-4.188-2.745h-4.489   c-2.598,0-4.679,2.153-4.575,4.749c0.487,12.132-1.127,26.642-9.98,39.495c-1.415,2.055-2.214,4.475-2.207,6.97   c0.054,21.676,6.343,26.863,8.97,34.152C216.932,257.241,221.608,270.506,221.608,293.95z"/>
	<path style="fill:#C7D6E5;" d="M259.109,358.32c-23.606-31.172,2.853-91.931-11.986-112.106c-15.512-21.091,0-41.237,0-41.237   l0.001-0.003c-6.636-8.193-11.907-30.489-15.148-37.772c-0.739-1.661-2.369-2.745-4.188-2.745h-4.489   c-2.598,0-4.679,2.152-4.575,4.749c0.488,12.132-1.127,26.642-9.98,39.495c-1.415,2.055-2.214,4.475-2.207,6.97   c0.054,21.676,6.343,26.863,8.97,34.152c1.426,7.416,6.102,20.682,6.102,44.126c0,21.603-6.577,33.203-6.057,38.076l29.617,22.816   C249.189,358.074,254.301,359.226,259.109,358.32z"/>
</g>















</svg>
