<?xml version="1.0" encoding="utf-8"?>
<!DOCTYPE svg PUBLIC "-//W3C//DTD SVG 1.1//EN" "http://www.w3.org/Graphics/SVG/1.1/DTD/svg11.dtd">
<svg version="1.1" id="Layer_1" xmlns="http://www.w3.org/2000/svg" xmlns:xlink="http://www.w3.org/1999/xlink" x="0px" y="0px"
	 viewBox="0 0 665 2325" enable-background="new 0 0 665 2325" xml:space="preserve">
<g>
	<path d="M607.5374,665.268c-1.3292-8.1217-6.1675-13.941-14.2356-16.4568c-6.9613-2.1707-14.1241-2.0186-21.2606-0.9753
		c-1.7606,0.2574-3.3525,0.9631-4.8785,2.2119c-10.1764,8.3281-20.5927,16.3782-27.8099,27.6824
		c-0.7048,1.1042-1.7639,1.9954-2.717,2.9258c-8.1152,7.9226-16.0964,15.9581-22.217,25.6128
		c-0.4429,0.6986-1.0219,1.3132-1.5581,1.9497c-0.5481,0.6506-1.223,1.3052-2.0972,1.0963
		c-1.3477-0.3219-0.9309-1.5665-0.9541-2.4718c-0.1823-7.085,1.4801-13.8563,3.8462-20.4434
		c1.4844-4.1331,2.1361-8.2686,2.1035-12.6665c-0.0768-10.3276-0.6025-20.6945,0.4606-30.9778
		c1.7438-16.8665,4.2224-33.6342,5.1483-50.6135c0.5865-10.7554-1.7764-20.3622-6.4895-29.73
		c-4.1785-8.3052-10.7114-13.8149-19.3826-16.9912c-13.094-4.7965-25.9918-3.71-39.0649,0.4343
		c-12.7107,4.0293-22.4009,11.3413-28.5144,23.2769c-1.667,3.2548-3.6221,6.3628-5.2705,9.6261
		c-14.5308,28.7648-27.2456,58.4055-42.9685,86.6158c-10.8407,19.4504-17.9263,40.387-17.8191,63.1563
		c0.0222,4.7444-1.8539,9.1113-3.6482,13.3929c-3.7881,9.0387-7.9377,17.9276-11.6409,26.9996
		c-6.7246,16.4741-15.1592,32.1653-22.019,48.5753c-1.3842,3.311-3.3042,3.7384-6.3188,1.8752
		c-1.8853-1.1652-3.2335-2.8759-4.4098-4.7015c-3.2288-5.0112-5.016-10.4955-5.0054-16.4792
		c0.0111-6.1802-0.2201-12.3699-1.7666-18.3463c-3.6335-14.0424-9.0089-27.4395-16.6193-39.7981
		c-2.3823-3.8688-2.8226-7.2051-0.8802-11.1569c2.6366-5.3643,4.8925-10.9268,7.724-16.1821
		c11.1243-20.6472,21.3167-41.7036,28.9989-63.9084c1.4159-4.0925,2.8488-8.2156,3.1572-12.5322
		c0.4126-5.7734,3.6237-9.5759,8.1958-12.3696c2.8937-1.7679,5.4574-3.8176,7.5851-6.3931
		c14.314-17.3279,30.6906-32.8962,43.6575-51.3806c4.5963-6.5521,9.5442-12.9624,15.9773-17.7883
		c5.1445-3.8594,8.5088-8.8079,11.2166-14.3864c6.6144-13.6268,6.5156-27.1927-0.5852-40.6268
		c-1.4915-2.8217-3.3518-5.4165-6.0388-7.2157c-10.0961-6.7604-28.6714-12.0216-42.28,1.0499
		c-9.8572,9.468-19.4895,19.1536-29.2394,28.7239c-3.5741,3.5081-7.1993,6.9409-11.3127,9.8108
		c-9.2751,6.4709-18.8035,12.5363-27.6282,19.6987c-12.8199,10.4052-23.8136,22.3093-32.2238,36.468
		c-9.9462,16.7448-19.8824,33.4889-31.1388,49.3958c-3.4535,4.8804-7.1656,9.6189-11.1597,14.0625
		c-3.1405,3.4938-6.4644,2.9802-9.0865-0.8879c-1.7092-2.521-2.573-5.3368-2.5944-8.4453
		c-0.0656-9.5701,2.7651-18.4576,7.2758-26.6394c3.6632-6.6445,6.0166-13.6183,8.1254-20.8003
		c3.2521-11.0758,4.5724-22.929,12.5642-32.1696c0.4142-0.4789,0.5945-1.1918,0.7877-1.825
		c3.3395-10.9452,7.2639-21.7174,9.4561-32.9998c0.8918-4.5897,2.8411-8.7284,5.4453-12.7181
		c6.4366-9.8608,14.6367-18.1007,22.9819-26.2484c1.5498-1.5133,2.9186-3.1371,4.0942-4.9945
		c5.7778-9.1278,11.33-18.4077,18.0065-26.9402c11.0839-14.165,20.88-29.3389,32.7396-42.8733
		c6.4053-7.3099,9.4434-15.3774,9.7175-24.8987c0.1863-6.4629-0.0217-13.1165,2.5328-19.1947
		c5.1305-12.2072,3.1808-24.9117,3.0679-37.483c-0.0184-2.0623-0.9779-4.2019-1.8418-6.1558
		c-3.7289-8.4324-3.6299-8.1484,4.7103-12.7334c12.2686-6.7445,24.7195-12.1368,39.2495-10.7795
		c5.999,0.5604,6.1284-0.0007,5.0857-6.0698c-0.1318-0.7677-0.3689-1.5273-0.6482-2.2642c0.7124-0.3781,1.5708-0.8539,2.5337-1.4268
		c2.6553-1.5831,6.0782-3.9125,9.0597-6.7596c0.7505-0.7026,1.4607-1.4502,2.1379-2.201c0.6725-0.7568,1.2969-1.5336,1.8643-2.311
		c1.1315-1.559,2.0045-3.1368,2.598-4.5452c0.2902-0.7086,0.5269-1.3649,0.6937-1.9611c0.1918-0.5863,0.2731-1.1227,0.3828-1.5477
		c0.1312-0.8699,0.2062-1.3671,0.2062-1.3671s-0.1355,0.4816-0.3726,1.3242c-0.1616,0.4071-0.3046,0.9169-0.5636,1.4653
		c-0.2341,0.5579-0.5436,1.1644-0.9067,1.8092c-0.7406,1.2821-1.7601,2.6776-3.0151,4.0181
		c-0.6298,0.6688-1.3112,1.3281-2.0353,1.9626c-0.7295,0.6292-1.4847,1.2487-2.2769,1.8229
		c-3.1444,2.3301-6.6488,4.1213-9.3219,5.2921c-1.0654,0.4653-1.9916,0.8328-2.7281,1.1089
		c-2.9454-4.0354-7.437-4.1318-11.7253,0.0859c-1.3066,1.2853-2.6624,2.5308-3.8666,3.9075
		c-1.3639,1.5592-2.5682,1.9165-4.0135,0.1069c-2.3162-2.9003-4.6912-2.6729-7.7775-0.7356
		c-3.4919,2.1918-7.4852,3.5575-11.4904,4.7205c-1.3669,0.397-2.6732,0.637-4.5167,0.1199
		c3.6066-3.8445,7.2604-6.7583,11.176-9.2097c7.6654-4.7988,12.6139-11.6794,16.2668-19.7228
		c0.8903-1.9601,1.8907-3.8885,3.0282-5.7147c4.7605-7.6436,8.7126-15.6924,12.2861-23.944
		c11.9999-27.7097,14.1166-57.2952,15.9009-86.8177c1.4323-23.698-1.8477-47.1785-5.9773-70.4858
		c-1.5449-8.7192-5.9933-15.7898-13.4912-20.7471c-2.7644-1.8276-5.6382-2.5117-8.9879-1.4358
		c-2.8922,0.929-5.6586,2.0498-8.0253,3.8884c-9.6486,7.496-16.2838,17.4835-22.5809,27.7241
		c-0.4209,0.6846-0.5856,1.5681-0.7147,2.3835c-0.9167,5.7867-3.8201,10.6327-7.423,15.0392
		c-8.3695,10.2366-17.9261,19.2477-28.6349,27.0242c-4.4561,3.236-8.6835,6.7332-12.4343,10.7915
		c-5.5647,6.0211-8.4927,12.7841-7.6932,21.2833c0.9105,9.6794-7.9344,16.7979-17.5709,14.7532
		c-4.4491-0.944-8.9646-0.8966-13.3933-0.085c-14.7621,2.7056-25.8391,10.9749-34.0187,23.2827
		c-2.047,3.0803-4.1578,6.0449-6.9468,8.4423c-4.5392,3.902-5.6119,8.5079-2.9374,13.8248
		c0.8773,1.7438,0.9783,2.9983-0.5094,4.4015c-2.7238,2.5692-3.0929,5.6768-2.0148,9.1853
		c0.5215,1.6976,0.8911,3.4596-0.3413,5.2494c-2.2942,3.3309-1.7556,6.9038-0.4617,10.485
		c0.3533,0.9778,1.2776,1.6852,0.5493,3.1583c-3.2292,6.5322-1.5649,12.9194,1.3071,19.0449
		c1.6749,3.5725,3.9067,6.8801,5.7966,10.3567c1.3433,2.4712,2.8282,4.856,3.2935,7.7594
		c1.2111,7.5577,10.6938,15.8712,18.2827,15.515c14.1899-0.6664,28.0447,2.0624,42.7087,3.3259
		c-3.509,3.73-7.1313,5.5881-11.6934,5.5742c-7.1663-0.0217-14.3328-0.0073-21.4993-0.0011
		c-1.9962,0.0018-3.9956-0.0876-5.9075,0.7196c-3.1487,1.3291-8.0583,2.563-7.507,5.8374c0.4352,2.5844,5.5746,2.3339,8.9855,2.0371
		c11.5935-1.0082,23.1033-3.2815,34.8142-2.5471c2.7225,0.1707,5.3872,0.1072,8.215,0.9746
		c1.9618,0.6018,4.9572-2.3483,7.5598-3.5635c1.046-0.4885,2.278-0.4165,3.8425,0.0571c-2.0945,1.8129-3.9006,2.9915-5.2957,4.6819
		c-5.4713,6.6293-5.6146,6.6188-10.8715,0.3643c-0.4518-0.5376-0.4117-1.8083-1.6033-0.8064
		c-0.7758,0.6521-0.8491,1.3828-0.2019,2.1389c0.5408,0.6316,1.1477,1.2063,1.719,1.8123c3.2852,3.4849,3.3563,4.2224-0.8289,6.4736
		c-16.0011,8.6073-31.061,18.6265-45.707,29.3562c-9.3995,6.8862-19.1445,13.3083-28.1013,20.7852
		c-6.4545,5.3879-11.9073,11.7749-15.7969,19.1755c-2.6096,4.9653-4.2941,10.4437-7.6924,15.0081
		c-12.2358,16.4335-22.5022,34.1664-33.896,51.1501c-11.0322,16.4446-21.7382,33.1499-34.3484,48.4781
		c-3.2014,3.8914-6.1191,7.928-8.0508,12.558c-7.6116,18.2457-13.9293,36.5388-15.1113,56.8416
		c-1.1466,19.6948-2.5164,39.4948-5.0526,59.1221c-1.494,11.5615-1.7206,23.2927-3.462,34.7284
		c-1.9961,13.1073-2.2852,26.1511-2.6528,39.2802c-0.4333,15.4749-1.5857,30.8301-5.24,46.0016
		c-7.5789,31.4657-16.163,62.6713-23.9294,94.0867c-1.6625,6.725-1.2788,13.1373,1.1179,19.5565
		c1.64,4.3923,4.0518,8.3689,6.346,12.4187c9.5452,16.8486,17.3546,34.3745,21.1877,53.5019
		c2.6416,13.1818,5.5288,26.3144,8.2593,39.4786c5.6018,27.0065,14.297,53.1929,21.1902,79.8601
		c6.8926,26.6653,14.8394,53.0564,21.9277,79.6733c4.6953,17.6306,7.3386,35.8079,13.6395,53.0144
		c8.7948,24.0167,14.0835,48.824,16.5143,74.2015c2.2754,23.7548,1.9299,47.6216,0.981,71.429
		c-1.2932,32.4382-4.9058,64.7131-7.9031,97.0249c-2.0144,21.7153-3.813,43.4359-4.9705,65.2197
		c-0.6345,11.9437-1.6665,23.8761-3.5637,35.7373c-1.406,8.7899-4.8459,16.8192-7.5325,25.1626
		c-4.785,14.8596-7.928,30.1748-10.6743,45.5345c-3.4491,19.2908-6.6836,38.6215-9.8231,57.9655
		c-3.2198,19.8395-6.2184,39.715-9.3047,59.5762c-2.8827,18.5504-5.873,37.0851-8.592,55.6595
		c-2.2865,15.621-4.3097,31.2816-6.3409,46.9386c-1.8608,14.3431-3.5999,28.7024-5.3501,43.0596
		c-1.8911,15.5143-3.8514,31.0214-5.5652,46.5555c-1.8969,17.1927-3.4554,34.4227-5.3302,51.618
		c-2.4692,22.6484-5.1531,45.2733-7.652,67.9186c-2.4808,22.4802-4.7599,44.9829-7.286,67.458
		c-2.8044,24.9514-5.8398,49.8767-8.6794,74.8242c-2.8397,24.948-5.4263,49.926-8.4726,74.8481
		c-0.4901,4.0093,0.7267,4.2175,3.9623,4.3232c35.8021,1.1709,71.5983,2.5171,107.3989,3.7395
		c40.9626,1.3992,81.9281,2.7234,122.8926,4.075c39.2986,1.2966,78.5996,2.531,117.8931,3.9717
		c3.675,0.1348,5.0471-0.802,5.2268-4.4573c0.613-12.4724,1.437-24.9348,2.1819-37.4009c0.7847-13.1316,1.541-26.2649,2.364-39.394
		c1.1875-18.9434,2.4417-37.8826,3.6331-56.8259c0.8253-13.1223,1.5637-26.2502,2.3931-39.3723
		c1.176-18.6106,2.4293-37.2161,3.5934-55.8275c0.8212-13.1294,1.5491-26.2646,2.3184-39.3972
		c1.2367-21.1118,2.493-42.2227,3.7026-63.3359c0.8097-14.1331,1.5106-28.2722,2.3351-42.4043
		c1.1927-20.4465,2.4387-40.8898,3.6903-61.3328c0.7428-12.1328,1.5139-24.264,2.3185-36.3929
		c1.2009-18.1066,2.4976-36.2069,3.6498-54.3167c0.9518-14.9575,2.0089-29.9153,2.5518-44.89
		c0.5793-15.9835,1.952-31.8909,3.4573-47.7988c1.1598-12.2581,2.252-24.5226,3.3322-36.788
		c1.2408-14.0903,2.4744-28.1815,3.6392-42.2781c1.1515-13.9326,2.1023-27.8824,3.343-41.8068
		c1.5068-16.9117,3.3904-33.8043,3.6921-50.7887c0.4813-27.0892,5.2797-53.1549,16.811-77.8624
		c3.647-7.814,6.637-15.9427,9.7378-24.0005c1.8621-4.8385,3.2987-9.9388,2.2549-15.1223
		c-0.8997-4.4686-0.1455-8.5891,1.1362-12.7313c1.078-3.484,2.2644-6.9409,3.5596-10.3502
		c3.4539-9.0905,4.6293-18.3063,2.0968-27.8583c-1.2545-4.7321-1.3304-9.6653-0.4103-14.3773
		c0.8132-4.1656,0.9258-8.2731,0.7139-12.4016c-0.6318-12.3064-1.3035-24.6152-2.28-36.8976
		c-0.556-6.9946,0.2631-14.0969-0.8412-20.9546c-2.4227-15.0447-2.6884-30.1484-2.8579-45.307
		c-0.0948-8.4843-1.1243-16.9136-2.4652-25.3146c-1.7592-11.0212-5.4473-21.5527-7.7974-32.4165
		c-1.4844-6.8616-0.9771-13.9263-2.1636-20.8207c-2.1973-12.767-4.3463-25.5421-6.5168-38.3137
		c-2.1423-12.6061-4.1877-25.2461-9.0548-37.1757c-1.7826-4.3691-2.6483-8.848-3.0718-13.524
		c-0.5337-5.8928,0.9249-11.5939,1.187-17.4034c1.0521-23.3234,0.4166-46.6581,0.5109-69.9872
		c0.0171-4.2529,0.7488-8.1853,2.3911-12.0972c7.7192-18.3879,15.8818-36.5697,24.6178-54.4995
		c6.1071-12.5341,13.9371-23.8131,23.6759-33.7855c5.2395-5.3652,10.4438-10.7653,15.6174-16.1942
		c10.4421-10.9575,18.9644-23.0875,23.7679-37.6604c3.163-9.5955,8.6804-17.7341,15.5079-25.3064
		c10.1311-11.2361,19.5215-23.1511,26.3235-36.8392c3.1791-6.3975,6.1274-12.9291,9.6588-19.1273
		C609.0201,684.4208,609.1097,674.8758,607.5374,665.268z"/>
	<polygon points="419.5605,257.4106 419.468,257.4557 419.7408,257.327 	"/>
</g>
</svg>
