<?xml version="1.0" encoding="utf-8"?>
<!-- Generator: Adobe Illustrator 20.0.0, SVG Export Plug-In . SVG Version: 6.00 Build 0)  -->
<svg version="1.1" id="Layer_1" xmlns="http://www.w3.org/2000/svg" xmlns:xlink="http://www.w3.org/1999/xlink" x="0px" y="0px"
	 viewBox="0 0 595.3 595.3" enable-background="new 0 0 595.3 595.3" xml:space="preserve">
<g>
	<path fill="#4E2F58" d="M460.1,196.4c-0.3-0.1-0.6-0.2-0.9-0.2c-0.4,0-0.7,0.2-0.9,0.7c-6.3,21.9-16.5,37.9-27.4,37.9
		c-11.8,0-13-12.9-13.1-25.1c32.9-18.3,24.8-40.9,12.4-40.9c-10.3,0-23.3,13.7-23.8,35.2c-6.3,18.2-15.5,30.8-25.2,30.8
		c-13.4,0-13.1-16.4-13.1-29.7c0-22,7.2-34.2,13.6-34.2c4.8,0,8.7,5.2,8.7,10.7c0,0.6,1.7,0.1,1.7-1.7c0-5.9-4.5-11.1-11.6-11.1
		c-10.3,0-23.2,13.6-23.7,35c-2.7,8.1-7.9,21.4-16.3,21.4c-7.7,0,14.5-56.4-7.3-56.4c-18.1,0-22.2,35.1-22.2,56.4
		c-1.2-5.3-0.6-27.9-0.4-33.8c0.1-3.9-9.9-2.3-10,0.9c-0.1,2.6-0.1,6.3,0.1,10.4c-7.2,18.5-14.9,32.1-20.4,32.1
		c-2.8,0-3.9-3.8-3.9-9.4c0-8.5,3.4-28,5.9-38.7c0.6-1.4-2.9-2.6-5.7-2.6c-1.9,0-3.4,0.4-3.7,1.6c-1.4,14.3-13.5,36.1-19,36.1
		c-1.3,0-4.3-3.5-4.3-16.8c0-22,7.2-34.2,13.6-34.2c4.8,0,8.7,5.2,8.7,10.7c0,0.6,1.7,0.1,1.7-1.7c0-5.9-4.5-11.1-11.6-11.1
		c-9.9,0-22.3,12.6-23.6,32.6c-4,7.3-10.6,12.1-18,15.4c0.7-3,1.2-5.9,1.5-8.6c2.8-22.6-1.1-53.8-18.5-53.8c-11,0-20.7,12-28.7,52.5
		c-1.5-13.5-3-23.7-5.6-35.9c-2.7-12.2-10.4-20.4-22.3-20.4c-26.9,0-23.4,39.6-3.8,39.6c1.6,0,2.8-3.2,0-3.2
		c-16.4,0-16.4-32.6,0-32.6c9.1,0,14.4,7.7,16.6,18.7c3.7,19.1,4,26.5,6.1,50.3c0.2,2.7,10.6,1,10.3-2.7
		c7.8-38.1,14.2-61.2,25.3-61.2c13.9,0,13.5,34.2,10.4,52.2c-0.5,2.7-1.2,5.9-2.3,9.1c-16.8,5.1-33.8,6.6-33.6,17.5
		c0.2,8.5,4.9,14.2,14.3,14.2c12.8,0,24-15.7,29.1-31.7c7.3-3,14.2-7.2,19.1-13.4c0.6,15.6,7.9,18,13.3,18c6.8,0,14.9-11,18.7-21.5
		c-0.6,4.4-0.9,8.8-0.9,12.8c0,11.9,2.8,20.9,10.3,20.9c7.5,0,15.3-13.2,21.4-27.2c0.5,9,1.6,18.3,3.5,21.8c1.5,2.7,7.6,3.7,8.1,0.1
		c2.7-19.7,4.4-60.8,20-60.8c7.8,0-8.8,57.5,7.4,57.5c8.7,0,13.9-8.5,17.3-16.6c1.5,14.2,8.1,25.2,23.3,25.2
		c11.1,0,19.8-13,26.1-26.9c1.2,15.1,7.7,26.9,23.5,26.9c14.5,0,24.8-22.1,31.2-39.6C461.7,197.1,461,196.7,460.1,196.4z
		 M417.9,205.1c0-22,7.2-34.2,13.6-34.2c8.5,0,14.7,19.7-13.6,36.3V205.1z M195.2,244.9c-8.4,5.2-16,3.5-16.2-6.4
		c-0.2-7.6,13.9-9.5,29.2-13.9C205.1,233,200.6,241.6,195.2,244.9z"/>
	<g>
		<path fill="#E063A2" d="M375.9,274.3c-0.4-0.3-0.5,0.5-0.5,0.8c0.1,2.9-0.2,5.7-0.4,8.6c-0.4,7.8-0.5,15.6-0.8,23.5
			c-0.1,3.4-0.5,6.9-0.5,10.4c0.1,0.5-0.1,1.1,0.5,1.3c0.5,0.2,0.9-0.2,1.2-0.5c0.2-0.2,0.4-0.3,0.5-0.5c3.6-3.6,6.4-7.9,7.6-12.8
			c2.2-9,2-17.8-3.3-25.9C379,277.3,377.9,275.4,375.9,274.3z"/>
		<path fill="#E063A2" d="M301,274.2c-2.3-3-4.1-3.4-5.6,0.1c-2.7,7.4-2.6,18.3-2.6,21.8c0,6.7,0,11.4,1.2,17c0.4,2.2,1,4.3,2.2,6.2
			c1.1,1.8,2.8,1.8,4.2,0.3c0.8-0.8,1.5-2.7,1.8-3.8c1.2-5.2,2-9.7,2.1-15c0-4.9-0.5-9.7-0.7-14.4
			C303.3,282.7,302.8,277.8,301,274.2z"/>
		<path fill="#E063A2" d="M322.8,273c0.1,4.1-0.3,8.2-0.5,12.3c-0.2,3.9,0,7.9-0.4,11.8c-0.2,2.1-0.3,4.2,0,6.5
			c0,0.3,0.3,0.4,0.6,0.3c0.5-0.3,0.9-0.7,1.1-1c1.7-1.9,3-4.2,4.3-6.5c2.3-4.8,3.6-9.6,2.4-14.9c-0.6-2.8-2.1-5.2-4-7.4
			C323.8,271.5,322.7,271.1,322.8,273z"/>
		<path fill="#E063A2" d="M354.7,275c-2.2-3.1-4-3.6-5.6-0.1c-3,7.3-3.1,18.2-3.2,21.7c-0.2,6.7-0.3,11.4,0.7,17.1
			c0.4,2.2,0.9,4.3,2,6.3c1.1,1.8,2.7,1.9,4.2,0.5c0.8-0.8,1.6-2.6,1.9-3.7c1.3-5.2,2.2-9.6,2.5-15c0.1-4.9-0.2-9.7-0.3-14.5
			C356.8,283.5,356.4,278.6,354.7,275z"/>
		<path fill="#E063A2" d="M323.3,310.6c-1.4-0.4-1.8,0-2,1.3c-0.2,2.1-0.3,4.1-0.5,6.4c0,0.3,0,0.7,0.1,1.2c0.1,1.8,0.8,2.4,2.5,1.6
			c2-0.8,3.2-2.4,3.4-4.4C327.2,314.1,326.2,311.3,323.3,310.6z"/>
		<path fill="#E063A2" d="M120.5,266.1l10.4,76.6c166.8-22.5,333.8,0,333.8,0l10.2-76.6C323.2,238.9,120.5,266.1,120.5,266.1z
			 M167,326.2c-2,2-7.6,4.9-12.2,3.8c-2.6-0.6-4.1-1.9-4.5-4.7c-1-6.3-3-38.7-3.6-47.7c0-0.5-0.3-3.3,1.7-3.9
			c1.7-0.4,3.5-0.3,4.1,5.3c0.6,6.4,1,13,1.4,19.4c0.5,6.9,1.1,13.7,2.1,20.5c0.2,1.8,0.2,3.4,0.7,5.1c0.5,1.6,2.5,1.2,4.7,0.2
			c2-1,3.6-1.5,5.2-1.4C167.9,322.9,168.3,324.5,167,326.2z M185.1,327.5c-0.6,0.2-1.9,0.5-2.5,0.4c-3-0.1-5.1,0.2-8-0.3
			c-0.4-0.1-0.8-0.1-1.1-0.3c-1-0.3-1.8-1-1.9-2.1c0-1.3,0.8-1.9,2-1.9c1.2-0.1,2.3,0.4,2.7-0.7c0.4-0.9,0-1.9-0.1-2.9
			c-0.5-6.2-1.1-12.7-1.5-19.3c-0.2-3.9-0.5-6-0.5-9.4c-0.1-4.1-0.3-8.1-1-12.2c-0.2-1.2-0.5-1.8-1.9-1.6c-1.1,0.2-2.5-0.5-2.8-1.6
			c-0.1-1.7,0.6-2.1,1.6-2.6c0.6-0.3,1.3-0.4,2.1-0.5c1.1-0.1,6.3-0.3,7.7-0.3c1.1,0,2.4,0.3,2.7,1.5c0.2,1.2-0.7,2-1.8,2.4
			c-0.6,0.2-1.6,0-1.9,0.9c-0.2,0.8,0.1,2.7,0.1,3.5c0.3,4.1,0.5,7.4,0.7,11.5c0.4,7.1,0.9,14.3,1.4,21.5c0.2,2.6,0.6,5.3,0.8,7.9
			c0.2,1.9,0.2,1.9,2.1,2.4c0.7,0.2,1.3,0.3,1.8,0.9C186.7,325.9,186.5,327,185.1,327.5z M210.9,326.6c-1.6,1.2-3.8,0.2-4.1-1.9
			c-0.4-2.1-1-4.2-1.6-6.2c-0.8-3-2.1-4.4-4.6-6.4c-0.6-0.4-1.2-1.1-2.3-1.4c-0.2-0.1-0.7-0.1-0.7,0.4c-0.1,2.1,0.1,3.2,0.2,6.3
			c0.1,3.6,0.2,4.9,0.2,7.5c0,1.5-0.2,2-1.2,2.8c-1.4,1-4.5,0.6-4.7-1.3c-0.3-1.5-0.3-3-0.4-4.4c-0.8-15-1.6-30-2.4-45
			c0-0.8-0.1-1.6,0-2.4c0.1-1,0.7-1.9,1.9-2.5c1.9-0.7,3.2-0.3,3.8,1.4c0.4,1,0.4,2,0.4,3.1c0.4,7.3,0.8,14.6,1.2,22
			c0,0.8,0.2,1.9,0.5,1.9c0.3,0.2,1.5-1.7,2-2.4c4.1-6,5.5-11.8,6.1-19.6c0.1-1.9,0.2-3.6,0-5.5c0-0.8-0.1-1.6,0.2-2.4
			c0.5-1,1.5-1.8,2.7-1.6c1.4,0,1.9,0.8,2.1,1.8c1.6,8.3,0.3,16.4-3.3,24.2c-1.5,3.2-3.2,6.3-5.9,9c-1.1,1.1-1.1,1.1,0.3,2.1
			c0.9,0.5,1.8,1,2.7,1.5c2.3,1.5,4,3.4,5.2,5.7c1.7,3.3,2.4,6.8,3.1,10.3C212.6,324.9,212,325.9,210.9,326.6z M234.8,322.2
			c-2.9,1.6-6,3.1-9.3,3.4c-2.7,0.3-4.5,0.3-6.5-1.2c-1.2-0.9-1.8-3.5-1.7-4.9c-0.3-9.4-0.5-18.8-0.4-28.1c0.1-5.4,0.5-10.8,0-16.2
			c-0.1-0.2-0.7-3.2,1.2-4.8c1.7-1.5,4.8-0.9,7.6-0.9c2.8,0,4.3-0.5,6.9-0.3c1,0,1.8,0.9,2,1.7c0.1,0.8,0.4,2.7-4.4,3
			c-1.6,0.2-4-0.1-5.5,0.2c-1.5,0.2-1.9,0.7-1.6,2.1c0.7,4.5,0.4,9,0.4,13.5c0,4,0,8.1-0.2,12.2c0,1.6,0,3,0.1,4.9
			c0.2,0.8,0.3,1.1,1.1,0.9c0.9-0.3,1.8-0.6,2.8-0.9c1.2-0.3,2.9-0.9,4.1-0.6c0.8,0.1,1.2,0.5,1.4,1.5c0.3,1-0.6,1.5-1.3,1.9
			c-0.7,0.4-1.6,0.8-2.4,1c-1.3,0.4-2.4,0.8-3.7,1.1c-1.2,0.3-1.7,1-1.8,2.2c-0.2,2-0.1,4.1,0.2,6.2c0.2,1.4,0.8,1.8,2.3,1.6
			c1.2-0.1,2.3-0.7,3.3-1.2c0.9-0.5,1.8-0.9,2.8-1.4c0.7-0.4,1.9-1,2.7-0.7c0.7,0.3,1.2,0.9,1.3,1.9
			C236.2,321.2,235.5,321.8,234.8,322.2z M281.1,319.5c-0.1,0.6-0.2,1.2-0.3,1.8c-0.3,1.5-1.3,2.5-3,2.9c-1.3,0.2-3.3-0.8-4-2.1
			c-0.7-1.4-1.3-2.9-1.9-4.3c-3.2-8.6-5.3-15.6-7.1-24.6c-0.9-3.6-2.6-9.9-2.8-9.9c-0.6-0.2-0.8,4.1-0.8,5.6c0,8.8-0.3,16.5,0.2,25
			c0.1,3.1,0.5,6.1,0.3,9.3c-0.2,1.5-0.1,3.4-3.2,3.5c-1.9-0.2-2.1-1.5-2.1-4c-0.5-8.4-0.6-16.9-0.7-25.3
			c-0.1-6.1,0.2-12.2,0.9-18.2c0.5-2.6,0.5-4.1,1.2-5.9c0.6-1.3,1.3-2.2,2.4-2.5c1.5-0.4,3.4-0.3,4.8,4c3.6,10.4,6.1,21.1,8.8,31.6
			c0.4,1.9,1,3.8,1.9,5.9c0.1,0.2,0.3,0.1,0.3,0c0.2-2.9,0.2-4.6,0.2-6.7c-0.2-8.9-0.3-14.5-0.5-23.4c0-1.6-0.1-5.7-0.1-7.3
			c0-2.1,0-3.9-0.6-6.4c-0.5-2.2,0.1-2.9,1.3-3.5c3.5-1.4,3.9,1.4,4.5,4.1c0.6,3.3,0.7,8.1,0.6,12.2c-0.1,6,0.3,12.1,0.2,18.2
			C281.4,306.1,281.8,312.8,281.1,319.5z M309.5,305c-0.2,4.4-1,8.6-2.1,12.9c-0.9,3.2-2.6,5.5-5.9,6.6c-3.9,1.3-8.5-0.5-10.4-4.2
			c-2.5-4.4-3.3-9.3-3.7-14.3c-0.6-7.1-0.5-14.3-0.1-22.3c0.4-4,0.7-8,3-12.1c3.3-6,9.6-5.1,12.6-1.9c2.5,2.6,4.2,5.6,5.2,9.2
			c1.2,4.4,1,8.3,1.5,13.4C309.9,297,309.8,300.8,309.5,305z M335.7,287.6c-0.3,4.4-2.1,8.4-4.3,12.2c-1.4,2.3-3,4.5-5,6.6
			c0.8,0.6,1.3,1,1.8,1.4c6,4,5.1,10.2,0.7,14.4c-2.1,1.9-4.5,3.5-7.6,3.5c-1.8-0.1-3.4-0.7-5-1.1c-0.9-0.3-1.5-1-1.5-2
			c-0.1-1.3-0.2-2.5-0.1-3.7c0.4-5.9,0.4-11.7,0.7-17.5c0.3-7.4,0.2-14.8,1-22.2c0.3-2.3,0.1-4.7,0.3-7.1c0.1-3.2,2.1-5,5.5-4.8
			c3,0.2,5.5,1.3,7.7,3.6C334.5,275.7,336.2,281.2,335.7,287.6z M362.3,306c-0.3,4.4-1.2,8.6-2.5,12.9c-0.9,3.2-2.8,5.5-6.1,6.5
			c-3.9,1.1-8.5-0.7-10.3-4.5c-2.3-4.5-3-9.4-3.3-14.4c-0.4-7.1-0.1-14.3,0.6-22.3c0.5-4,0.9-8,3.4-12c3.4-5.9,9.7-4.9,12.7-1.6
			c2.4,2.7,4.1,5.7,4.9,9.3c1.1,4.4,0.8,8.3,1.1,13.4C362.9,298,362.7,301.8,362.3,306z M389.7,302.2c-0.9,4.6-2.3,8.2-4.5,12
			c-3.1,5.7-8.4,9-14.1,11.7c-2.1,1.1-3.9-0.2-3.8-2.6c0.3-6.4,0.7-12.7,0.9-19c0.1-4.9,0.1-9.7,0.5-14.6c0.6-5.8,0.9-11.5,1.1-17.3
			c0-0.7,0.1-1.3,0.3-1.9c0.5-1.4,0.9-1.8,2.5-1.8c2.5,0,4.8,0.4,6.9,2.1c5.2,4,8.3,9.2,9.8,15.1c0.9,3.6,0.9,7.4,0.9,10.2
			C390.3,298.5,390.1,299.9,389.7,302.2z M415.4,280.9c-0.5,3.3-0.6,6-0.7,9c-0.3,6.7-0.7,23-2.6,30.6c-1.5,6-8.3,9.4-13.5,6
			c-2.5-1.6-3.9-3.6-4.6-6.5c-0.2-1,0.2-2.5,1.3-3c1.2-0.4,2.6-0.2,3.3,0.8c0.3,0.5,0.5,1,0.8,1.6c0.8,1.6,1.5,2.9,3.3,3.3
			c2.3,0.4,3.9-1.9,4.4-3.9c0.7-3,1.7-20.8,1.5-25.4c0-1.1,0.2-1.6-1.3-1.1c-1.2,0.4-3.4,0.5-5.1,0c-3.9-1-4.5-3.3-5-6.1
			c-0.5-2.8-0.3-10.1,0.2-13.5c0.1-1.7,1.3-2.8,2.7-2.7c1.8,0.2,2.8,1.1,2.7,2.8c-0.1,1.7-1.1,8.5-0.2,12.2c0.3,2.1,2.9,2.8,4.7,1.8
			c1.6-0.9,1.9-2.3,1.9-2.9c0.3-2.5,0.3-2.8,0.6-5.4c0.2-1.9,0.4-3.8,0.7-5.7c0.2-1.2,1.3-2.1,2.5-2.2c2-0.2,3.1,0.6,3.1,2.5
			C415.9,275.5,415.7,277.8,415.4,280.9z M426,274.1c0,1.6-0.3,2.7-0.3,4.3c-0.1,1.3-0.1,2.5-0.8,3.7c-0.8,0.9-2.9,0.9-3.6-0.1
			c-0.6-0.8-0.4-1.4-0.4-2.5c0-2.7,0.1-4,0.3-6.4c0-0.8,0-0.9,0.2-1.5c0.8-1,3.2-1,3.9,0C426.2,272.3,426.1,273.1,426,274.1z
			 M451.1,287.8c-0.1,0.7-0.5,1.3-0.9,1.9c-0.5,0.9-1.4,1.7-2.6,1.9c-1.9,0.3-3.2-1-2.8-2.5c0.5-1.6,0.7-3.2,0.6-4.8
			c0-2.3-0.3-3.7-1.6-5.8c-0.6-0.9-1.8-1.6-3.4-1.3c-1.6,0.1-2.4,1.5-2.7,2.6c-0.7,3.4-0.4,5.4,0.8,8.8c1.6,4.7,4,9.4,6.1,14
			c1.9,4.5,3.8,9,4.1,13.7c0.2,3-0.3,5.7-1.4,8.4c-1.5,3.6-5.8,5.7-10.4,5.3c-4.4-0.4-7.6-3-8.7-6.7c-0.6-2.2-0.7-4.2-0.5-7.3
			c0.2-3,0.6-4.4,1.1-6.9c0.2-0.6,0.4-1.2,0.7-1.8c0.7-1.1,2.3-1.7,3.7-1.4c1.1,0.2,2,1.3,1.9,2.4c-0.1,1.3-0.5,2.6-0.7,3.7
			c-0.6,3.6-0.9,5-0.4,8.7c0.3,1.8,2.1,3.6,3.9,3.6c2.4,0.1,4.1-1,4.5-4.1c0.6-5.1-0.7-10.1-2.6-14.9c-1.7-4.1-4.3-7.9-5.9-12
			c-1.3-3.2-2.4-6.4-2.6-9.7c-0.2-2.7,0.4-5.4,1.8-7.8c3.1-5,11.5-4.8,15.1-0.5C451.1,279.2,451.9,283.4,451.1,287.8z"/>
	</g>
	<g>
		<path fill="#44A4A3" d="M393.2,388.2c1.9,0,3.5-1.2,3.5-2.8s-1.6-2.8-3.5-2.8c-1.9,0-3.5,1.2-3.5,2.8S391.3,388.2,393.2,388.2z"/>
		<path fill="#44A4A3" d="M514.3,406.1c-0.8-0.3-1.4,0.1-1.7,0.8c-3,8.6-7.7,13.9-13,17.7c-0.6-9.1-2.2-19.7-4.8-31.6
			c-0.3-1.7-1.7-2.2-3.7-2.2c-2.3,0-4.5,2.7-4.1,4.3c-0.8,7.1-8.9,33.1-14.1,33.1c-1.1,0-3.7-3-3.7-14.4c0-18.8,6.1-29.3,11.7-29.3
			c4.1,0,4,5.1,4,9.9c0,0.6,1.4,0.1,1.4-1.4c0-5-0.4-10.2-6.5-10.2c-8.8,0-19.9,11.7-20.3,30c-2.3,7-6.8,18.3-14,18.3
			c-6.6,0,12.4-48.3-6.3-48.3c-15.5,0-19.1,30.1-19.1,48.3c-1-4.6-0.5-23.9-0.3-28.9c0.1-3.3-8.5-1.9-8.6,0.8
			c-0.1,2.2,0,5.3,0.1,8.9c-5.4,13.2-11.6,19.3-16.3,19.3c-7,0-2.5-16.6,0.5-33c0.2-1.2-2.5-2.2-4.9-2.2c-1.6,0-2.9,0.3-3.2,1.4
			c-1.5,5.3-2.5,10.2-3.1,14.6c-5.4,16.1-13.1,27.4-17.8,27.4c-13.1,0,15.9-56.5-6.6-56.5c-8.1,0-15.6,25-19.7,42.5
			c-0.5-7.2-1.4-15.4-1.9-23.3c10.1-14.7,28.9-47.4,9.9-47.4c-13.3,0-20.2,21.3-20.2,43.7c0,4.7,0.1,9.4,0.4,13.8
			c-5.4,16.1-13.4,27.4-21.9,27.4c-11.5,0-11.2-14.1-11.2-25.5c0-18.8,6.1-29.3,11.7-29.3c4.1,0,7.5,4.4,7.5,9.2
			c0,0.6,1.4,0.1,1.4-1.4c0-5-3.9-9.5-9.9-9.5c-8.7,0-19.7,11.4-20.3,29.3c-5.9,16-12.8,27.2-17.5,27.2c-2.4,0-3.7-3.2-3.4-8.1
			c1.2-15.4,7.9-55.9,9.7-67c8.4,1.4,16.9,2.7,23.7,2.7c11.9,0,20.4-3.1,23.3-13.4c0.2-0.8-0.2-1.4-1-1.7c-0.8-0.2-1.4,0.3-1.7,1
			c-1.9,6.9-7.2,11.2-17.2,11.2c-9.6,0-18.4-1.4-26.6-2.8c0.3-1.4,0.5-2.9,0.8-4.3c0.8-3.7-7.9-3.2-8.4-0.2c-0.1,1-0.3,2-0.6,3.1
			c-5.7-1-11-1.7-15.9-1.7c-5.6,0-10.3,1.1-11.5,5.5c-0.2,0.8,0.3,1.5,1,1.7c0.9,0.1,1.4-0.2,1.7-1c0.8-2.9,4.8-3.4,8.7-3.4
			c4.1,0,9.5,0.8,15.5,1.8c-1.5,8.6-5.1,33.9-6.5,46.3c-6.5,17.2-13.5,30.1-18.5,30.1c-2.4,0-3.4-3.2-3.4-8.1c0-7.2,2.9-24,5-33.1
			c0.5-1.2-2.5-2.2-4.9-2.2c-1.6,0-2.9,0.3-3.2,1.4c-1.2,12.3-11.5,30.9-16.3,30.9c-1.1,0-3.7-3-3.7-14.4c0-18.8,6.1-29.3,11.7-29.3
			c4.1,0,7.5,4.4,7.5,9.2c0,0.6,1.4,0.1,1.4-1.4c0-5-3.9-9.5-9.9-9.5c-8.6,0-19.4,11.1-20.3,28.6c-2.9,5.5-8,11-13.2,12.5
			c6.4-21.7,7.5-47.3-4.6-47.3c-13.9,0-19.7,45.1-1.7,49.8c0.6,0.1,1.2,0.3,1.8,0.3c-4.1,13.5-9.7,24.8-15,24.8
			c-4.6,0-8-16.2-9.4-31.9c7.2-14.5,8.1-31.8,1.6-31.8c-11.7,0-14.4,21.9-10.6,40.7c-3.8,4-8.4,6.8-14.1,6.9
			c-16.1,0.5-0.2-37.4-1.9-50.9c-1.3-10.5-8.9-17.5-19.1-17.5c-23.1,0-20,33.9-3.2,33.9c1.4,0,2.4-2.8,0-2.8c-14,0-14-28,0-28
			c7.8,0,14.2,6.5,14.2,16c0.1,10.8-17.9,53.8,8.3,52.9c6.5-0.2,11.9-3.2,16.5-7.7c3,12.4,9.1,22.7,17.5,22.7
			c6.9,0,14.1-12.6,18.8-27.7c5.1-1.1,10.1-5.3,13.9-10.7c0.6,13.3,6.8,15.4,11.3,15.4c5.9,0,12.8-9.4,16-18.4
			c-0.5,3.8-0.8,7.5-0.8,11c0,10.2,2.4,17.9,8.8,17.9c6.3,0,13-11.1,18.2-23c-0.6,11.9,0.8,23,8.5,23c6.4,0,13-11.1,18.3-23.1
			c1,12.9,6.6,23.1,20.1,23.1c9.8,0,17.4-11.9,22.9-24.3c0.4,5.5,1.1,10.3,1.8,13.8c1.3,5.9,10.1,6.6,10.1,3
			c3.9-16.8,12.1-49.1,18.6-49.1c12.1,0-16.2,56.6,6.6,56.6c6.2,0,12.8-10.8,18-22.5c0.2,9,3.5,14.2,10.4,14.2
			c6.3,0,12.3-6.2,17.1-15.8c0.4,8,1.4,16.3,3,19.4c1.2,2.3,6.5,3.2,6.9,0.1c2.3-16.9,3.7-52,17.1-52c6.7,0-7.5,49.2,6.4,49.2
			c7.5,0,12-7.4,14.9-14.4c1.5,9.8,6.9,11.4,11,11.4c7,0,11.4-11.4,17-31.3c2,10.1,3.7,19.9,4.8,28.6c-13.7,6.2-28.2,6.4-28.2,21.4
			c0,10.4,7.3,15.7,15.5,15.7c14.5,0,21-13.2,19.7-38.2c6.1-4,11.7-9.9,15.4-19.5c0.1-0.3,0.1-0.5,0.1-0.7
			C515.3,406.7,514.9,406.4,514.3,406.1z M165.1,390.6c2.8,0,2.3,11.9-2.1,23.3C162.2,401.5,162.8,390.6,165.1,390.6z M188.5,424.3
			c-0.5,0-1-0.1-1.5-0.3c-14.8-4.3-9.9-44.7,0.7-44.7C196.2,379.4,194.3,403.9,188.5,424.3z M338.2,391.6c0-18.4,3.6-34.2,12.2-34.2
			c10.7,0-4.1,28.3-12.1,40.3C338.2,395.7,338.2,393.6,338.2,391.6z M479.2,463.1c-5.7,0-11.9-4.6-11.9-12.9
			c0-12.3,12.8-13.1,25.7-19.1C494.8,450,492.3,463.1,479.2,463.1z"/>
	</g>
	<path fill="#44A4A3" d="M111.6,220.3l-30.9-12.7l-2.2,21.3c-1.2-0.7-3.6-1.3-5.2-1.6c-5.6-1-10.8,1.9-11.6,6.4
		c-0.8,4.5,3.1,9,8.8,10c5.6,1,10.8-1.9,11.6-6.4c0.1-0.7,2.7-18,2.7-18l19.3,8.2l-0.9,13.9c-0.8-0.4-2.7-0.7-3.7-0.8
		c-5.6-1-10.8,1.9-11.6,6.4c-0.8,4.5,3.1,9,8.8,10c5.6,1,10.8-1.9,11.6-6.4C108.6,249.1,111.6,220.3,111.6,220.3z"/>
	<path fill="#89ABDA" d="M502,164.5l-22.7-9.4l-1.6,15.7c-0.9-0.5-2.7-1-3.8-1.2c-4.1-0.7-8,1.4-8.6,4.7s2.3,6.6,6.4,7.3
		c4.1,0.7,8-1.4,8.6-4.7c0.1-0.6,2-13.3,2-13.3l14.2,6l-0.7,10.2c-0.6-0.3-2-0.5-2.7-0.6c-4.1-0.7-8,1.4-8.6,4.7
		c-0.6,3.3,2.3,6.6,6.4,7.3c4.1,0.7,8-1.4,8.6-4.7C499.8,185.7,502,164.5,502,164.5z"/>
	<path fill="#F9C21A" d="M348.2,93.4l-46.3-28.7l-9.1,33.7c-1.8-1.5-5.5-3.1-7.9-3.9c-8.8-3.1-17.9,0.1-20.4,7.1
		c-2.5,7,2.6,15.3,11.5,18.4c8.8,3.1,17.9-0.1,20.4-7.1c0.4-1.2,9.2-28.3,9.2-28.3l28.9,18.3l-5.2,22.1c-1.3-0.8-4.2-1.8-5.7-2.3
		c-8.8-3.1-17.9,0.1-20.4,7.1c-2.5,7,2.6,15.3,11.5,18.4c8.8,3.1,17.9-0.1,20.4-7.1C335.8,138.9,348.2,93.4,348.2,93.4z"/>
	<g>
		<g>
			<path fill="#F9C21A" d="M532,255.5l-6.3-9.8l-10.8,4.5c-0.6,0.3-1.3,0.1-1.8-0.4c-0.5-0.5-0.5-1.4-0.3-1.9l7-11.6l-8.3-13.1
				c-0.3-0.6-0.4-1.4,0-1.9c0.5-0.6,1.1-0.8,1.8-0.6l13.5,3.9l6-9.9c0.4-0.5,1.1-0.8,1.8-0.7c0.7,0.3,1.3,0.9,1.2,1.6l-0.2,11.7
				l15.6,4.5c0.5,0.2,1,0.9,1.1,1.5c0,0.7-0.4,1.4-1,1.7l-16.1,6.7l-0.3,13.1c0,0.7-0.5,1.4-1.3,1.5c-0.2,0.1-0.4,0.1-0.6,0.1
				C532.6,256.2,532.2,256,532,255.5z"/>
		</g>
	</g>
	<g>
		<path fill="#E063A2" d="M180.5,114.7c2.8-1.5,5.3-1,7.8,0.5c1.1,0.7,2.2,1.6,3.1,2.5c0.7,0.7,0.9,0.6,1.3-0.2
			c0.7-1.7,1.9-3.1,3.1-4.5c2.5-2.9,6.4-3.7,9.1-1.7c0.7,0.6,1.3,2.4,0.6,3.9c-0.3,1.6-1.1,3.1-1.9,4.5c-0.8,1.3-1.6,2.6-2.3,3.8
			c-1.3,2.2-2.4,4.7-2.6,7.4c-0.2,1.7-0.8,3.8-2.5,3.7c-1.4-0.3-2.3-1.7-2.8-2.1c-2.5-2.6-5.6-4.3-8.6-6.1c-2.4-1.4-4.5-3-5.8-5.5
			c-0.2-0.6-0.4-1-0.5-1.3C177.9,116.9,178.8,115.7,180.5,114.7z"/>
	</g>
	<g>
		<path fill="#EEA1C6" d="M403.2,128.8c3.9,0,6.4,2,8.2,5c0.8,1.4,1.5,3,2,4.5c0.3,1.1,0.7,1.2,1.6,0.5c1.7-1.4,3.8-2.3,5.9-3.1
			c4.4-1.7,9.2-0.5,11,3.3c0.4,1,0.1,3.3-1.5,4.6c-1.3,1.6-2.9,2.8-4.7,3.9c-1.6,1-3.2,1.9-4.8,2.9c-2.7,1.7-5.3,3.8-7.1,6.7
			c-1.1,1.8-3,3.7-4.8,2.6c-1.4-1.1-1.6-3.2-1.8-3.9c-1.3-4.2-3.8-7.9-5.9-11.5c-1.8-2.9-3.2-5.9-3.2-9.4c0.1-0.7,0.1-1.4,0.2-1.8
			C399.1,129.7,400.8,128.8,403.2,128.8z"/>
	</g>
	<g>
		<path fill="#E063A2" d="M554,305.1c0,0-35-11.6-57.4-15l1-7.5c0.3-2.1-1.1-4-3.2-4.4l-15.1-2.6l-9.8,70.4l15.7,2.7l-0.6,4.7
			c-0.4,3.1,1.9,6,5,6.2c10.5,0.9,32.9,3.5,46.4,10.2l-12.9-37.4C523.2,332.4,541.7,310.7,554,305.1z"/>
		<path fill="#E063A2" d="M115.9,277l-15.1,2.6c-2.1,0.4-3.5,2.3-3.2,4.4l1,7.5c-22.4,3.3-57.4,15-57.4,15
			c12.3,5.6,30.8,27.3,30.8,27.3l-12.9,37.4c13.5-6.7,35.9-9.3,46.4-10.2c3.1-0.3,5.4-3.1,5-6.2l-0.6-4.7l15.7-2.7L115.9,277z"/>
	</g>
	<path fill="#89ABDA" d="M231.2,481.1c0.8,3.5,3.3,6,6.7,6.7c3.5,0.8,7.5-0.7,9.9-3.7c0.8-1.2,0.7-2.7-0.5-3.7
		c-1.2-0.8-2.7-0.7-3.7,0.5c-1,1.3-3,2.2-4.7,1.8c-1.3-0.3-2.3-1.3-2.7-3c-0.5-1.8,0.3-4.2,2.2-6.5c2.5-3,7.7-6.5,14.1-6.2
		c4.2,0.2,11.5,3.2,17.6,8.5c-5,6.4-7.9,13.7-8.4,19.6c-0.7,5.9,1.5,11.2,5.9,14.1c3.7,2.3,8.2,2.5,11.9,0.5
		c2.5-1.3,6.7-5.2,6.2-14.4c-0.3-8-3.7-14.7-8.4-19.9c5.2-4.7,12.4-8.2,21.8-8.4c7-0.2,13.4,2.3,18.6,7.5c0,0,0,0,0.2,0.2
		c-8.2,6.4-14.7,15.1-16.2,24.6c-1.8,11.4-0.2,21.1,4.7,26.6c2.5,3,5.9,4.7,9.5,4.7c9.4,0,18.9-8,18.9-26.3c0-7.9-2.7-19.4-9.4-28.8
		c6-3.7,12.7-6,18.4-6.4c7.9-0.3,14.4,1.8,18.6,6.5c-6.9,4.2-12.2,10.2-12.2,17.9c0,9.5,5.4,15.1,10.5,15.6
		c4.4,0.3,9.5-2.7,11.2-12.6c1.5-8.5,0.2-14.7-2-19.1c5.7-2.7,11.9-4,15.9-4c4.4,0,7.9,1.2,10.2,3.7c2,1.8,3,4.5,3,7.4
		c0,2.3-2.3,5.4-4.5,5.9c-0.5,0-1.8,0.3-2.8-2.5c-0.7-1.3-2.2-1.8-3.3-1.3c-1.3,0.5-2,2-1.5,3.3c1.7,4.2,4.9,6.2,8.7,5.5
		c4.5-1,8.7-6,8.7-10.9c0-4.2-1.5-8.2-4.5-11c-3.3-3.3-8.2-5.2-13.9-5.2c-4.7,0-11.9,1.7-18.7,4.9c-0.2-0.3-0.3-0.5-0.5-0.7
		c-5.4-6-13.4-9-22.9-8.5c-6.9,0.3-14.7,3.2-21.6,7.7c-0.2-0.3-0.5-0.7-0.8-0.8c-6-6-13.7-9-22.3-9c-10.9,0.2-19.2,4.4-25.3,9.9
		c-6.9-6-15.2-9.5-20.9-9.7c-8.2-0.5-14.9,3.8-18.2,8C231.6,473.6,230.4,477.6,231.2,481.1z M366.8,495.8c-0.8,5.4-3.2,8.5-5.7,8.2
		c-2.8-0.2-6-4.2-5.9-10.4c0-5.7,4.4-10.4,10-13.7C367.3,484.3,368,489.6,366.8,495.8z M329.5,504.4c0,12.9-5.4,21.1-13.7,21.1
		c-2.2,0-4-1-5.7-2.8c-3.7-4.4-5-12.7-3.3-22.4c1.2-8.4,7-15.9,14.4-21.6C326.8,486.5,329.5,496.8,329.5,504.4z M273.7,479.3
		c3.7,4.4,6.5,9.7,6.7,16.2c0.3,4.9-1,8.4-3.5,9.9c-2,1-4.4,0.8-6.5-0.5c-2.7-1.8-4-5.2-3.7-9.2
		C267.2,490.8,269.6,484.6,273.7,479.3z"/>
</g>
</svg>
