<?xml version="1.0" encoding="utf-8"?>
<!-- Generator: Adobe Illustrator 20.1.0, SVG Export Plug-In . SVG Version: 6.00 Build 0)  -->
<svg version="1.1" id="Calque_1" xmlns="http://www.w3.org/2000/svg" xmlns:xlink="http://www.w3.org/1999/xlink" x="0px" y="0px"
	 viewBox="0 0 432 432" style="enable-background:new 0 0 432 432;" xml:space="preserve">
<style type="text/css">
	.st0{fill:#EC5F62;}
	.st1{fill:#C9973C;}
	.st2{fill:#C9973D;}
	.st3{fill:#CC7B26;}
	.st4{fill:#B36927;}
	.st5{fill:#E83F3F;}
	.st6{fill:#FED173;}
	.st7{fill:#FDD98C;}
	.st8{fill:#F1F2F2;}
	.st9{fill:#F7A52D;}
	.st10{fill:#E94871;}
	.st11{fill-rule:evenodd;clip-rule:evenodd;fill:#C9973D;}
	.st12{fill:#CB9B3F;}
	.st13{fill:#3AAA35;}
	.st14{fill:#E30613;}
	.st15{fill:#E94374;}
	.st16{fill:#F08898;}
	.st17{fill:#79BD6E;}
	.st18{fill:#F7A645;}
	.st19{fill-rule:evenodd;clip-rule:evenodd;fill:#CB9A3E;}
	.st20{fill:#CB9A3E;}
	.st21{fill:#BE1622;}
	.st22{fill:#936037;}
</style>
<g>
	<g>
		<path class="st3" d="M41.9,363.6c0.3,1.7,1.3,2.9,2.6,3.8c0.9,0.6,1.9,0.8,2.9,1.1c1.1,0.3,2.2,0.4,3.4,0.1
			c1.4-0.4,2.6-1.1,3.4-2.3c1-1.5,1.6-3.2,2.3-4.8c0.2-0.4,0.3-0.8,0.6-1c0.2,0.1,0.1,0.2,0.1,0.3c0,1.6,0.1,3.2,0.6,4.7
			c0.2,0.8,0.4,1.7,1.5,1.8c0.9,0.1,1.7,0.4,2.6,0.6c0.6,0.1,1.2,0,1.6-0.4c0.6-0.6,1.1-1.2,1.5-1.9c1.4-2.3,2.5-4.8,3.2-7.4
			c0.5-1.7,0.9-3.3,1.3-5c0.4-1.5,1.2-2.8,2.3-3.8c0.9-0.9,2.1-1.5,3.2-2.1c1.8-0.9,3.5-1.8,5.2-2.8c0.8-0.5,1.6-1,2-1.9
			c0.8-1.6,0.6-3.2-0.3-4.7c-1.1-1.9-2.3-3.6-3.9-5.1c-0.3-0.3-0.5-0.3-0.9,0c-0.8,0.7-1.6,1.4-2.4,2.1c-1.2,1.1-2.4,2.1-3.6,3.2
			c-1.2,1.1-2.5,2.1-3.7,3.3c-0.2,0.2-0.5,0.2-0.8,0.1c-0.8-0.4-1.5-0.9-2.1-1.5c-1.2-1.1-2-2.4-2.8-3.8c-0.3-0.5-0.1-0.8,0.4-1.1
			c0.7-0.4,1.4-0.6,2.1-0.9c2.3-1,4.7-2,7-3c1.3-0.6,2.6-1.1,3.9-1.6c0.3-0.1,0.5-0.3,0.3-0.7c-0.2-0.5-0.2-1-0.3-1.5
			c-0.1-0.9,0.2-3.9-0.7-4.5c-1.2-3.2-3.1-6-4.5-9.1c-0.4-0.9-0.8-2-1.1-3c2.2-1.7,4.5-3.3,6.5-5.3c0.1-0.1,0.3-0.3,0.4-0.4
			c2.1,0,4.1-1,5.7-2.4c3-2.8,3.6-7,3.6-10.9c0-4.4,0-8.6,1.6-12.7c-0.7-0.4-1.3-0.7-1.9-1.1c-0.4,2.4-1.5,4.7-3,6.6
			c-2.1,2.5-4.8,3.2-7.7,4.3c-5.2,2-8,5-9.5,10.4c-0.4,1.3-0.6,2.7-1,4c-1.5-0.4-3.2-0.2-4.4,0.7c-2.2,1.6-1.7,4.4,1.1,4.6
			c2.3,0.2,3.6-1.3,4.4-3.2c0,0,0,0.1,0.1,0.1c0.9,1.1,1.3,2.6,1.7,3.9c0.1,0.4,0.2,0.8,0.4,1.1c-0.9,0.8-1.8,1.6-2.6,2.5
			c-2.8,3.1-4,7.3-2.7,11.2c-0.4-0.1-0.9-0.3-1.3-0.5c-0.7-0.3-1.4-0.4-2-0.7c-1.2-0.5-2.3-0.9-3.5-1.3c-0.7-0.2-0.9-0.1-1.1,0.6
			c-0.3,1-0.4,2-0.5,3.1c-0.2,1.2-0.3,2.4-0.9,3.6c-0.4,1-0.9,1.8-1.6,2.6c-0.4,0.5-0.6,1.1-0.3,1.8c0.3,0.5,0.5,1.1,0.7,1.6
			c0.3,0.6,0.2,0.8-0.4,1c-0.9,0.3-1.8,0.5-2.7,0.8c-0.5,0.1-0.8,0.5-1,1c-0.2,0.8-0.5,1.6-0.7,2.5c-0.9,3.5-1.9,7.1-2.7,10.6
			c-0.7,3.1-1.4,6.2-1.9,9.3C41.7,361.2,41.7,362.4,41.9,363.6z M63.5,304.3c-0.2,0.6-0.5,1.4-0.7,1.7c-0.2,0.3-0.3,0.6-0.6,0.9
			c-0.8-0.1-1.6-0.2-2.4-0.3c0-0.7,0.2-1.3,0.7-1.8c0.4-0.7,1-0.8,1.8-0.6C62.8,304.2,63.2,304.2,63.5,304.3z M75.2,303.5
			c-1.1-0.3-2.1-0.9-2.1-1.9c0-1.3,0.7-2.5,1.6-3.4C76.5,299.2,76.1,301.9,75.2,303.5z M68.7,309.2c-0.6-2-1.3-3.9-2.9-5.1
			c-0.1-0.1-0.2-0.2-0.3-0.2c1.6-4.8,1.9-10,6.5-12.9c3.4-2.1,7.7-2.4,10.7-5.2c0.4-0.3,0.7-0.7,1-1c-0.3,2.9-0.2,5.8-0.4,8.9
			c-0.2,3.1-0.9,6.3-3.3,8.5c-0.6,0.6-1.3,1-2,1.4c-0.3,0.1-0.7,0.2-1.1,0.2c1.2-2,1.6-4.4-0.6-6c-1.9-1.4-3.5-0.3-4.6,1.5
			c-1.3,2.5-0.3,4.8,2.4,5.5c-0.9,0.9-1.9,1.7-2.9,2.5C70.5,307.8,69.6,308.5,68.7,309.2z M70.9,322.9c-1.7,0-3.2-0.5-4.8-0.9
			c-0.4-0.1-0.7,0-0.8,0.3c-0.2,0.6-0.5,1.1-0.7,1.7c-0.2,0.5-0.3,0.7-0.7,0.7c-1.3-3.3-0.9-7.1,1.2-10.1c0.7-1,1.6-1.9,2.5-2.7
			c1.5,3.7,3.8,7,5.1,10.7C72.1,322.7,71.4,322.8,70.9,322.9z M63.2,328.9c0.1-0.3,0.3-0.6,0.4-1c0.1-0.3,0.4-0.3,0.7-0.3
			c0.7,0.1,1.4,0.1,2.1,0.2c0.1,0,0.3,0,0.3,0.2c0,0.2-0.1,0.2-0.2,0.3c-0.6,0.3-1.2,0.6-1.8,0.9c-0.3,0.1-0.5,0.3-0.8,0.3
			c-0.2,0-0.5,0.3-0.7,0.1C62.9,329.5,63.1,329.2,63.2,328.9z M61.5,330c-0.5,0.6-1,1.2-1.6,1.8c-0.9,0.8-1.9,1.4-2.8,2.1
			c-0.6,0.4-0.9,0.3-1.3-0.3c-0.9-1.6-1.7-3.3-1.9-5.1c0-0.1,0-0.2,0-0.3c0-0.4-0.1-0.8,0.2-1.1c0.3-0.2,0.6,0.2,0.8,0.3
			c1.9,1.1,4,1.8,6.2,1.9C61.5,329.3,61.7,329.5,61.5,330z M60.7,338.2C60.7,338.2,60.8,338.2,60.7,338.2c-0.1,0.6-0.2,1.1-0.4,1.6
			c-0.1,0.4-0.4,0.5-0.6,0.1c-0.3-0.5-0.5-1.1-0.8-1.7c-0.1-0.2-0.1-0.4,0.1-0.5c0.5-0.3,1-0.5,1.4-0.9c0.1-0.1,0.3-0.2,0.4-0.1
			c0.2,0.1,0.1,0.3,0.1,0.4C60.9,337.6,60.8,337.9,60.7,338.2z M59.6,353.2c0.1-0.5,0.1-1,0.2-1.5c0.6-2.6,1-5.2,1-7.9
			c0-0.2,0-0.5,0.2-0.6c0.3-0.2,0.4,0.2,0.6,0.3c0.8,0.7,1.6,1.3,2.5,1.6c0.3,0.1,0.4,0.3,0.2,0.5c-0.9,1.1-1.6,2.3-2.4,3.4
			c-0.6,0.9-1.1,2-1.6,3c-0.2,0.4-0.4,0.8-0.6,1.1C59.7,353.2,59.7,353.2,59.6,353.2z M45.3,350.7c0.1-1.7,0.4-3.4,0.8-5
			c0.3-1.1,0.4-2.2,0.6-3.3c0.1-0.5,0.3-0.6,0.8-0.7c1.8-0.3,3.7-0.6,5.3-1.4c0.3-0.2,0.7-0.3,1-0.4c0.4-0.1,0.8,0,1.1,0.4
			c1.3,2,2.6,3.9,3.9,5.9c0.4,0.7,0.6,0.8,0.4,2.2c-0.1,0.5-0.3,1-0.4,1.6c-0.3,1.3-0.8,2.7-1.4,4.1c-0.7,1.5-1.8,2.2-3.4,2.4
			c-2.5,0.2-4.9-0.4-7-1.8C45.7,353.8,45.2,352.3,45.3,350.7z"/>
	</g>
	<g>
		<g>
			<path d="M106,115.6c-0.2-1-0.7-1.8-1.5-2.4c-0.7-0.6-1.7-1-2.8-1.1c-1.1-0.1-2.2,0.1-3.3,0.7c-1.1,0.6-2.2,1.5-3.3,2.9
				c-1.1,1.3-2,3.2-2.6,5.5c-1.2-0.1-2.4-0.2-3.7-0.3c-1.3-0.1-2.6-0.3-3.9-0.4c0.3-3,0.7-6,0.9-8.9c0.3-2.9,0.5-5.7,0.7-8.4
				c0.8-0.3,1.8-0.7,2.8-1.3c1-0.6,2.1-1.2,3.1-2c1-0.8,2-1.6,2.9-2.5c0.9-0.9,1.6-1.9,2.2-2.8c0.5-1,0.8-2,0.9-2.9
				c0.1-1-0.2-1.9-0.8-2.8c-0.4-0.6-1-0.9-1.7-0.9c-0.7,0-1.2,0.2-1.7,0.6c-0.4,0.4-0.6,1-0.5,1.7c0.1,0.7,0.6,1.6,1.6,2.5
				c0.3,0.3,0.4,0.7,0.3,1.2c-0.2,0.5-0.5,1.1-0.9,1.7c-0.5,0.6-1.1,1.2-1.8,1.9c-0.7,0.6-1.4,1.2-2.2,1.7c-0.8,0.5-1.5,1-2.2,1.4
				c-0.7,0.4-1.3,0.6-1.8,0.7c0.5-6.7,1-12.3,1.5-16.7s0.8-7.6,0.9-9.8c-0.5-0.7-1.2-1.3-1.9-1.6c-0.7-0.3-1.4-0.4-2-0.3
				c-0.7,0.1-1.2,0.4-1.7,0.9c-0.5,0.5-0.7,1.3-0.7,2.2c-0.1,1.1-0.3,2.6-0.4,4.4c-0.2,1.8-0.4,3.9-0.6,6.2
				c-0.2,2.3-0.5,4.8-0.7,7.6c-0.3,2.7-0.5,5.6-0.8,8.5c-2.3,0.4-4.5,0.3-6.5-0.3c-2-0.6-3.9-1.5-5.5-2.8c-1.6-1.2-3-2.7-4.2-4.5
				c-1.2-1.7-2.1-3.6-2.7-5.5c-0.6-1.9-0.9-3.9-0.8-5.8c0.1-1.9,0.5-3.7,1.4-5.3c1.2-2.3,2.8-4.1,4.7-5.3c1.9-1.2,4.1-2.1,6.5-2.7
				c2.4-0.5,5-0.8,7.7-0.8c2.7,0,5.5,0.1,8.4,0.3c2.9,0.2,5.7,0.4,8.5,0.7c2.8,0.2,5.5,0.3,8,0.3c2.5-0.1,4.9-0.3,7-0.9
				c2.1-0.5,3.9-1.4,5.4-2.8c0.7-0.8,1.1-1.5,1.1-2.1c0-0.6-0.1-1.1-0.4-1.4c-0.3-0.3-0.7-0.4-1.3-0.3c-0.5,0.1-1,0.5-1.4,1.2
				c-0.9,1.5-2.3,2.5-4.1,3c-1.9,0.5-4,0.8-6.6,0.7c-2.5,0-5.2-0.2-8.2-0.6c-3-0.4-6-0.7-9.1-0.9c-3.1-0.3-6.1-0.4-9.1-0.3
				c-3,0.1-5.8,0.5-8.4,1.4c-2.6,0.9-4.9,2.2-6.9,4.1c-2,1.8-3.5,4.4-4.5,7.7c-0.6,1.8-0.8,3.7-0.7,5.7c0.1,2,0.5,4,1.3,6
				c0.7,2,1.7,3.8,3,5.5c1.3,1.7,2.8,3.2,4.5,4.5c1.7,1.2,3.6,2.2,5.7,2.8c2.1,0.6,4.4,0.7,6.8,0.4c-0.2,2.5-0.5,5.1-0.7,7.7
				c-0.3,2.6-0.6,5.3-0.9,8.1c-1.6,0-3.3,0.1-4.8,0.3c-1.6,0.2-3,0.6-4.4,1.1c-1.1,0.4-1.9,0.9-2.4,1.4c-0.5,0.5-0.9,1-1,1.4
				c-0.2,0.5-0.2,0.9-0.1,1.3c0.1,0.4,0.2,0.7,0.4,0.9c1.2-1.6,2.9-2.6,5-3.2c2.1-0.6,4.5-0.9,7.1-0.9c-0.5,4.2-1.1,8.4-1.8,12.6
				c-0.7,4.2-1.4,8.3-2.2,12.3c-0.8,4-1.8,7.7-2.8,11.3c-1,3.6-2.2,6.8-3.4,9.7c-1.2,2.9-2.6,5.3-4.1,7.4c-1.5,2-3.1,3.5-4.8,4.4
				c-1.9,1-3.9,1.4-6.1,1.1c-2.1-0.2-4.3-1.2-6.4-2.9c-1-0.8-2-2-2.8-3.4c-0.8-1.5-1.5-3.2-2-5.1c-0.5-1.9-0.7-3.9-0.8-6
				s0.2-4.2,0.8-6.2c0.6-2,1.5-3.9,2.8-5.7c1.3-1.8,3-3.3,5.2-4.5c1.1-0.7,2.2-1,3.2-1.1c1-0.1,1.6,0.1,1.8,0.4
				c0.8,1.1,1.7,1.8,2.7,2.1s1.8,0.2,2.4-0.1c0.6-0.3,0.9-0.8,0.9-1.6c0-0.7-0.7-1.4-1.8-2.2c-0.5-0.3-1.1-0.5-1.9-0.6
				c-0.8-0.1-1.6-0.1-2.5,0c-0.9,0.1-1.9,0.3-2.9,0.7c-1,0.3-2,0.8-3,1.3c-2.2,1.2-4,2.8-5.3,4.6c-1.4,1.9-2.4,3.9-3,6
				c-0.6,2.1-0.9,4.4-0.9,6.7c0,2.3,0.3,4.5,0.8,6.6c0.5,2.1,1.3,4,2.3,5.7c1,1.7,2.1,3.1,3.4,4.1c1.5,1.1,3,1.9,4.6,2.4
				c1.6,0.5,3.1,0.7,4.6,0.7c1.5,0,3-0.2,4.4-0.6c1.4-0.4,2.7-1,3.9-1.7c2.1-1.3,4-3.1,5.8-5.3c1.7-2.3,3.3-4.9,4.8-7.8
				c1.4-3,2.7-6.2,3.8-9.8c1.1-3.5,2.1-7.3,3-11.1c0.9-3.9,1.7-7.8,2.3-11.9c0.7-4.1,1.3-8.1,1.8-12.1c1.2,0.1,2.5,0.2,3.7,0.2
				c1.2,0.1,2.5,0.1,3.6,0.2c-0.2,1.1-0.4,2.2-0.5,3.4c-0.1,1.2-0.2,2.6-0.3,4c0,0.7,0.2,1.2,0.6,1.7c0.4,0.4,0.8,0.7,1.3,0.8
				c0.5,0.1,0.9,0,1.2-0.3c0.4-0.3,0.5-0.8,0.5-1.6c-0.1-1.6-0.2-3-0.1-4.3c0-1.3,0.2-2.5,0.3-3.6c1.2,0,2.4-0.1,3.5-0.3
				c1.1-0.1,2.1-0.4,3-0.7c0.9-0.3,1.7-0.7,2.4-1.2c0.7-0.5,1.2-1.2,1.6-2C106.1,117.7,106.3,116.6,106,115.6z M103.3,118.4
				c-0.6,1.1-1.6,1.9-2.9,2.3c-1.4,0.4-3,0.6-4.9,0.5c0.4-1.8,1-3.2,1.6-4.2c0.7-1.1,1.4-1.8,2.1-2.4c0.7-0.5,1.4-0.8,2.1-0.8
				c0.7,0,1.3,0.2,1.7,0.6c0.4,0.4,0.7,0.9,0.8,1.6C104,116.8,103.8,117.6,103.3,118.4z"/>
			<path d="M276.2,120.3c-0.2-0.1-0.5-0.1-0.7-0.1c-0.3,0-0.6,0-0.8,0.1c-0.3,0.1-0.4,0.2-0.5,0.2c-1.6,5.1-3.2,10-4.9,14.6
				c-1.7,4.6-3.4,8.8-5.2,12.6c-1.7,3.8-3.4,7.2-5.1,10.3c-1.7,3-3.2,5.5-4.7,7.5c-1.5,2-2.8,3.5-4,4.4c-1.2,0.9-2.2,1.3-3,0.9
				c-0.8-0.3-1.5-1.4-2-3.2c-0.5-1.9-0.8-4.3-0.9-7.4c-0.1-3-0.1-6.6,0.1-10.7c0.2-4.1,0.6-8.5,1.1-13.3c0.5-4.8,1.2-9.8,2-15.2
				c0.8-5.3,1.8-10.7,2.8-16.3c0.2,0,0.7,0,1.3,0c0.7,0,1.4,0,2.2,0c0.8,0,1.6,0,2.4,0c0.8,0,1.4-0.1,1.8-0.2
				c0.4-0.1,0.7-0.3,0.8-0.5c0.1-0.2,0.2-0.4,0.1-0.6c0-0.2-0.1-0.4-0.3-0.6c-0.1-0.2-0.3-0.3-0.4-0.4c-0.8,0-1.5,0.1-2,0.1
				c-0.5,0-1.1,0-1.6,0c-0.5,0-1.1,0-1.7,0c-0.6,0-1.4,0-2.4,0c0.5-2.6,1-5,1.4-7.4c0.5-2.4,0.9-4.7,1.3-7c0.4-2.3,0.8-4.5,1.2-6.8
				c0.4-2.3,0.7-4.5,1-6.8c0.1-0.7-0.1-1.2-0.6-1.4c-0.5-0.2-1.1-0.3-1.7-0.3c-0.7,0.1-1.3,0.2-2,0.6c-0.7,0.3-1.1,0.7-1.4,1.2
				c-0.1,0-0.2,0.4-0.4,1.4c-0.2,1-0.5,2.2-0.8,3.8c-0.3,1.6-0.7,3.4-1.1,5.4c-0.4,2-0.8,4.1-1.2,6.2c-0.4,2.1-0.8,4.1-1.1,6.1
				c-0.4,2-0.7,3.7-1,5.2h-6.6c-1,1-1.1,1.7-0.1,2.3h6.4c-0.1,0.5-0.3,1.9-0.7,4c-0.4,2.1-0.8,4.8-1.3,8c-0.3,2-0.6,4.1-0.9,6.3
				c-2.1,4.9-4,9.4-5.9,13.5c-2.2,5-4.2,9.2-6,12.7c-1.8,3.5-3.3,6.1-4.5,7.9c-1.2,1.8-2.1,2.6-2.6,2.4c-0.9-0.3-1.6-1.2-2.2-2.7
				c-0.5-1.5-0.9-3.3-1.1-5.4c-0.2-2.1-0.3-4.4-0.3-6.9c0-2.5,0-5,0.1-7.3c0.1-2.4,0.2-4.6,0.3-6.6c0.1-2,0.2-3.6,0.3-4.7
				c1.8-1,3.4-2.2,4.8-3.5c1.4-1.3,2.4-2.7,3.2-4.1c0.8-1.4,1.3-2.8,1.6-4.1c0.2-1.3,0.2-2.5-0.2-3.5c-0.4-1-1.1-1.8-2.1-2.4
				c-1-0.6-2.3-0.9-4-0.8c-1.9,0.1-3.5,0.9-4.9,2.5c-1.4,1.6-2.5,3.6-3.3,6.1c-0.6,1.6-1,3.4-1.4,5.3c-1.8,3.5-3.5,6.5-5.1,9.1
				c-1.8,2.8-3.6,5.2-5.3,7.3c-1.8,2.1-3.6,3.9-5.5,5.4c-1.9,1.5-3.8,2.9-5.8,4.1c0.1-1.3,0.3-3.1,0.5-5.3c0.2-2.2,0.5-4.5,0.7-7
				c0.2-2.5,0.5-5.1,0.7-7.8c0.2-2.7,0.5-5.3,0.7-7.7c0.2-2.5,0.4-4.7,0.5-6.7c0.1-2,0.2-3.5,0.3-4.6c0-1.1-0.1-2-0.4-2.6
				c-0.3-0.6-0.7-1-1.1-1.2c-0.5-0.2-1-0.3-1.5-0.2c-0.6,0.1-1.1,0.3-1.6,0.5c-0.5,0.2-1,0.6-1.4,0.9c-0.4,0.4-0.6,0.7-0.7,0.9
				l-0.3,0.9c-1.5-0.3-3.1-0.2-4.8,0.1c-1.8,0.4-3.5,1.1-5.2,2.1c-1.7,1-3.3,2.4-4.8,4.1c-1.5,1.7-2.7,3.8-3.5,6.3
				c-0.6,1.6-1.1,3.4-1.5,5.3c-0.2,1.3-0.4,2.5-0.5,3.8c-0.6,1.3-1.1,2.6-1.8,4c-1,2.1-2,4.2-3.1,6.4c-1.1,2.2-2.3,4.3-3.4,6.3
				c-1.1,2-2.3,4-3.5,5.8c-1.2,1.8-2.3,3.4-3.4,4.7c-1.1,1.3-2.1,2.3-3,3c-1,0.7-1.8,1-2.5,0.9c-0.5-0.1-0.8-0.6-0.9-1.6
				c-0.1-1-0.1-2.3,0-3.9c0.1-1.6,0.3-3.4,0.6-5.4c0.3-2,0.6-4.1,1-6.2c0.4-2.1,0.8-4.2,1.2-6.3c0.4-2,0.8-3.9,1.2-5.5
				c0.4-1.6,0.7-3,0.9-4.1c0.2-1.1,0.4-1.7,0.4-1.8c-0.3-0.2-0.8-0.4-1.5-0.6c-0.7-0.2-1.5-0.6-2.4-0.9c-0.9-0.4-1.8-0.8-2.8-1.4
				c-0.9-0.5-1.8-1.2-2.4-1.9c0.2-0.8,0.3-1.5,0.4-2.2c0.1-0.7,0.2-1.4,0.3-2c0.7-4.3,0.7-7.5-0.1-9.6c-0.8-2.2-2.4-3-4.7-2.4
				c-1.5,0.4-2.6,1.4-3.1,3c-0.5,1.6-0.6,3.4-0.2,5.5c0.4,2.1,1.1,4.2,2.3,6.3c0.7,1.3,1.6,2.5,2.6,3.6c-0.8,0.9-1.7,1.7-2.5,2.3
				c-1.1,0.8-2.2,1.3-3.3,1.7c-1.1,0.4-2.2,0.5-3.3,0.5c-1.1,0-2.1-0.2-3.2-0.5c0-2.2-0.2-4.2-0.6-6c-0.4-1.8-1-3.3-1.8-4.6
				c-0.7-1.3-1.6-2.3-2.6-3.1c-1-0.8-2-1.3-3-1.5c-2-0.4-3.7-0.1-5.3,1c-1.6,1-2.9,2.5-4,4.5c-1.1,2-2,4.3-2.7,6.9
				c-0.7,2.6-1.1,5.4-1.4,8.2c-0.2,2.9-0.2,5.7,0,8.5c0.2,2.8,0.7,5.3,1.4,7.6c0.7,2.3,1.7,4.2,2.9,5.7c1.2,1.5,2.7,2.5,4.3,2.8
				c1.1,0.2,2.1-0.1,3.1-0.7c1-0.7,2-1.7,2.8-3c0.9-1.3,1.7-2.9,2.4-4.8c0.7-1.9,1.4-3.9,2-6c0.6-2.1,1-4.3,1.4-6.6
				c0.4-2.3,0.7-4.5,0.9-6.7c1.2,0.3,2.4,0.4,3.7,0.3c1.3-0.1,2.6-0.4,3.8-0.9c1.3-0.5,2.5-1.3,3.7-2.3c0.8-0.6,1.5-1.3,2.2-2.1
				c0.2,0.2,0.5,0.5,0.7,0.7c1.5,1.3,3.2,2.1,5.1,2.6c-0.2,0.6-0.5,1.2-0.7,1.8c-0.2,0.6-0.5,1.2-0.7,1.9c-0.7,2-1.4,4.2-2.1,6.5
				c-0.7,2.3-1.2,4.6-1.6,7c-0.4,2.3-0.7,4.6-0.8,6.7c-0.1,2.1,0,4.1,0.4,5.7c0.4,1.7,1,3,1.9,4.1c0.9,1,2.2,1.6,3.8,1.6
				c1,0,2.1-0.3,3.2-1c1.1-0.7,2.3-1.7,3.5-3c1.2-1.3,2.4-2.8,3.6-4.5c1.2-1.7,2.4-3.6,3.5-5.6c1.2-2,2.3-4.1,3.4-6.2
				c1.1-2.2,2.2-4.3,3.2-6.5c0.1-0.2,0.2-0.5,0.3-0.7c0,0.7,0.1,1.3,0.1,2c0.2,1.8,0.6,3.4,1.1,4.8c0.6,1.4,1.3,2.5,2.2,3.3
				c0.9,0.8,2.1,1.2,3.5,1.2c0.5,0,1.2-0.2,2-0.7c0.8-0.5,1.7-1.3,2.7-2.6c1-1.3,2.2-3.1,3.4-5.3c1.2-2.3,2.6-5.2,4.1-8.8
				c-0.2,3.3-0.5,6.8-0.8,10.5c-0.3,3.7-0.6,7.5-0.9,11.5c-3.1,2.8-5.7,5.6-8,8.5c-2.3,2.9-4.2,5.8-5.7,8.7
				c-1.5,2.9-2.6,5.6-3.4,8.3c-0.7,2.7-1.1,5.1-1.1,7.4c0,2.3,0.4,4.2,1.2,5.9c0.8,1.7,2,3,3.5,3.9c1.9,0.9,3.6,1.1,5.2,0.6
				c1.6-0.5,3.1-1.6,4.4-3.3c1.3-1.7,2.5-3.9,3.6-6.6c1.1-2.7,2-5.9,2.9-9.4c0.8-3.5,1.6-7.4,2.2-11.6c0.6-4.2,1.2-8.7,1.6-13.3
				c1.5-0.7,3.3-1.8,5.3-3.3c2-1.5,4.1-3.4,6.2-5.7c2.1-2.3,4.2-5,6.3-8.2c1.2-1.8,2.3-3.8,3.4-6c-0.2,2.6-0.3,5.2-0.3,7.8
				c0,3.3,0.3,6.6,0.7,9.8c0.5,3.2,1.1,6.1,1.9,8.6c0.8,2.6,1.8,4.7,3,6.3c1.2,1.6,2.5,2.5,4,2.7c0.6,0.1,1.3-0.1,2-0.6
				c0.7-0.5,1.6-1.3,2.5-2.5c0.9-1.2,2-2.8,3.1-4.9c1.1-2,2.5-4.6,3.9-7.7c1.5-3.1,3.1-6.7,4.9-10.9c0.6-1.5,1.3-3,2-4.7
				c-0.3,2.8-0.6,5.6-0.9,8.4c-0.3,4-0.5,8-0.6,11.8c-0.1,3.9,0.1,7.3,0.5,10.5c0.4,3.1,1.1,5.7,2,7.8c0.9,2,2.2,3.3,3.9,3.7
				c1.7,0.4,3.5,0.1,5.3-1.1c1.8-1.1,3.6-2.9,5.5-5.3c1.8-2.4,3.7-5.2,5.5-8.6c1.8-3.4,3.6-7.1,5.4-11.1c1.7-4,3.4-8.2,5.1-12.7
				c1.6-4.5,3.2-9,4.7-13.5C276.5,120.5,276.4,120.4,276.2,120.3z M220.5,113.9c0.7-2.2,1.7-3.5,3.1-3.8c1.3-0.3,2.2,0,2.8,0.9
				c0.6,0.9,0.7,2,0.4,3.5c-0.3,1.5-1.1,3.1-2.3,4.8c-1.2,1.7-3,3.3-5.3,4.7C219.4,119.5,219.8,116.2,220.5,113.9z M123.1,138.8
				c-0.7,3.1-1.4,5.9-2.2,8.2c-0.8,2.4-1.7,4.2-2.6,5.7c-0.9,1.4-1.8,2.2-2.8,2.5c-0.9,0.2-1.6-0.3-2.2-1.7
				c-0.5-1.4-0.9-3.2-1.2-5.5c-0.2-2.3-0.4-4.9-0.3-7.8c0-2.9,0.2-5.8,0.5-8.7c0.3-2.9,0.7-5.6,1.2-8.1c0.5-2.5,1.1-4.5,1.8-5.9
				c0.1,0.9,0.4,1.9,0.9,3.1c0.6,1.1,1.3,2.2,2.1,3.3c0.9,1.1,1.8,2,3,2.9c1.1,0.9,2.2,1.5,3.4,1.9
				C124.3,132.3,123.8,135.7,123.1,138.8z M121.5,123.8c-1-1.2-1.9-2.4-2.6-3.6c-0.7-1.2-1.2-2.3-1.5-3.4c-0.3-1-0.4-1.7-0.2-2
				c0.6-0.8,1.4-1,2.2-0.7c0.9,0.3,1.7,1.1,2.4,2.3c0.8,1.2,1.4,2.6,2,4.4c0.6,1.8,0.9,3.6,1,5.6
				C123.6,125.8,122.5,124.9,121.5,123.8z M139.1,118.5c-0.2-0.4-0.4-0.9-0.7-1.7c-0.2-0.8-0.5-1.7-0.7-2.7
				c-0.2-1.1-0.4-2.2-0.6-3.3c-0.1-0.6-0.1-1.2,0.1-1.7c0.2-0.5,0.4-0.9,0.7-1.2c0.3-0.3,0.6-0.4,0.9-0.3c0.3,0.1,0.6,0.4,0.9,0.9
				c0.2,0.6,0.4,1.4,0.5,2.6c0.1,1.1,0,2.7-0.2,4.6l-0.4,3.1C139.4,118.9,139.3,118.8,139.1,118.5z M183.6,161.8
				c-0.3,2.9-0.7,5.9-1.1,8.9c-0.4,3-0.9,5.9-1.5,8.6c-0.6,2.8-1.2,5.2-2,7.3c-0.7,2.1-1.6,3.7-2.6,4.8c-1,1.1-2.1,1.5-3.2,1
				c-2.2-0.7-3.6-2.4-4.2-4.9c-0.6-2.5-0.5-5.6,0.5-9.2c0.9-3.6,2.7-7.5,5.1-11.8c2.5-4.3,5.8-8.5,9.8-12.6
				C184.1,156.2,183.9,158.9,183.6,161.8z M187.4,114.7c-0.2,2.2-0.3,4.8-0.6,7.9c-1.1,3.2-2.3,6.1-3.6,8.9c-1.2,2.7-2.4,5.1-3.6,7
				c-1.1,2-2.2,3.4-3.1,4.5c-0.9,1-1.7,1.4-2.3,1.2c-0.5-0.2-0.8-0.9-1-2c-0.2-1.1-0.3-2.5-0.2-4.3c0.1-1.7,0.3-3.6,0.6-5.7
				c0.3-2.1,0.8-4.2,1.4-6.4c0.6-2.1,1.3-4.2,2.1-6.2c0.8-2,1.8-3.7,2.8-5.2c1.1-1.5,2.2-2.6,3.5-3.4c1.3-0.8,2.7-1.1,4.1-0.9
				C187.7,111,187.6,112.5,187.4,114.7z"/>
		</g>
		<g>
			<path d="M98.9,180.7c0-0.3-0.1-0.5-0.5-0.6c-0.1,0-0.3,0-0.5,0c-1-0.1-1.9-0.1-2.9-0.3c-0.7,0-1.3-0.1-2-0.2
				c-1.4-0.1-2.8-0.2-4.1-0.3c-0.1,0-0.3,0-0.4,0c-0.1,0-0.2,0.2-0.3,0.3c0,0.2,0,0.4,0.2,0.4c0.1,0,0.3,0.1,0.4,0.1
				c0.4,0,0.9,0,1.3,0.1c0.3,0,0.6,0.1,0.6,0.1c-0.7,2.1-1,2.6-1.4,3.5l-0.7,1.7c-0.4,1.2-0.9,2.4-1.2,3.6c0,0.1-0.1,0.1-0.1,0.2
				c-0.4,0.8-1.3,3.3-1.4,3.4c-0.1-0.1-1.1-2.5-1.5-3.3c-0.7-1.6-1.4-3.1-2.1-4.6c-0.4-0.9-0.8-1.7-1.1-2.6l-0.1-0.2l-0.2-0.6
				c0.9,0,2.3,0,3.2-0.1c0.3,0,0.6,0,0.7-0.1c0.3-0.1,0.3-0.5,0-0.7c-0.1-0.1-0.3-0.1-0.4-0.2c-0.3,0-0.6,0-0.9,0l-2.1,0.1
				c-1.1,0-2.2,0-3.3,0c-0.2,0-0.5,0-0.7,0c-0.2,0-0.3,0.4-0.1,0.6c0.1,0.1,0.2,0.2,0.4,0.3c0.3,0,0.5,0,0.8,0c0.5,0,1,0,1.5,0.1
				c0.1,0.3,0.2,0.6,0.3,0.8c0.2,0.6,0.4,1.2,0.6,1.7c0.8,1.8,1.6,3.5,2.3,5.3c0.3,0.6,0.5,1.3,0.9,1.9c0.4,0.7,0.6,1.5,1,2.2
				c0.3,0.6,0.2,1.1,0,1.7c-0.7,1.7-1.3,3.4-1.9,5.2c-0.4,1.2-0.7,2.4-1.1,3.6c-0.1,0.4-0.3,0.9-0.5,1.2c-0.1,0.2-0.2,0.1-0.5,0.2
				c-0.4,0-0.7,0-1.1,0c-0.3,0-0.5,0-0.8,0c-0.1,0-0.2,0.1-0.3,0.2c-0.1,0.2,0,0.4,0.1,0.5c0.1,0.1,0.2,0.1,0.3,0.1
				c0.3,0,0.6,0,0.8,0c0.7,0,1.4-0.1,2.1-0.1c1.4,0,6.3-0.2,7.1-0.1c0.2,0,0.4,0,0.5,0c0.2,0,0.4-0.3,0.4-0.5c0-0.2-0.2-0.5-0.5-0.5
				h-1c-0.3,0-0.7,0-1.1-0.1c0-0.2,0-0.5,0.1-0.7c0.1-0.7,0.3-1.5,0.5-2.3c0.3-1.5,0.7-3,1.2-4.5l1.7-4.6c0.7-1.7,1.3-3.5,2-5.3
				c0.5-1.1,0.8-2.2,1.2-3.4c0.3-0.8,0.6-1.7,0.9-2.5c0.3-0.9,0.5-0.9,0.5-0.9c0.5,0.1,2.1,0.1,2.5,0.1
				C98.7,181.1,98.9,180.9,98.9,180.7z"/>
			<path d="M81.3,182.1c0,0,0-0.1,0-0.1L81.3,182.1z"/>
			<path d="M110.2,178.9c-0.2,0-2.6-0.5-4.7,0.9c-0.6,0.3-1.2,0.6-1.7,1.2c-0.3,0.3-0.6,0.6-0.9,0.9c-0.4,0.5-0.8,1-1.1,1.5
				c-3.5,6.1-3.5,9.7-3,13.3c0.3,1.5,0.7,3,1.5,4.4c0.3,0.6,0.6,1.1,1,1.6c0.5,0.7,1.1,1.2,1.6,1.7c0.8,0.7,1.8,1.1,2.7,1.4
				c0.6,0.2,1.4,0.4,2,0.6c0.6,0.1,1.2,0.1,1.9,0c0.7-0.2,1.3-0.6,1.9-0.9c0.6-0.3,1.1-0.8,1.5-1.3c0.5-0.6,1.1-1.3,1.5-2.2
				c0.3-0.6,0.5-1,0.7-1.5c0.2-0.6,0.4-1.2,0.5-1.7c0.3-1.1,0.6-2.1,0.7-3.1c0.4-2.2,0.3-6.3-0.2-8.6
				C115,182.5,113.9,179.2,110.2,178.9z M115.1,195.9c-0.1,0.9-0.4,1.7-0.6,2.6l-0.5,1.1c-0.5,1.1-1.6,3.1-3.8,3
				c-0.5,0-0.9-0.2-1.2-0.5c-0.8-0.6-1.5-1.2-2-2.1c-0.2-0.5-0.6-1-0.8-1.4c-0.5-1.1-0.9-2.1-1.1-3.1c-0.1-0.6-0.2-1.2-0.4-1.8V193
				c-0.1-0.8-0.1-1.7-0.3-2.5c0.1-1.5,0.2-2.9,0.6-4.4c0.4-1.1,0.8-2,1.4-2.9c0.9-1.3,1.6-1.9,3.4-2.8c1-0.4,2.1,0,2.8,0.7
				C113.9,182.5,116.5,189.5,115.1,195.9z"/>
			<path d="M141.1,179.6c-0.2-0.1-0.4-0.1-0.5-0.1c-0.1,0-1.7,0.3-2.5,0.3h-0.5l-0.5,0h-1.3c-0.2,0-0.4,0-0.5,0.2
				c-0.1,0.1-0.1,0.3-0.1,0.4c0,0.1,0.2,0.2,0.4,0.2c0.1,0,0.2,0.1,0.4,0.1h0.2l1.1,0h0.2c0.4,0,0.5,0.1,0.5,0.6v0.2
				c0,1.6,0,2.7,0,3.1c0,3.2-0.1,3.2-0.2,4.6l0,0.6c-0.1,0.3-0.1,0.6-0.1,0.9c0,0.2,0,0.5,0,0.8c-0.6,3.7-1.4,5.9-2.7,8.4
				c-0.5,1.1-1.1,2.1-2,3.2c-0.4,0.4-0.9,0.9-1.6,1.1c-0.3,0-0.7,0.1-1.1,0.1c-0.1,0-0.3,0-0.5,0c-0.5-0.1-0.8-0.3-1.1-0.5
				c-2.1-1.2-3.1-2.9-3.4-5.6c0-0.3-0.1-0.6-0.1-0.9c0-0.1,0-0.8-0.1-1.8c-0.1-3.5-0.3-10.1-0.2-10.8V184l0-3.2c0.2,0,0.4,0,0.6-0.1
				c0.6-0.1,1.2,0.2,1.2-0.6c0-0.1,0,0,0-0.1c0-0.4-0.7-0.1-1.3-0.1c-0.8,0-1.7,0.1-2.7,0.1h-2.3c-0.3,0-0.6,0.1-0.6,0.5
				c0,0.1,0,0.3,0,0.4c0.1,0.1,0.2,0.2,0.4,0.2c0,0,0.1,0,0.2,0h0.5v1.1c-0.3,4.4-0.4,8.3-0.3,11.6c0,2.8,0.2,6.2,0.8,7.5
				c0.1,0.3,0.3,0.6,0.5,1c0,0.2,0.1,0.3,0.2,0.5c0,0,0.1,0.1,0.1,0.2c0.5,0.7,1.7,2.7,4.2,3.3c0.6,0.1,1.1,0.2,1.6,0.2
				c0.3,0,0.7,0,1-0.1c0.7-0.1,1.5-0.4,2.2-0.7c3.3-1.1,6-7.3,6.9-11.1c0.7-2.9,1.1-7.1,1.1-7.9l0-5.3v-0.5c0.1-0.3,0-0.2,0.4-0.3
				h0.6c0.5,0.1,1.1,0,1.2-0.2c0.2-0.1,0.2-0.3,0.2-0.4C141.4,179.8,141.3,179.7,141.1,179.6z"/>
			<path d="M152.8,195.8c2.6-1,5.5-2.3,7.3-5.1c1-1.6,1.2-2.4,1.5-4.3c0-2.4-1.1-3.9-2.8-5.2c-1-0.6-1.9-1-3-1.3
				c-1.7-0.5-3.3-0.8-5-0.7c-1.1,0-2.2,0-3.1,0.1c-1.1,0.1-2,0.3-3,0.4c-0.3,0.1-0.5,0.1-0.7,0.3c-0.1,0,0,0.5,0,0.5
				c0.3,0.2,0.5,0.2,0.7,0.1c0.2,0,1.4-0.1,1.4-0.1c0,0.6,0,1.7-0.1,2.2l-0.3,4.9c0,2-0.2,4.1-0.2,6.2c0,1.3-0.1,2.7-0.1,4.1
				c0,6.6,0.2,7,0.3,7h-0.1c-0.3,0-0.6,0-1.3,0.1c-0.4,0-0.6,0.2-0.6,0.6c0,0.3,0.2,0.6,0.5,0.6h0c0.1,0,0.3,0,0.5,0
				c1,0,1.8-0.2,2.7-0.2c0.6,0,1.4-0.1,2.1-0.1c0.5,0,0.6-0.2,0.7-0.7c0-1,0.2-2,0.1-2.9c0-1.7-0.2-3.2-0.2-4.9c0-0.1,0-0.5,0-0.6
				l0.3,0.1c0.9,0.3,2,1.2,2.6,2c1.3,1.9,2.8,3.9,4.2,5.7c0.4,0.6,0.7,0.9,1.1,1.3l0.7,0.5c0.7,0.2,1-0.6,0.5-1.1h0.1
				c-0.1,0-0.2-0.1-0.2-0.1h0c-0.6-0.4-1.1-0.8-1.5-1.2c-0.5-0.6-0.9-1.3-1.4-1.9c-0.8-1.1-1.7-2.2-2.3-3.2
				c-1.3-2.1-1.8-2.6-2.5-2.8h0L152.8,195.8z M151.3,195c-0.2,0-0.9,0-1.1,0c0,0-0.1-0.2-0.1-0.8c0-1.6,0.1-3.3,0.2-4.9
				c0.1-1.7,0.5-7,0.6-8.6c0-0.1-0.1-0.2,0.1-0.4c1.3,0,3.6,0.1,6.1,1.2c1.9,0.9,3,2.1,3.2,3.5c0.6,2.7-0.9,6.1-3.1,7.4
				c-1,0.8-2.2,1.5-3.6,2C153.1,194.7,152.3,194.8,151.3,195z"/>
		</g>
		<path d="M301.4,237.7c-0.1-0.3-0.2-0.5-0.4-0.6c-0.2-0.1-0.4-0.2-0.7-0.2c-0.2,0-0.4,0-0.6,0.1c-1,0.7-2.3,1.6-3.9,2.8
			c-1.6,1.1-3.4,2.5-5.4,4c-2,1.5-4.1,3.2-6.4,5.1c-2.3,1.9-4.6,3.8-6.9,5.9l-3.2,3c-1-3.5-1.8-7.1-2.6-10.8
			c-0.8-3.7-1.2-7.2-1.4-10.6c-0.1-3.4,0.2-6.6,0.9-9.7c0.7-3,2.1-5.6,4.2-7.8c1.3-1.6,2.7-2.8,4.1-3.5c1.4-0.7,2.7-1.1,4.1-1.2
			c1.3-0.1,2.5,0,3.6,0.4c1.1,0.4,2,0.9,2.7,1.4c1,0.8,1.6,1.8,1.8,3.1c0.2,1.2,0.1,2.5-0.3,3.8c-0.4,1.3-1.1,2.5-2,3.7
			c-0.9,1.2-2,2.1-3.3,2.7c-1.2,0.6-2.6,0.9-4.1,0.8c-1.5-0.1-2.9-0.7-4.4-1.9c0-0.1-0.1-0.1-0.4,0.1c-0.3,0.1-0.6,0.3-0.8,0.5
			s-0.4,0.5-0.5,0.8c-0.1,0.3,0.1,0.7,0.6,1c1.4,1.1,3,1.7,4.7,1.7c1.7,0,3.4-0.3,5-1c1.6-0.7,3.1-1.7,4.4-3
			c1.3-1.3,2.3-2.7,2.9-4.3c0.6-1.6,0.8-3.3,0.5-5.1c-0.3-1.8-1.2-3.5-2.8-5.1c-0.7-0.7-1.8-1.3-3.3-1.7c-1.5-0.4-3.1-0.6-4.9-0.5
			c-1.8,0.1-3.6,0.5-5.5,1.1c-1.9,0.7-3.6,1.8-5.1,3.2c-3,2.9-5.1,6.1-6.1,9.6s-1.5,7.2-1.3,11.1c0,1.1,0.1,2.2,0.3,3.3
			c-2.1,4.9-4,9.3-5.8,13.4c-2.2,5-4.2,9.2-6,12.7c-1.8,3.5-3.3,6.1-4.5,7.9c-1.2,1.8-2.1,2.6-2.6,2.4c-0.9-0.3-1.6-1.2-2.2-2.7
			c-0.5-1.5-0.9-3.3-1.1-5.4c-0.2-2.1-0.3-4.4-0.3-6.9c0-2.5,0-5,0.1-7.3c0.1-2.4,0.2-4.6,0.3-6.6c0.1-2,0.2-3.6,0.3-4.7
			c1.8-1,3.4-2.2,4.8-3.5c1.4-1.3,2.4-2.7,3.2-4.1c0.8-1.4,1.3-2.8,1.6-4.1c0.2-1.3,0.2-2.5-0.2-3.5c-0.4-1-1.1-1.8-2.1-2.4
			c-1-0.6-2.3-0.9-4-0.8c-1.9,0.1-3.5,0.9-4.9,2.5c-1.4,1.6-2.5,3.6-3.3,6.1c-0.9,2.5-1.5,5.4-1.9,8.6c-0.1,1.1-0.2,2.3-0.3,3.5
			c0,0.1-0.1,0.2-0.1,0.3c-0.7,2-1.5,4.1-2.4,6.5c-0.9,2.4-1.8,4.9-2.8,7.6c-1,2.6-2,5.3-3.1,7.9c-1.1,2.6-2.2,5.1-3.3,7.5
			c-1.1,2.4-2.2,4.5-3.3,6.4c-1.1,1.9-2.2,3.4-3.3,4.5c-1.1,1.2-2.1,1.8-3.1,2c-1.1,0.2-2-0.4-2.7-1.7c-0.7-1.3-1.2-3.2-1.5-5.6
			c-0.3-2.4-0.5-5.2-0.4-8.5c0-3.3,0.2-6.8,0.5-10.6c0.3-3.8,0.7-7.7,1.3-11.7c0.5-4,1.2-8,1.9-11.9c1.8-1.4,3.5-3.1,5.2-5.1
			c1.7-2,3.4-4.2,5-6.6c1.6-2.4,3.1-4.9,4.5-7.5c1.4-2.6,2.6-5.2,3.6-7.7c1-2.5,1.9-5,2.5-7.3c0.7-2.4,1-4.5,1.1-6.3
			c0.1-1.9-0.1-3.4-0.5-4.6c-0.5-1.2-1.3-2-2.5-2.4c-2.2-0.7-4.3-0.3-6.4,1.1c-2.1,1.4-4,3.6-5.9,6.5c-1.8,2.9-3.6,6.5-5.2,10.7
			c-1.6,4.2-3.1,8.7-4.3,13.5c-1.3,4.8-2.4,9.8-3.3,15.1c-0.2,1.2-0.4,2.3-0.6,3.4c-1.7,1.9-3.7,3.4-5.8,4.5
			c-2.4,1.3-4.9,2.3-7.5,2.8c-0.8-1.5-1.8-2.8-3.2-3.7c-1.4-0.9-2.7-1.5-4-1.7c-1.3-0.2-2.4,0-3.3,0.6c-0.9,0.6-1.3,1.6-1.1,3
			c0.1,0.7,0.4,1.2,1,1.7c0.6,0.5,1.3,0.9,2.1,1.3c0.8,0.4,1.7,0.6,2.6,0.8c0.9,0.2,1.8,0.2,2.5,0.1c0.4,1.6,0.7,3.5,0.8,5.5
			c0.2,2,0.1,4.1-0.1,6.2c-0.2,2.1-0.6,4.2-1.3,6.2c-0.6,2-1.5,3.9-2.6,5.7c-1.1,1.7-2.5,3.3-4.2,4.5c-1.7,1.3-3.7,2.2-6,2.7
			c0-0.4,0.1-1.4,0.2-3c0.1-1.6,0.2-3.6,0.4-6c0.2-2.4,0.4-5.1,0.7-8.1c0.3-3,0.6-6.2,1-9.4c0.4-3.3,0.8-6.5,1.4-9.9
			c0.5-3.3,1.2-6.5,1.9-9.5c2.1-2.5,4.3-5.4,6.4-8.6c2.1-3.3,4.1-6.6,5.9-10.1s3.3-6.9,4.7-10.2c1.3-3.4,2.3-6.4,2.8-9.2
			c0.6-2.8,0.7-5.1,0.3-7c-0.3-1.9-1.3-3.1-2.8-3.6c-1.7-0.5-3.4-0.3-4.9,0.7c-1.6,1-3.1,2.5-4.5,4.5c-1.4,2-2.7,4.3-3.9,7.1
			c-1.2,2.7-2.3,5.5-3.2,8.4c-1.9,5.8-3.6,11.9-5.1,18.3c-1.5,6.4-2.7,12.8-3.7,19.3c-0.1,0.3-0.2,0.6-0.4,1
			c-1.1,2.7-2.2,5.3-3.3,7.8c-1.1,2.5-2.2,4.9-3.3,7.1c-1.1,2.2-2.1,4.1-3,5.7c-0.9,1.6-1.8,2.8-2.5,3.7c-0.7,0.9-1.3,1.2-1.7,1.1
			c-0.5-0.1-0.7-1-0.8-2.8c-0.1-1.7,0-3.9,0.1-6.6c0.2-2.7,0.5-5.7,0.9-9.1c0.4-3.4,0.9-6.8,1.4-10.3c0.5-3.5,1.1-6.8,1.7-10.1
			c0.6-3.3,1.2-6.1,1.8-8.6c0.2-0.8,0-1.4-0.7-1.8c-0.6-0.4-1.4-0.5-2.3-0.5c-0.9,0-1.8,0.2-2.6,0.5c-0.9,0.3-1.4,0.8-1.6,1.4
			c-0.5,1.4-1.1,3.3-1.8,5.7c-0.7,2.4-1.4,5-2.2,7.8c-0.8,2.8-1.6,5.6-2.5,8.5c-0.8,2.9-1.7,5.5-2.6,7.8c-0.9,2.3-1.7,4.3-2.5,5.7
			c-0.8,1.5-1.6,2.3-2.3,2.3c-0.6,0-1-0.7-1.1-2.1c-0.2-1.4-0.2-3.3-0.1-5.5c0.1-2.3,0.3-4.8,0.7-7.6c0.3-2.8,0.7-5.5,1.1-8.2
			c0.4-2.7,0.8-5.3,1.1-7.6c0.4-2.4,0.7-4.2,0.9-5.5c0-0.4-0.2-0.8-0.7-1.3c-0.5-0.5-1-0.8-1.7-1.1c-0.7-0.2-1.3-0.3-1.9-0.3
			c-0.6,0.1-1.1,0.4-1.3,1c0,0-0.2,0.6-0.4,1.8c-0.2,1.1-0.5,2.6-0.8,4.4c-0.3,1.8-0.7,3.9-1,6.1c-0.3,2.1-0.5,4.3-0.7,6.5
			c-0.2,0.2-0.5,0.4-0.7,0.6c-1.1,0.8-2.2,1.3-3.3,1.7c-1.1,0.4-2.2,0.5-3.3,0.5c-1.1,0-2.1-0.2-3.2-0.5c0-2.2-0.2-4.2-0.6-6
			c-0.4-1.8-1-3.3-1.8-4.6c-0.7-1.3-1.6-2.3-2.6-3.1c-1-0.8-2-1.3-3-1.5c-2-0.4-3.7-0.1-5.3,1c-1.6,1-2.9,2.5-4,4.5
			c-1.1,2-2,4.3-2.7,6.9c-0.6,2.2-0.9,4.4-1.2,6.8c-0.4,0.9-0.8,1.8-1.2,2.7c-1,2.1-2,4.2-3.1,6.4c-1.1,2.2-2.3,4.3-3.4,6.3
			c-1.1,2-2.3,4-3.5,5.8c-1.2,1.8-2.3,3.4-3.4,4.7c-1.1,1.3-2.1,2.3-3,3c-1,0.7-1.8,1-2.5,0.9c-0.5-0.1-0.8-0.6-0.9-1.6
			c-0.1-1-0.1-2.3,0-3.9c0.1-1.6,0.3-3.4,0.6-5.4c0.3-2,0.6-4.1,1-6.2c0.4-2.1,0.8-4.2,1.2-6.3c0.4-2,0.8-3.9,1.2-5.5
			c0.4-1.6,0.7-3,0.9-4.1c0.2-1.1,0.4-1.7,0.4-1.8c-0.3-0.2-0.8-0.4-1.5-0.6c-0.7-0.2-1.5-0.6-2.4-0.9c-0.9-0.4-1.8-0.8-2.8-1.4
			c-0.9-0.5-1.8-1.2-2.4-1.9c0.2-0.8,0.3-1.5,0.4-2.2c0.1-0.7,0.2-1.4,0.3-2c0.7-4.3,0.7-7.5-0.1-9.6c-0.8-2.2-2.4-3-4.7-2.4
			c-1.5,0.4-2.6,1.4-3.1,3c-0.5,1.6-0.6,3.4-0.2,5.5c0.4,2.1,1.1,4.2,2.3,6.3c0.5,0.9,1.1,1.8,1.7,2.6c-1.4,4.6-2.9,8.9-4.5,13.1
			c-1.7,4.6-3.4,8.8-5.2,12.6c-1.7,3.8-3.4,7.2-5.1,10.3c-1.7,3-3.2,5.5-4.7,7.5c-1.5,2-2.8,3.5-4,4.4c-1.2,0.9-2.2,1.3-3,0.9
			c-0.8-0.3-1.5-1.4-2-3.2c-0.5-1.9-0.8-4.3-0.9-7.4c-0.1-3-0.1-6.6,0.1-10.7c0.2-4.1,0.6-8.5,1.1-13.3c0.5-4.8,1.2-9.8,2-15.2
			c0.8-5.3,1.8-10.7,2.8-16.3c0.2,0,0.7,0,1.3,0c0.7,0,1.4,0,2.2,0c0.8,0,1.6,0,2.4,0c0.8,0,1.4-0.1,1.8-0.2
			c0.4-0.1,0.7-0.3,0.8-0.5c0.1-0.2,0.2-0.4,0.1-0.6c0-0.2-0.1-0.4-0.3-0.6c-0.1-0.2-0.3-0.3-0.4-0.4c-0.8,0-1.5,0.1-2,0.1
			c-0.5,0-1.1,0-1.6,0c-0.5,0-1.1,0-1.7,0c-0.6,0-1.4,0-2.4,0c0.5-2.6,1-5,1.4-7.4c0.5-2.4,0.9-4.7,1.3-7c0.4-2.3,0.8-4.5,1.2-6.8
			c0.4-2.3,0.7-4.5,1-6.8c0.1-0.7-0.1-1.2-0.6-1.4c-0.5-0.2-1.1-0.3-1.7-0.3c-0.7,0.1-1.3,0.2-2,0.6c-0.7,0.3-1.1,0.7-1.4,1.2
			c-0.1,0-0.2,0.4-0.4,1.4c-0.2,1-0.5,2.2-0.8,3.8c-0.3,1.6-0.7,3.4-1.1,5.4c-0.4,2-0.8,4.1-1.2,6.2c-0.4,2.1-0.8,4.1-1.1,6.1
			c-0.4,2-0.7,3.7-1,5.2h-6.6c-1,1-1.1,1.7-0.1,2.3h6.4c-0.1,0.5-0.3,1.9-0.7,4c-0.4,2.1-0.8,4.8-1.3,8c-0.5,3.2-1,6.7-1.5,10.6
			c-0.5,3.9-0.9,7.8-1.3,11.9c-0.3,4-0.5,8-0.6,11.8c-0.1,3.9,0.1,7.3,0.5,10.5c0.4,3.1,1.1,5.7,2,7.8c0.9,2,2.2,3.3,3.9,3.7
			c1.7,0.4,3.5,0.1,5.3-1.1c1.8-1.1,3.6-2.9,5.5-5.3c1.8-2.4,3.7-5.2,5.5-8.6c1.8-3.4,3.6-7.1,5.4-11.1c1.7-4,3.4-8.2,5.1-12.7
			c1.3-3.5,2.5-6.9,3.6-10.4c0.3,0.3,0.6,0.6,1,0.9c1.5,1.3,3.2,2.1,5.1,2.6c-0.2,0.6-0.5,1.2-0.7,1.8c-0.2,0.6-0.5,1.2-0.7,1.9
			c-0.7,2-1.4,4.2-2.1,6.5c-0.7,2.3-1.2,4.6-1.6,7c-0.4,2.3-0.7,4.6-0.8,6.7c-0.1,2.1,0,4.1,0.4,5.7c0.4,1.7,1,3,1.9,4.1
			c0.9,1,2.2,1.6,3.8,1.6c1,0,2.1-0.3,3.2-1c1.1-0.7,2.3-1.7,3.5-3c1.2-1.3,2.4-2.8,3.6-4.5c1.2-1.7,2.4-3.6,3.5-5.6
			c1.2-2,2.3-4.1,3.4-6.2c1-1.9,1.9-3.8,2.8-5.6c0,1.4,0.1,2.7,0.2,4.1c0.2,2.8,0.7,5.3,1.4,7.6c0.7,2.3,1.7,4.2,2.9,5.7
			c1.2,1.5,2.7,2.5,4.3,2.8c1.1,0.2,2.1-0.1,3.1-0.7c1-0.7,2-1.7,2.8-3c0.9-1.3,1.7-2.9,2.4-4.8c0.7-1.9,1.4-3.9,2-6
			c0.6-2.1,1-4.3,1.4-6.6c0.4-2.3,0.7-4.5,0.9-6.7c1.2,0.3,2.4,0.4,3.7,0.3c1.3-0.1,2.6-0.4,3.8-0.9c1-0.4,1.9-0.9,2.8-1.6
			c-0.1,1.9-0.2,3.8-0.2,5.7c0,2.4,0.1,4.5,0.5,6.4c0.3,1.9,0.9,3.5,1.6,4.8c0.7,1.3,1.7,2.1,3,2.3c1.2,0.3,2.3-0.2,3.4-1.3
			c1.1-1.1,2.2-2.8,3.3-5.1c1.1-2.3,2.2-5.1,3.4-8.5c1.1-3.4,2.4-7.3,3.7-11.6c-0.7,4.7-1.3,9-1.7,13c-0.4,4-0.5,7.6-0.4,10.7
			c0.1,3.1,0.5,5.8,1.1,7.9c0.6,2.2,1.6,3.7,3,4.6c0.8,0.6,1.7,0.5,2.8-0.1c1.1-0.7,2.2-1.8,3.3-3.3c1.2-1.6,2.4-3.5,3.6-5.9
			c1.2-2.4,2.5-4.9,3.7-7.7c0.4-0.9,0.8-1.9,1.2-2.8c-0.4,3.8-0.8,7.5-1,11.3c-0.4,6.5-0.4,12.7-0.1,18.7c0.1,0.5,0.3,0.9,0.7,1.2
			c0.4,0.3,0.9,0.5,1.4,0.5c0.5,0,1-0.1,1.5-0.4c0.5-0.3,0.8-0.8,1-1.6c2.8-0.5,5.4-1.3,7.6-2.5c2.2-1.2,4.1-2.7,5.7-4.5
			c1.6-1.8,2.8-3.7,3.8-5.9c0.9-2.2,1.6-4.4,2-6.7c0.4-2.3,0.4-4.6,0.2-7c-0.2-2.3-0.7-4.5-1.5-6.6c3-0.7,5.7-1.8,8.2-3.2
			c1.4-0.8,2.6-1.7,3.9-2.9c-0.4,3-0.8,6.1-1,9c-0.4,5-0.7,9.8-0.6,14.3c0,4.5,0.3,8.5,0.9,12c0.6,3.5,1.5,6.3,2.8,8.4
			c1.2,2.1,2.8,3.3,4.7,3.5c1.5,0.2,3-0.3,4.4-1.4c1.4-1.1,2.9-2.6,4.3-4.7c1.4-2.1,2.8-4.6,4.2-7.6c1.4-3,2.8-6.3,4.3-10
			c1.4-3.7,2.9-7.6,4.4-11.9c0.3-0.9,0.6-1.8,0.9-2.7c0.1,3.1,0.3,6,0.7,9c0.5,3.2,1.1,6.1,1.9,8.6c0.8,2.6,1.8,4.7,3,6.3
			c1.2,1.6,2.5,2.5,4,2.7c0.6,0.1,1.3-0.1,2-0.6c0.7-0.5,1.6-1.3,2.5-2.5c0.9-1.2,2-2.8,3.1-4.9c1.1-2,2.5-4.6,3.9-7.7
			c1.5-3.1,3.1-6.7,4.9-10.9c1.1-2.5,2.2-5.2,3.5-8.2c0.3,1.6,0.6,3.3,1,4.9c1.1,4.3,2.2,8.6,3.4,13.1c-1.7,1.9-3.2,3.8-4.7,5.7
			c-1.4,1.9-2.7,3.8-3.6,5.7c-1,1.9-1.8,3.7-2.3,5.5c-0.5,1.8-0.7,3.5-0.5,5.2c0.2,1.5,0.5,2.8,1.2,3.9c0.6,1.1,1.4,2.1,2.4,2.9
			c0.9,0.8,2,1.3,3.1,1.7c1.1,0.4,2.3,0.5,3.6,0.5c1.8-0.1,3.3-0.6,4.5-1.6c1.2-0.9,2.1-2.1,2.8-3.5c0.7-1.4,1.2-3,1.4-4.9
			c0.2-1.8,0.3-3.7,0.3-5.7s-0.2-3.9-0.5-5.9c-0.3-2-0.7-3.8-1.1-5.5l-1.7-6l3.1-3c1.8-1.6,3.7-3.3,5.7-5.1c2-1.7,4.1-3.4,6.1-5.1
			c2.1-1.6,4.1-3.2,6-4.6c2-1.5,3.8-2.8,5.5-3.9C301.4,238.3,301.5,238,301.4,237.7z M244.5,230.6c0.7-2.2,1.7-3.5,3.1-3.8
			c1.3-0.3,2.2,0,2.8,0.9c0.6,0.9,0.7,2,0.4,3.5c-0.3,1.5-1.1,3.1-2.3,4.8c-1.2,1.7-3,3.3-5.3,4.7
			C243.3,236.2,243.8,232.9,244.5,230.6z M215.7,227.4c0.6-2.7,1.2-5.6,1.9-8.6c0.7-3,1.6-6.1,2.5-9.3c0.9-3.1,1.9-5.9,3-8.4
			c1.1-2.5,2.3-4.6,3.5-6.2c1.3-1.6,2.6-2.5,4-2.6c1.2-0.1,2,0.3,2.5,1.1c0.5,0.9,0.6,2.1,0.5,3.7c-0.1,1.6-0.5,3.4-1.1,5.5
			c-0.6,2.1-1.4,4.3-2.4,6.7c-1,2.4-2.1,4.8-3.4,7.2c-1.2,2.4-2.6,4.8-3.9,7c-1.4,2.2-2.8,4.3-4.2,6.1c-1.4,1.8-2.8,3.4-4.1,4.5
			C214.7,232.3,215.1,230.1,215.7,227.4z M187.6,248.2c-0.7-0.2-1.3-0.4-1.9-0.7c-0.6-0.3-1-0.6-1.3-1c-0.3-0.4-0.4-0.7-0.3-1.1
			c0.2-0.8,0.6-1.2,1.1-1.2c0.5-0.1,1,0.1,1.6,0.5c0.6,0.4,1.2,0.9,1.7,1.6c0.5,0.7,0.9,1.4,1.2,2.2
			C189,248.4,188.3,248.3,187.6,248.2z M185,223.1c0.8-3.1,1.6-6.2,2.5-9.5c0.9-3.2,1.8-6.4,2.7-9.5c1-3.1,1.9-5.9,2.9-8.3
			c1-2.4,1.9-4.3,2.9-5.7c1-1.4,1.9-2.1,2.8-2c0.9,0.1,1.5,0.7,1.8,1.6c0.3,1,0.3,2.2,0.2,3.8c-0.2,1.6-0.5,3.4-1.1,5.4
			c-0.6,2-1.3,4.2-2.2,6.5c-0.9,2.3-1.9,4.6-3,7c-1.1,2.4-2.3,4.7-3.6,7c-1.3,2.3-2.6,4.4-3.9,6.4c-1.3,2-2.7,3.8-4,5.3
			C183.5,228.9,184.2,226.2,185,223.1z M77,227.5c-0.1-0.6-0.1-1.2,0.1-1.7c0.2-0.5,0.4-0.9,0.7-1.2c0.3-0.3,0.6-0.4,0.9-0.3
			c0.3,0.1,0.6,0.4,0.9,0.9c0.2,0.6,0.4,1.4,0.5,2.6c0.1,1.1,0,2.7-0.2,4.6l-0.4,3.1c-0.1,0.2-0.3,0.2-0.5-0.2
			c-0.2-0.4-0.4-0.9-0.7-1.7c-0.2-0.8-0.5-1.7-0.7-2.7C77.3,229.7,77.1,228.6,77,227.5z M123.9,255.6c-0.7,3.1-1.4,5.9-2.2,8.2
			c-0.8,2.4-1.7,4.2-2.6,5.7c-0.9,1.4-1.8,2.2-2.8,2.5c-0.9,0.2-1.6-0.3-2.2-1.7c-0.5-1.4-0.9-3.2-1.2-5.5c-0.2-2.3-0.4-4.9-0.3-7.8
			c0-2.9,0.2-5.8,0.5-8.7c0.3-2.9,0.7-5.6,1.2-8.1c0.5-2.5,1.1-4.5,1.8-5.9c0.1,0.9,0.4,1.9,0.9,3.1c0.6,1.1,1.3,2.2,2.1,3.3
			c0.9,1.1,1.8,2,3,2.9c1.1,0.9,2.2,1.5,3.4,1.9C125.1,249,124.6,252.4,123.9,255.6z M122.3,240.5c-1-1.2-1.9-2.4-2.6-3.6
			c-0.7-1.2-1.2-2.3-1.5-3.4c-0.3-1-0.4-1.7-0.2-2c0.6-0.8,1.4-1,2.2-0.7c0.9,0.3,1.7,1.1,2.4,2.3c0.8,1.2,1.4,2.6,2,4.4
			c0.6,1.8,0.9,3.6,1,5.6C124.4,242.5,123.3,241.6,122.3,240.5z M273.1,285.4c-0.2,1.4-0.7,2.6-1.3,3.6c-0.6,1-1.5,1.6-2.6,1.9
			c-0.8,0.2-1.5,0.2-2.3,0s-1.5-0.5-2.2-1c-0.7-0.5-1.3-1.1-1.8-1.9c-0.5-0.8-0.9-1.6-1.2-2.6c-0.5-3.3,0-6.6,1.7-10.1
			c1.7-3.5,4.1-7,7.2-10.5l0.8,3c0.2,1,0.5,2.2,0.8,3.6c0.3,1.4,0.6,3,0.7,4.6c0.2,1.6,0.3,3.3,0.4,4.9
			C273.4,282.5,273.3,284,273.1,285.4z"/>
		<path d="M119,364.6c-2.5,0.6-4.9,0.5-7.2-0.5c-2.3-1-4.3-2.5-6-4.7c-1.7-2.1-3.2-4.7-4.3-7.6c-1.1-3-1.8-6.1-2-9.4
			c-0.2-3.3,0.1-6.6,0.9-10c0.8-3.4,2.2-6.5,4.3-9.4c-1.9,0.1-3.6-0.1-5-0.7c-1.4-0.6-2.6-1.4-3.6-2.4c-1-1-1.9-2.2-2.5-3.5
			s-1.2-2.6-1.6-3.9c-0.4-1.3-0.7-2.6-0.8-3.8c-0.2-1.2-0.2-2.2-0.2-3c0-3.6,0.6-6.5,1.8-9c1.2-2.4,2.6-4.3,4.3-5.6
			c1.7-1.3,3.6-2,5.5-2.1c2-0.1,3.8,0.3,5.4,1.4c1.6,1.1,2.9,2.7,3.9,5c1,2.2,1.3,5.1,1.1,8.5c0,0.5-0.2,0.9-0.5,1.1
			c-0.3,0.2-0.6,0.3-0.9,0.2c-0.3,0-0.6-0.2-0.8-0.4c-0.2-0.2-0.3-0.5-0.3-0.8c0-0.2,0-0.7,0-1.5c0-0.8-0.1-1.7-0.3-2.8
			c-0.2-1-0.4-2.1-0.8-3.2c-0.4-1.1-0.9-2-1.5-2.8c-0.7-0.8-1.5-1.3-2.5-1.6c-1-0.3-2.3-0.2-3.7,0.4c-1.3,0.5-2.3,1.3-3.1,2.4
			c-0.8,1.1-1.4,2.4-1.8,4c-0.4,1.5-0.6,3.2-0.6,5c0,1.8,0.2,3.6,0.5,5.4c0.3,1.8,0.8,3.5,1.5,5.1c0.6,1.6,1.4,3.1,2.3,4.3
			c0.9,1.2,2,2.2,3.1,3c1.2,0.7,2.4,1,3.8,1c-1.4,3.4-2.3,6.8-2.8,10.2c-0.5,3.4-0.6,6.5-0.3,9.6c0.2,3,0.8,5.8,1.7,8.3
			c0.9,2.5,2,4.7,3.3,6.5c1.3,1.8,2.8,3.1,4.4,4c1.6,0.9,3.4,1.2,5.2,0.9c1.7-0.5,3-1.3,4-2.4c1-1.1,1.7-2.4,2.2-3.8
			c0.5-1.5,0.7-3,0.6-4.7c0-1.7-0.2-3.4-0.6-5.1c-0.3-1.7-0.8-3.4-1.4-5c-0.6-1.6-1.2-3.1-1.9-4.4c-0.7-1.3-1.4-2.4-2.2-3.2
			c-0.7-0.8-1.4-1.3-2-1.5c-0.3-0.1-0.7-0.1-1.1-0.1c-0.4,0-0.9,0.1-1.4,0.2c-0.5,0.1-1,0.2-1.4,0.2c-0.5,0.1-0.9,0.1-1.3,0.1
			c-0.1,0-0.3-0.1-0.6-0.4c-0.2-0.3-0.5-0.6-0.7-0.9c-0.2-0.3-0.4-0.6-0.5-0.9c-0.1-0.3-0.1-0.4,0-0.4c1.1,0.2,2.3,0.2,3.5,0
			c1.2-0.2,2.5-0.6,3.8-1c1.3-0.4,2.4-0.9,3.6-1.4c1.1-0.5,2.1-0.9,3-1.2c0.4-0.2,0.8-0.2,1,0c0.2,0.2,0.4,0.4,0.5,0.7
			c0.1,0.3,0.1,0.6,0,0.9c-0.1,0.3-0.3,0.5-0.5,0.6l-4.1,1.6c1.5,1.9,2.7,4,3.8,6.3c1.1,2.3,2,4.6,2.6,7c0.6,2.4,1,4.7,1,7
			c0.1,2.3-0.2,4.4-0.9,6.4c-0.7,1.9-1.7,3.6-3.2,5C123.3,363,121.4,364,119,364.6z"/>
		<g>
			<path d="M159.7,305.8c-1-1.3-3.6-4-6.1-5.1c-1.7-0.8-3.3-1.7-5.2-1.8c-2.4-0.3-5.1,0-7.4,0.3c-1.7,0.2-3.2,1-4.9,1.7l-0.8,0.4
				c-0.1,0.2-0.1,0.5-0.1,0.6c0,0.2,0.3,0.5,0.5,0.4c0.4,0,1-0.1,1.5-0.2c0.7-0.2,1.5-0.5,2.2-0.6v1.7c0.1,1.5,0.1,3.3-0.1,4.9
				c0.1,1.8,0.1,3.8,0,5.8c0,3.8-0.2,7.7-0.1,11.3c-0.1,2.8-0.1,5.7,0,8.5c-0.1,1-0.1,2.4-0.1,3.3c0.2,2.1-0.7,1.4-2.2,1.6
				c-0.3,0.1-0.6,0.3-0.6,0.6c0,0.2,0.2,0.4,0.3,0.6c0.2,0.1,0.6,0.3,0.8,0.3c0.6,0.1,4-0.3,4.7-0.5c1.9-0.5,3.5-1,4.9-1.7
				c0.5-0.3,0.9-0.5,1.4-0.7c2.3-0.6,4.5-2.1,6.5-3.7c1.5-1.2,2.8-2.9,4-4.7c1.4-1.9,2.2-4.2,3-6.5c1.3-3.6,1.5-6.8,0.8-10.4
				C162.2,309.7,161.5,307.5,159.7,305.8z M159.4,324.2c-0.3,1-1,2.5-1.6,3.6c-1.7,3.2-4,5.4-7.3,6.8c-1.3,0.5-2.4,1.3-3.7,1.8
				c-0.6,0.1-1,0.2-1.3,0.3c0-1,0.2-2,0.3-3c0.2-4.3,0.6-8.9,0.7-13.3c0.1-2.4,0.5-4.9,0.6-7.1c0.1-1.9,0.1-3.8,0.2-5.6
				c0.1-2,0.2-4,0.5-6l0.1-1c1,0,1.6,0.2,2.4,0.6c3.4,1,6,3.1,8.4,5.8c1.8,2.2,2.9,5.1,2.9,8.1C161.4,318.4,160.9,321.3,159.4,324.2
				z"/>
			<path d="M194.4,337.4c-0.1-0.2-0.1-0.4-0.1-0.6c-0.1-0.6-1-4.3-1.2-5.6c-0.2-1.4-0.9-5.5-0.9-5.8l-0.4-3.3
				c-1.8-12.2-3.5-19.4-3.5-20c0.1-0.3,0.2-0.4,0.7-0.4c1.4,0,2,0.2,2.2-0.7c0-0.2-0.4-0.5-0.5-0.5c-0.3-0.1-2.9-0.3-10.7-0.3
				c-1.4,0.1-2.6,0.1-3.9,0.2l-2.1,0.1c-0.9,0-1.8,0.9-0.8,1.5c0.2,0.1,0.6-0.1,1.7-0.1c0.4-0.1,0.6,0.1,0.6,0.1l-1.4,5.9
				c-0.3,1-0.6,1.9-0.8,2.9c-0.3,0.8-1.8,6.5-2.1,7.4c-0.6,1.4-0.9,2.9-1.3,4.2c-0.2,1.1-1.3,4.6-1.3,5.4c-0.8,3.8-2.2,8.6-2.6,9.9
				c0,0.3-0.1,0.4-0.1,0.8c-0.2,0.3-0.3,0.3-0.5,0.4c-0.3,0.1-0.7,0.1-1.1,0.2s-0.6,0.3-0.6,0.6c-0.1,0.4,1.5,0.8,1.9,0.8
				c0.6,0,1.3-0.1,2.1-0.3c1,0,7.2-0.8,7.9-0.8c0.4,0.1,0.8-0.1,1.1-0.6c0.3-0.3,0.2-0.7-0.3-0.8c-1-0.1-2.2-0.1-2.2-0.1
				c0-0.6,0.3-1.9,0.3-2.5c0.3-2.2,0.6-4.2,1-6.1c0.6-1.7,0.6-3.3,1.1-4.2c0-0.3,0.4-0.3,0.7-0.3c1-0.1,2-0.1,2.9-0.1
				c1-0.1,2-0.2,3-0.2c0.2,0,0.5-0.1,0.9,0.1c0.1,0.1,0.1,0.5,0.1,0.8c0.1,0.3,1,6.2,1.4,7.7c0.1,1.1,0.9,5.2,0.9,5.6
				c-1,0.3-1.6,1.3-0.9,1.6c0.7,0.4,2.5-0.1,3.9-0.2c3.1-0.3,2.9-0.4,6.1-0.8c0.5-0.3,0.6-0.6,0.6-0.8
				C196.9,337.4,195.6,337.2,194.4,337.4z M183.5,323c-0.6,0.1-3.4,0.3-5,0.3c-0.3,0-1.5,0.1-1.2-0.1c0.3-1.9,0.6-2.9,0.8-4
				c0.4-1,0.6-2.2,1.9-6.3l2.2-7c-0.1-0.1,0.2-0.8,0.2-0.9c0.5,0.2,0.5,4.3,0.6,5.8c0.1,0.6,1,11,1,11.8
				C184.2,323,184.2,323,183.5,323z"/>
			<path d="M231.3,299.5l-4.9-0.4c-1,0.1-2.1-0.1-3.2-0.1c-0.8,0-1.7,0.2-2.5,0.2c-0.4,0.1-0.7,0.4-0.6,0.9c0,0.6,0.3,1,0.8,1
				c0.3,0,0.5-0.1,0.7-0.1c0.6-0.1,1-0.1,1.3,0.1c0.1,0.7,0.1,1.3,0,1.9l-0.7,12.8c-0.1,1.8-0.3,3.6-0.3,5.4c-0.2,2-0.3,4-0.3,6
				c0,2.2,0.1,4.1,0.1,6.3c0,0.2-0.1,1,0,1.4c-0.6-0.5-0.8-1.7-1-2.1c-0.8-1.5-1.3-3.1-2-4.6c-0.6-1.3-1.1-2.8-1.6-4.2l-4.2-11.1
				c-0.3-1-0.8-1.8-1.1-2.6c-0.6-2.2-1.4-4.2-2-6.3c-0.2-0.8-0.5-1.7-0.6-2.5c0.3-0.3,1-0.3,1.2-0.5c0.5-0.1,0.5-0.7,0.1-1.1
				c-0.1-0.1-1.5-0.2-1.9-0.1c-1.5-0.1-2.8,0.1-4.4,0.3c-1.1-0.1-2.3,0-3.4-0.1c-0.4,0.1-0.6,0.3-0.7,0.7c-0.1,0.4,0.1,0.9,0.4,1.2
				c0.3,0.1,0.7,0.1,1,0.1c0,0.8,0.2,1.7,0.1,2.6c0,3.5-0.1,7.1-0.2,10.7c-0.1,2.4-0.2,4.8,0,7.1c0.1,2.9,0,5.7,0.1,8.5
				c0,2,0.1,4,0.2,5.9c0.1,0.4,0,0.7,0,1c-0.1,0.1-0.3,0.1-0.3,0.1c-0.5,0.3-0.7,0.6-0.7,1.3c0.1,0.5,0.3,0.7,0.9,0.8
				c0.8,0,1.7-0.1,2.6-0.4c1.9-0.3,3.6-1,5.4-1c0.3-0.1,0.7-0.5,1-0.6c0.3-0.2,0.4-0.6-0.1-1c-0.1-0.1-0.4-0.1-0.6-0.1
				c-0.5-0.1-0.8,0-1-0.2c-0.1-0.2-0.1-0.6-0.1-0.8c0-1.3,0.1-2.6,0.1-3.8c0-2.2,0-4.3,0.1-6.4c0.1-2.9-0.2-5.5,0.1-8.3
				c0.1-3,0.3-6,0.2-8.8c0-0.1,0-1.4,0.3-0.3c0.8,3.1,2.3,5.9,5.9,16c1.5,3.9,2.9,7.9,4.9,11.5c0.1,0.4,0.4,0.8,0.4,1.3
				c-0.1,0.1-0.2,0.1-0.2,0.3c-0.6,0.8-0.3,1.5,0.3,1.6c0.2,0.1,0.4,0.1,0.8,0.1c1.9,0,4,0,6.1-0.3c0.5,0,1-0.2,1.5-0.2
				c0.3-0.1,0.4-0.4,0.4-0.6c0.1-0.1,0.1-0.6-0.1-0.8c-0.3-0.1-0.7-0.5-1-0.6c-0.1-0.6-0.1-1.5-0.3-2.1c-0.1-2.9,0-4.7,0.8-31.4
				c0-0.4,0.1-0.8,0.1-1.1c0.2-0.8,0.3-0.9,0.8-0.9c0.5,0.1,1,0.1,1.3,0.2c0.5,0,0.7-0.1,0.9-0.3c0.2-0.2,0.3-0.7,0-1.1
				C232.1,299.5,231.8,299.4,231.3,299.5z"/>
			<path d="M261.9,333.7c-0.6,0-1.6,1.2-2.2,2.2c-0.7,1-1.5,1.7-2.4,2.2h-0.1c-1,0.6-1.9,1-2.9,1.3c-0.5,0.1-0.9,0.2-1.3,0.2
				c-0.8,0-1.5-0.3-2.1-0.9v-0.1c-1.9-1.6-3.3-3.6-3.8-6.2v-0.1c-0.6-2.2-0.7-4.7-0.8-7.2l0.1-0.3c0.1-1.1,0.1-2.4,0.3-3.8
				c0.2-1.9,0.4-3.3,0.7-4.5c0.1-0.3,0.1-0.6,0.3-0.9c0.6-2.3,1.3-4.7,2.2-6.8c0.6-1.7,1.5-3.3,2.6-4.8c0.5-0.6,1.2-1.3,2.1-1.9
				c0.1-0.1,0.4-0.3,0.6-0.3h0.1c1.5,0,2.2,0.3,2.9,1.3c0,0.1,0.1,0.1,0.1,0.1c0.1,0.1,0.1,0.3,0.3,0.3c0.1,0.1,0.3,0.3,0.5,0.3
				c0.3,0,0.7-0.3,0.8-0.6v-0.1c0.1-0.5,0.1-1-0.3-1.3c-1.7-1.7-3.5-1.9-6.3-1.9c-1,0.1-2.3,0.2-3.4,0.7c-2,0.7-3.8,1.9-5.4,3.8
				c-2.2,2.4-4,5.1-5.4,8.1c-1.3,3.1-1.7,5.3-1.8,6.2c-0.3,1.4-0.6,2.6-0.6,3.7v3c0.6,6.1,1.7,10.4,6.2,14c2.2,1.6,4.5,2.4,7,2.4
				c0.5,0,1-0.1,1.6-0.1c2.5-0.3,4.7-0.9,6.4-1.8c1.6-0.9,3-2,4-3.5c0.6-0.9,0.8-2,0.6-2.4C262.3,333.7,262.1,333.7,261.9,333.7z"/>
			<path d="M293.2,335.3c-0.3-0.1-0.6,0.1-0.8,0.3c-0.3,0.2-0.6,0.6-0.8,1c-0.3,0.8-1,1.3-1.9,1.5c-0.4,0.1-0.8,0.3-1.3,0.3
				c-1.3,0.3-2.9,0.4-4.2,0.2c-2.2-0.1-4.4-0.2-6.8-0.3c-0.8-0.1-1-0.3-1-1.2c-0.1-0.6,0-1,0-1.6c0.1-1.8,0.1-3.5,0.1-5.3
				c0-1.7,0.1-3.1,0.2-4.8c0.1-0.9,0.1-1.8,0-2.8c0.1-0.3,0.1-0.9,0.1-0.9c0.7-0.2,1.9-0.1,2.5-0.1l6,0.2h0.1
				c0.4-0.1,0.6-0.3,0.7-0.6c0.2-0.3,0.1-0.6-0.2-0.8c-0.3-0.3-0.8-0.2-1.3-0.2c-2.2,0.3-4.6,0.1-6.9,0c-0.6-0.1-0.8-0.3-0.7-0.7
				c-0.1-0.5,0-0.8,0-1.3c0.1-1.8,0.2-3.6,0.3-5.5l0.5-7.2c0.1-1.1,0.1-2,0.2-3.1c0.1-0.6,0-0.7,0.1-0.7h3.3c3.1-0.1,5.9-0.3,8.9,0
				c0.6,0,1-0.2,1.3-0.6c0.1-0.2,0.1-0.4,0-0.6c-0.2-0.1-0.6-0.4-1.1-0.3c-2.9,0.3-5.5,0.1-7.4,0.3c-1.8,0.1-3.8,0.1-5.5,0.1
				c-0.5,0-6,0.3-8.5,0.3c-0.8,0-1.8,0.1-2.6,0.1c-0.3,0-0.4,0-0.6,0.1c-0.1,0.1-0.2,0.4-0.3,0.7c-0.1,0.2,0.1,0.3,0.4,0.3
				c0.4,0.1,0.6,0,1,0c0.7,0,1.3,0,1.9-0.1c0,1.4-0.8,21.9-0.8,23.2c-0.1,3-0.2,6.1-0.3,9.1c0,1.4,0.1,2.9,0.1,4.3v0.7
				c0.1,0.5,0.6,0.8,1,0.8l3.8-0.2c1.5,0,3.1,0,4.3-0.1c1.4-0.1,2.4,0.1,3.7,0.1c2.1,0.2,4.3,0.1,6.4,0c1.9-0.1,3.5-0.8,4.9-2
				c0.5-0.6,0.7-1.3,0.8-1.9C293.7,335.6,293.5,335.5,293.2,335.3z"/>
		</g>
	</g>
	<path class="st3" d="M237.6,195.9c0.1-0.5,1.1-1.9,3.1-4.1c1.9-2.2,2.9-3.3,3-3.4c1.6-1.4,3.3-2.6,4.9-4c0.8-0.7,1.5-1.4,2.3-2
		c0.8-0.6,1.7-1.2,2.7-1.6c1.6-0.6,3.3-1.3,5-1.6c2.1-0.3,4.1-1,6.2-1.3c1.4-0.2,2.7-0.6,4.1-0.8c2-0.3,4-0.5,5.9-1.1
		c1.4-0.4,2.8-0.6,4.2-1.1c2-0.6,4.1-0.6,6.2-0.5c1.7,0.1,3.4,0.1,4.9-0.3c1.7-0.5,3.4-0.8,5.1-1.3c1.6-0.5,3.2-1,4.7-1.5
		c1.8-0.6,3.5-1.4,5.2-2.2c1.7-0.7,3.2-1.7,4.8-2.6c1.7-0.9,3.4-1.8,5.1-2.6c1-0.5,1.8-1.1,2.4-2c0.5-0.7,1-1.3,1.6-2
		c0.5-0.5,0.6-1.1,0.8-1.7c0.1-0.3,0-0.5-0.3-0.8c-0.9-0.7-1.8-1.4-2.7-2.1c-0.8-0.6-1.7-1-2.7-1.4c-0.9-0.3-1.7-0.6-2.6-0.8
		c-0.9-0.2-1.9,0-2.8,0.1c-0.3,0-0.6,0-0.9,0c-1-0.1-2-0.7-2.7-1.3c-0.2-0.2-0.5-0.5-0.5-0.7c-0.1-0.4-0.1-0.6-0.4-0.9
		c-0.6-0.5-1.2-0.9-1.8-1.4c-0.7-0.7-1.4-1.4-2.1-2.1c-0.5-0.6-0.9-1.3-1.5-1.9c-0.7-0.7-1.1-1.6-1.2-2.5c-0.1-0.5-0.1-0.9-0.1-1.4
		c-1.4-0.9-2.4-2.4-2.6-4.1c-0.2-2.9,2-5.5,5-5.7c1.1-0.1,2.1,0.2,2.9,0.6c0.6,0.1,1.1,0.2,1.7,0.4c0,0,0,0,0,0c2-0.3,4-0.6,6-0.1
		c2,0.6,3.8,1.8,5.2,3.2c0.3,0.4,0.6,0.7,0.9,1.1c0.4,0.5,1,1,1.5,1.5c0,0,0.5-0.3,0.6-0.3c0.2-0.1,0.5-0.1,0.7,0
		c0.5,0.1,0.8,0.4,1.1,0.8c0.1,0.1,0.2,0.3,0.2,0.4c0.3,0.4,0.5,0.8,0.7,1.3c0.4,0.9,0.6,1.8,1,2.7c0.3,0.7,0.5,1.4,1,1.9
		c0.5,0.6,1,1.1,1.6,1.6c0.5,0.5,1.1,0.9,1.7,1.4c0.2,0.2,0.4,0.3,0.7,0.5c0.2,0.2,0.3,0.2,0.4-0.1c0.3-1.2,0.4-2.3,0.4-3.5
		c0-2.2-0.6-4.3-1.6-6.3c-0.8-1.7-1.5-3.5-2.7-5.1c-0.3-0.5-0.5-1-0.6-1.6c-0.4-1.2-1-2.4-1.6-3.4c-0.6-0.9-1.1-1.8-1.9-2.7
		c-1.1-1.3-2.2-2.6-2.8-4.2c-0.2-0.5-0.6-0.9-0.9-1.4c-1.2-1.7-2.1-3.5-3.1-5.3c-0.8-1.5-1.6-2.9-2.3-4.4c-0.4-0.9-0.7-1.9-1-2.8
		c-0.8-1.9-1-4-1-6.1c0-1,0.1-2,0.2-3.1c0.1-0.9,0.5-1.7,0.7-2.6c0.7-2.9,1.8-5.3,3.4-7.2c0.1-0.1,0.2-0.2,0.3-0.3c0,0,0,0,0,0
		c1.1-0.9,2.4-1.6,3.8-2.2c0.1-0.1,0.2-0.1,0.4-0.1c1.2-0.7,1.9-0.7,2.2-0.2c1.1-0.3,1.7-0.3,1.9,0c0.5,0.7,0.1,1.3-1.1,1.9
		c-0.6,0.7-1.3,1.1-2.1,1.2c-0.6,0.8-1.4,1.4-2.3,1.8c-0.8,1.2-0.9,2.3-0.1,3.1c0.5-0.1,1.1-0.5,1.9-0.9c0.1-0.1,0.2-0.1,0.3-0.2
		c0.9-1.1,1.7-1.4,2.4-1.1c0.5,0.1,0.6,0.5,0.3,1.1c0,0,0,0.1,0,0.1l-2.4,2.9c-0.1,0.1-0.1,0.3-0.2,0.4c-0.8,1.7-1.9,3-3.3,3.7
		c-0.2,0.4-0.3,0.7-0.5,1c-0.1,0.7-0.1,1.4,0,2.1c0.2,1.3,0.5,2.5,1.2,3.6c0.9,1.5,2,2.9,3,4.3c1,1.3,2.1,2.5,3.1,3.8
		c0.9,1.3,2,2.4,3,3.5c0.5,0.6,1,1.3,1.5,1.8c0.7,0.7,1.2,1.6,1.8,2.4c0.9,1.4,1.7,2.9,2.7,4.3c1.2,1.5,1.8,3.3,2.6,5
		c0.6,1.2,1.3,2.4,1.8,3.6c0.6,1.4,1.2,2.8,1.6,4.3c0.3,1,0.7,1.9,1.1,2.8c0.3,0.6,0.4,1.3,0.6,2c0.3,0.9,0.5,1.9,1.1,2.7
		c0.2,0.4,0.4,0.8,0.6,1.2c0.4,1.1,1.3,2,2,2.9c1.1,1.4,2.1,2.7,3,4.2c0.3,0.4,0.6,0.7,1.2,0.8c1.3,0.3,2.6,0.8,4,1.2
		c1.5,0.4,2.9,1,4.2,1.9c1.8,1.2,3.4,2.6,4.5,4.4c0.9,1.5,1.3,3.1,1.5,4.8c0.1,0.9,0.3,1.7,0.8,2.5c0.7,1.2,0.9,2.5,1.5,3.8
		c0.9,1.8,1.4,3.8,1.5,5.8c0.1,1.4-0.1,2.7-0.1,4.1c0.1,2.1-0.8,4.3-1.7,6.3c-0.8,2-1.6,4-2.3,6c-0.2,0.7-1,2.6-0.4,3.2
		c0.6,0.6,4,0,5,0c4.7-0.1,9.5-0.6,14.1-0.8c1.6-0.1,4.4-0.1,3.8,2c-0.7,2.6-1.8,4.8-2.2,7.5c0,0.4-0.2,0.7-0.3,1.1
		c2.9-1,5.8-2,8.7-3l0.6,1.5c0.1,0,0.1,0,0.2,0c0.4,0,0.4,14,0.9,15.2c0.3,0.7,0.7,1.3,1,1.9c0.9,2.1,0.3,4.3,0.9,6.4
		c0.2,0.8,0.7,1.2,0,2c-0.5,0.6-1.3,0.9-1.9,1.4c-0.4,0.4-0.7,0.9-1,1.3c-1.1,1.2-2.6,2.2-4,3.1c0,0.3-2.8,1.8-3.1,2
		c-1.5,0.9-2.5,2.1-3.4,3.5c-0.8,1.2-2.1,1.7-3.5,2.3c-0.4,0.2-0.7,0.3-1.1,0.4c-1,0.1-1.8-0.7-2.5-1.5c-1.2-1.4-2.1-3-3.4-4.4
		c-1.1-1.3-3.9,0.2-5.6-0.6c-1.1-0.5-1.7-1.5-2.5-2.3c-0.8-0.8-1.8-1.5-2.8-2.1c-2.6-1.7-5-3.6-7.7-5.2c-0.3,0.8-0.6,1.5-0.9,2.3
		c-0.5,1.6-1.3,3.2-1.9,4.8c-0.3,0.6-0.4,1.3-0.4,2c-0.1,2.5-0.3,5-0.3,7.4c0,1.6,0.2,3.2,0.3,4.7c0.1,2.7-0.1,5.4-0.4,8
		c-0.3,2.7-0.6,5.4-0.2,8.1c0.2,1.7,0.5,3.4,0.9,5.1c0.5,2.3,1,4.5,1.4,6.8c0.6,3.3,1.4,6.5,2.2,9.7c0.4,1.7,1,3.3,1.8,4.9
		c1,2.1,1.3,4.3,1.8,6.5c0.3,1.5,0.5,2.9,0.5,4.4c0.1,1.2,0.2,2.4,0.2,3.6c0,1.1-0.3,2.2,0,3.3c0.1,0.3,0,0.7-0.2,1.1
		c-0.7,1.1-1.2,2.4-2,3.4c-1,1.3-1.9,2.6-3.3,3.5c-0.8,0.5-1.7,0.9-2.5,1.4c-0.6,0.3-1.3,0.6-2,0.9c-1.1,0.4-2.2,0.1-3.3,0
		c-0.5-0.1-1-0.1-1.3-0.6c-0.2-0.3-0.7-0.5-0.7-0.9c0.1-0.7,0.2-1.3,0.7-1.9c1-1,2.1-1.9,3.3-2.7c0.6-0.4,1-1,1.2-1.7
		c0.2-0.7,0.4-1.5,0.3-2.2c-0.1-0.9-0.4-1.8-0.9-2.5c-1.2-1.7-2.4-3.4-3.3-5.3c-0.4-0.8-0.5-1.7-0.5-2.5c0-0.7-0.1-1.3,0.1-2
		c0.3-1,1.1-1.7,2-2.4c1.4-1,1.3-0.8,0.7-2.1c-0.7-1.7-1.5-3.4-2.4-5.1c-0.6-1.1-1.1-2.3-1.7-3.5c-0.8-1.8-1.7-3.5-2.4-5.3
		c-0.7-1.6-1.3-3.3-1.9-4.9c-0.6-1.7-1.2-3.4-1.7-5.1c-0.3-1.3-0.5-2.7-0.5-4c0-0.3,0-0.5-0.1-0.9c-0.4,0.9-0.9,1.8-1.2,2.6
		c-0.9,2.4-1.7,4.8-2.6,7.1c-0.4,1-0.8,1.9-1.2,2.9c-0.6,1.6-1.1,3.3-1.8,4.9c-0.5,1.2-0.9,2.5-1.5,3.8c-0.5,1.2-0.8,2.4-0.8,3.7
		c-0.1,1.6-0.2,3.3-0.4,4.9c0,0.2,0,0.3,0.1,0.5c0.2,0.3,0.3,0.7,0,1.1c-0.1,0.1-0.1,0.3-0.1,0.4c0.3,1.3-0.2,2.5-0.5,3.7
		c-0.4,1.8-1,3.6-1.8,5.3c-0.8,1.9-1.7,3.7-2.9,5.5c-0.3,0.4-0.5,0.8-0.8,1.2c-0.4,0.4-0.2,0.8-0.3,1.3c-0.3,1-1.1,1.7-1.8,2.4
		c-0.9,0.9-1.9,1.6-3,2.3c-1.5,1.1-3.2,1.6-5.1,1.1c-0.8-0.2-1.2-0.8-1-1.6c0.3-1.9,1.6-3.2,2.8-4.6c1.2-1.4,2.3-2.9,2.5-4.8
		c0.1-0.5,0-1-0.2-1.4c-0.4-1.1-0.8-2.2-1.6-3.2c-0.8-1-1.1-2.2-1.6-3.4c-0.2-0.5-0.4-1.1-0.7-1.6c-0.7-1.4-0.2-3,1.3-3.8
		c1.2-0.7,2.4-1.3,3.6-1.9c0.1,0,0.2-0.1,0.2-0.1c1,0,1.3-0.7,1.5-1.4c0.8-2.4,1.4-4.9,1.5-7.4c0.1-1.7,0-3.4,0-5.2
		c-0.1-2.1-0.2-4.2-0.2-6.3c0-2.3,0.3-4.6,1.2-6.9c0.5-1.4,1.1-2.9,1.8-4.3c0.6-1.2,1.3-2.3,2-3.5c1.2-2,1.9-4.1,2.5-6.3
		c0.5-1.8,0.8-3.7,1.1-5.5c0.3-2.1,0.7-4.2,0.8-6.4c0.1-1.3,0.1-2.5,0.1-3.8c0-1,0.2-1.9,0.6-2.9c0.4-1,0.8-2,1.2-3
		c0.2-0.5,0.9-1,0.8-1.3c-0.6-3.1-1.7-6.2-4.6-7.9c-3.9-2.3-9.4-3.4-13.6-5c-0.8-0.3-1.7-0.7-2.2-1.4c-1.6-2.6,0.6-6.2-3.5-7.4
		c-2.9-0.8-6.8-0.3-10-1.3c-1.6-0.5-3.1-1.1-4.3-2.1c-1.4-1.2-1.4-2.9-2.5-4.1c-1.3-1.4-3.3-2.1-4.5-3.8c-0.2-0.2-0.6-0.4-0.5-0.7
		c0.4-1.1,4.6-0.4,4.2-2.2c-0.2-1.2-5-0.3-6-0.8c0.5-0.9,1.4-1.5,2.4-1.8c3.5-1.2,7.4-2,10.7-3.8c1.1-0.6,1.9-1.6,2.9-2.3
		c1-0.7,2.2-1.2,3.3-1.5c2.1-0.6,4.3-0.7,6.3-1.7c1.1-0.6,1.8-1,3.2-1.1c3.1-0.3,6.4,0.1,9.3,1c1.3,0.4,2.5,1,3.7,1.7
		c2.2,1.3,4.3,2.8,6.6,3.9c1,0.5,2,1,3,1.5c1.5,0.8,2.6,1.8,4.5,1.3c0.4-0.1,0.8-0.4,1.1-0.6c1.7-1.4,2.6-3.3,3.6-5.2
		c0.2-0.4,0.3-0.8-0.2-1.3c-1.5-1.4-3.4-2.2-5.1-3.3c-0.8-0.5-1.7-0.7-2.6-1.1c-1.4-0.6-2.9-1.2-4.2-2c-1.5-0.8-3.1-1.5-4.2-2.7
		c-0.5-0.6-1.4-0.6-2.1-0.6c-2.5-0.1-5,0-7.5,0.3c-2.4,0.3-4.7,0.7-7,1.2c-2.4,0.5-4.8,1.1-7.1,1.8c-1.4,0.4-2.7,0.8-4.1,1.3
		c-1.1,0.4-2.2,0.9-3.4,1.1c-1.9,0.4-3.7,1.1-5.7,1.4c-1.9,0.3-3.7,0.4-5.6,0.3c-2-0.1-4.1-0.1-6.1,0c-4.1,0.1-8.1,0.6-12.1,1.3
		c-2.9,0.5-5.8,1.3-8.4,2.6c-0.5,0.2-0.9,0.5-1.3,0.8c-0.4,0.4-0.7,0.8-1,1.3c-0.5,0.8-1,1.6-1.5,2.5c-0.4,0.7-1.1,1.2-1.5,1.8
		c-0.2,0.2-0.5,0.8-0.9,1.6c-0.3,0.7-0.7,1.1-1.2,1c-0.5-0.1-0.5-0.6-0.1-1.8c0.1-0.5,0.3-1,0.5-1.3c0.4-0.8,0.6-1.4,0.7-1.7
		c-0.9,0.6-2,1.7-3.4,3.2c-0.3,0.3-0.7,0.8-1.3,1.6c-0.6,0.7-1.2,0.9-1.9,0.7l0-0.1c-0.1,0.1-0.4,0.3-0.9,0.6
		c-0.5,0.3-0.7,0.4-0.9,0.3c0,0-0.1-0.1-0.2-0.3c-0.3,0.1-0.5,0.1-0.6,0.1c-0.2,0-0.4-0.1-0.5-0.3c-0.1-0.1-0.2-0.2-0.5-0.3
		C237.7,196.8,237.5,196.5,237.6,195.9z"/>
</g>
</svg>
