<?xml version="1.0" encoding="utf-8"?>
<!-- Generator: Adobe Illustrator 16.0.0, SVG Export Plug-In . SVG Version: 6.00 Build 0)  -->
<!DOCTYPE svg PUBLIC "-//W3C//DTD SVG 1.1//EN" "http://www.w3.org/Graphics/SVG/1.1/DTD/svg11.dtd">
<svg version="1.1" id="Calque_1" xmlns="http://www.w3.org/2000/svg" xmlns:xlink="http://www.w3.org/1999/xlink" x="0px" y="0px"
	 width="432px" height="432px" viewBox="0 0 432 432" enable-background="new 0 0 432 432" xml:space="preserve">
<g>
	<g>
		<path fill-rule="evenodd" clip-rule="evenodd" d="M177.699,80.952c-2.822,0.315-5.492,0.654-8.08,1.446
			c-2.135,0.652-4.139,1.52-5.639,3.289c-0.527,0.622-1.779,0.714-2.518,0.325c-0.42-0.221-0.471-0.56-0.332-0.949
			c0.246-0.683,0.68-1.244,1.197-1.745c1.432-1.384,3.174-2.233,5.023-2.888c2.658-0.942,5.422-1.406,8.205-1.779
			c0.555-0.075,1.115-0.135,1.672-0.198c0.916-0.104,0.934-0.099,1.094-1.022c0.529-3.024,1.17-6.025,1.891-9.009
			c0.67-2.764,1.428-5.503,2.223-8.235c0.564-1.938,1.928-2.116,3.391-1.8c0.781,0.169,1.002,0.455,0.934,1.269
			c-0.176,2.164-0.377,4.326-0.598,6.486c-0.365,3.612-0.838,7.214-1.045,10.842c-0.045,0.772-0.031,0.812,0.76,0.746
			c1.865-0.154,3.727-0.337,5.588-0.531c0.855-0.089,1.703-0.249,2.559-0.34c0.896-0.096,1.77-0.263,2.611-0.603
			c0.746-0.302,1.512-0.427,2.301-0.142c0.77,0.279,0.859,0.678,0.23,1.18c-0.684,0.546-1.484,0.867-2.322,1.089
			c-2.137,0.568-4.33,0.828-6.518,1.121c-1.594,0.213-3.189,0.414-4.789,0.579c-0.566,0.059-0.752,0.309-0.781,0.854
			c-0.197,3.778-0.395,7.556-0.535,11.337c-0.221,5.96-0.076,11.918,0.109,17.873c0.158,5.129,0.381,10.256,0.768,15.376
			c0.414,5.458,1.086,10.877,2.082,16.256c0.52,2.799,1.145,5.574,2.016,8.287c0.381,1.179,0.83,2.329,1.496,3.38
			c0.609,0.96,0.725,0.977,1.602,0.203c1.252-1.107,2.176-2.468,2.977-3.919c1.197-2.169,2.109-4.466,2.951-6.791
			c3.363-9.293,6.369-18.704,9.205-28.17c0.236-0.789,0.471-1.58,0.756-2.351c0.344-0.919,1.943-1.276,2.674-0.624
			c0.186,0.167,0.236,0.38,0.197,0.611c-0.053,0.294-0.121,0.586-0.188,0.878c-2.387,10.212-5.453,20.233-8.537,30.248
			c-0.705,2.29-1.373,4.591-2.322,6.797c-0.582,1.347-1.313,2.598-2.201,3.773c-3.271,4.34-10.65,4.427-13.984-0.108
			c-1.365-1.86-2.371-3.897-3.154-6.054c-1.322-3.642-2.098-7.418-2.68-11.234c-0.785-5.15-1.207-10.335-1.457-15.539
			c-0.195-4.08-0.334-8.16-0.424-12.244c-0.006-0.241,0.094-0.508-0.143-0.782c-0.314,0.32-0.355,0.739-0.479,1.104
			c-1.68,4.967-3.504,9.877-5.66,14.659c-1.418,3.148-2.99,6.214-5.172,8.919c-0.564,0.698-1.178,1.359-1.803,2.005
			c-5.049,5.221-13.496,4.621-18.117-0.607c-1.795-2.032-2.969-4.401-3.83-6.937c-1.295-3.807-2.092-7.724-2.555-11.717
			c-0.434-3.732-0.559-7.475-0.385-11.221c0.135-2.88,0.443-5.751,1.51-8.476c0.123-0.314,0.25-0.625,0.385-0.934
			c1.844-4.241,5.586-5.346,9.451-4.227c2.557,0.74,4.602,2.327,6.348,4.28c2.029,2.271,3.721,4.79,5.119,7.499
			c0.238,0.463,0.426,0.96,0.576,1.459c0.477,1.572,0.021,2.796-1.354,3.682c-0.857,0.553-1.82,0.864-2.799,1.127
			c-3.432,0.923-6.887,1.745-10.42,2.173c-0.486,0.059-0.762,0.136-0.705,0.72c0.611,6.251,1.725,12.383,4.277,18.175
			c0.711,1.618,1.543,3.183,2.838,4.417c1.705,1.627,1.762,1.49,3.59,0.526c2.125-1.119,3.756-2.837,5.262-4.673
			c1.623-1.977,2.98-4.131,4.184-6.381c4.111-7.689,7.227-15.781,9.682-24.136c0.125-0.429,0.25-0.862,0.258-1.319
			c0.051-3.373,0.314-6.732,0.682-10.083c0.232-2.12,0.52-4.234,0.781-6.351C177.658,81.573,177.668,81.318,177.699,80.952z
			 M157.74,104.667c0.002-0.978-0.273-1.641-0.57-2.282c-1.113-2.389-2.529-4.583-4.342-6.503c-1.197-1.267-2.59-2.258-4.225-2.89
			c-1.084-0.418-1.24-0.374-1.744,0.655c-0.701,1.435-0.918,2.991-1.088,4.556c-0.342,3.141-0.068,6.278,0.043,9.416
			c0.039,0.999,0.105,1.036,1.053,0.848c2.197-0.435,4.396-0.86,6.586-1.332c0.98-0.211,1.982-0.373,2.922-0.756
			C157.375,105.968,157.75,105.416,157.74,104.667z"/>
		<path fill-rule="evenodd" clip-rule="evenodd" d="M114.809,84.157c-0.586,1.953-0.969,3.936-1.418,5.901
			c-1.121,4.897-2.406,9.74-4.486,14.337c-0.881,1.95-1.861,3.844-3.174,5.545c-1.486,1.931-3.324,3.337-5.797,3.75
			c-3.063,0.51-5.877-0.169-8.473-1.812c-2.314-1.463-4.166-3.414-5.74-5.634c-2.838-4.007-4.551-8.494-5.594-13.261
			c-1.025-4.688-1.258-9.439-0.855-14.196c0.5-5.904,1.959-11.58,4.678-16.886c1.803-3.518,4.254-6.417,7.82-8.274
			c2.051-1.067,4.207-1.777,6.516-1.93c4.783-0.315,8.17,1.913,10.561,5.896c0.387,0.644,0.711,1.322,0.92,2.043
			c0.242,0.832,0.029,1.172-0.816,1.381c-1.326,0.33-2.146-0.037-2.947-1.17c-1.4-1.978-3.113-3.635-5.182-4.923
			c-1.037-0.646-2.051-0.725-3.191-0.247c-2.021,0.847-3.711,2.097-5.02,3.848c-1.959,2.613-3.166,5.594-4.174,8.665
			c-1.795,5.47-2.451,11.089-2.283,16.834c0.176,5.941,1.266,11.676,3.635,17.141c1.365,3.151,3.09,6.077,5.621,8.46
			c0.574,0.542,1.195,1.014,1.871,1.429c0.852,0.525,1.654,0.547,2.531,0.042c0.988-0.57,1.832-1.299,2.59-2.137
			c1.799-1.993,3.129-4.288,4.285-6.696c2.287-4.767,3.639-9.813,4.482-15.011c0.305-1.885,0.588-3.771,0.889-5.656
			c0.059-0.369,0.152-0.732,0.229-1.098c0.217-1.028,0.926-1.502,1.9-1.628c2.002-0.262,3.678,0.276,4.961,1.939
			c1.174,1.52,2.158,3.151,3.084,4.823c3.346,6.035,5.592,12.49,7.367,19.129c1.637,6.124,2.879,12.324,3.51,18.633
			c0.809,8.095,0.375,16.095-2.174,23.881c-1.578,4.815-4.07,9.085-7.926,12.462c-2.555,2.236-5.447,3.846-8.816,4.446
			c-4.949,0.881-9.41-0.01-12.924-3.884c-2.008-2.213-3.236-4.856-3.814-7.776c-0.801-4.03-0.15-7.907,1.465-11.632
			c2.158-4.978,4.914-9.596,8.459-13.724c1.605-1.87,3.471-3.407,5.744-4.416c0.645-0.287,1.301-0.336,1.975-0.219
			c0.207,0.037,0.449,0.144,0.469,0.411c0.014,0.205-0.15,0.328-0.313,0.429c-0.094,0.059-0.191,0.12-0.293,0.165
			c-2.256,0.997-3.986,2.637-5.5,4.528c-3.326,4.152-6.035,8.674-7.895,13.662c-1.871,5.021-1.77,9.976,0.836,14.764
			c0.775,1.428,1.744,2.707,2.967,3.787c1.354,1.198,2.914,1.96,4.713,2.188c1.07,0.135,2.084-0.167,3.068-0.531
			c2.342-0.872,4.215-2.41,5.814-4.29c2.98-3.507,4.666-7.638,5.688-12.076c1.186-5.158,1.34-10.396,1.096-15.646
			c-0.41-8.903-2.123-17.604-4.324-26.219c-1.602-6.282-3.592-12.441-5.992-18.465c-0.123-0.312-0.264-0.619-0.406-0.921
			C114.994,84.258,114.908,84.229,114.809,84.157z"/>
	</g>
	<g>
		<path fill-rule="evenodd" clip-rule="evenodd" d="M266.641,89.739c0,1.743-0.039,3.161,0.01,4.575
			c0.117,3.428,0.256,6.854,0.424,10.278c0.25,5.09,0.564,10.173,0.787,15.264c0.146,3.38,0.223,6.767,0.246,10.152
			c0.033,4.777-0.02,9.554,0.084,14.333c0.045,2.072-0.387,2.628-2.051,2.754c-0.336,0.026-0.678,0.027-1.01-0.023
			c-1.316-0.199-1.787-0.657-2.029-2.282c-0.449-3.052-0.814-6.123-1.232-9.182c-0.926-6.77-1.348-13.608-1.887-20.431
			c-0.758-9.567-1.045-19.149-0.797-28.754c0.086-3.289,0.303-6.573,0.357-9.862c0.031-1.985,0.887-3.399,1.873-4.714
			c0.732-0.975,2.611-0.737,3.41,0.287c0.232,0.298,0.418,0.652,0.619,0.986c3.465,5.763,5.959,12.204,8.514,18.606
			c4.014,10.062,7.467,20.429,11.063,30.72c0.625,1.786,1.287,3.551,1.939,5.322c0.102,0.279,0.135,0.622,0.508,0.854
			c0.018-0.393,0.049-0.732,0.045-1.071c-0.07-5.102-0.162-10.203-0.002-15.305c0.131-4.166,0.363-8.327,0.633-12.484
			c0.443-6.833,0.896-13.666,1.34-20.5c0.188-2.862,0.369-5.725,0.68-8.572c0.154-1.378,1.49-2.071,2.463-1.306
			c0.35,0.274,0.344,0.692,0.334,1.104c-0.035,1.577-0.033,3.157-0.137,4.726c-0.34,5.125-0.719,10.247-1.084,15.369
			c-0.281,3.968-0.6,7.934-0.846,11.906c-0.313,5.086-0.525,10.182-0.408,15.286c0.107,4.585,0.354,9.161,0.744,13.726
			c0.285,3.317,0.59,6.63,0.943,9.937c0.107,1.014-0.127,1.415-0.918,1.776c-1.648,0.753-3.301,0.213-4.445-1.486
			c-1.033-1.54-1.879-3.239-2.645-4.994c-3.674-8.404-6.955-17.036-9.975-25.829c-2.344-6.822-4.795-13.586-7.199-20.376
			C266.932,90.361,266.85,90.205,266.641,89.739z"/>
		<path fill-rule="evenodd" clip-rule="evenodd" d="M254.066,104.797c0.006,3.168-0.17,7.517-0.555,11.852
			c-0.512,5.783-1.475,11.427-3.344,16.796c-1.008,2.895-2.445,5.394-4.334,7.523c-3.459,3.897-8.438,4.121-12.096,1.373
			c-3.49-2.622-6.09-6.251-7.846-10.806c-1.469-3.802-2.232-7.854-2.697-12c-0.379-3.355-0.578-6.735-0.447-10.123
			c0.344-8.976,2.023-17.499,5.855-25.233c1.984-4.005,4.525-7.376,7.75-9.905c1.977-1.548,4.104-2.433,6.48-2.253
			c0.949,0.072,1.85,0.317,2.705,0.817c0.74,0.432,1.395,1.082,2.225,1.285c0.17,0.042,0.334,0.217,0.465,0.376
			c2.184,2.661,4.184,5.458,4.574,9.454C253.445,90.483,254.174,97.003,254.066,104.797z M250.371,103.724
			c-0.01-2.524-0.094-5.528-0.381-8.526c-0.287-2.988-0.484-5.99-0.738-8.982c-0.168-1.981-0.381-3.955-0.875-5.864
			c-0.365-1.406-0.951-2.796-1.936-3.468c-0.813-0.555-1.74-1.025-2.656-1.42c-0.504-0.218-0.938-0.148-1.371,0.245
			c-0.727,0.661-1.426,1.352-2.076,2.125c-3.092,3.675-5.139,8.175-6.623,13.083c-1.879,6.212-2.918,12.626-2.943,19.284
			c-0.027,6.245,0.504,12.397,1.844,18.421c0.939,4.227,2.492,8.067,5.213,10.989c1.727,1.853,1.646,1.902,3.672,0.301
			c2.211-1.745,3.693-4.301,4.814-7.189c1.285-3.319,2.131-6.819,2.729-10.413C250.035,116.341,250.324,110.289,250.371,103.724z"/>
	</g>
	<g>
		<path fill-rule="evenodd" clip-rule="evenodd" d="M244.316,212.678c0.268,0.315,0.543,0.315,0.791,0.393
			c2.24,0.703,4.117,1.958,5.607,3.768c2.09,2.535,3.613,5.412,4.984,8.376c0.473,1.019,0.918,2.051,1.412,3.059
			c0.293,0.596,0.5,1.244,1.102,1.661c0.344,0.242,0.264,0.597-0.072,0.84c-0.373,0.269-0.805,0.39-1.258,0.435
			c-1.527,0.153-2.797-0.318-3.787-1.519c-1.65-2.001-3.061-4.163-4.314-6.43c-0.744-1.343-1.48-2.691-2.254-4.017
			c-0.627-1.071-1.365-2.064-2.275-2.916c-0.686-0.643-1.424-1.207-2.338-1.44c-0.26,0.103-0.219,0.314-0.229,0.483
			c-0.105,2.172-0.137,4.344-0.047,6.519c0.092,2.208,0.117,4.42,0.137,6.632c0.012,1.209-0.318,1.552-1.523,1.819
			c-0.744,0.164-1.477,0.174-2.225,0.011c-1.209-0.262-1.688-0.684-1.877-1.908c-0.258-1.664-0.482-3.333-0.678-5.006
			c-0.357-3.085-0.709-6.172-1.02-9.263c-0.18-1.788-0.299-3.582-0.408-5.375c-0.279-4.634-0.547-9.27-0.807-13.906
			c-0.27-4.863-0.623-9.722-0.604-14.595c0.016-3.559,0.146-7.115,0.797-10.629c0.055-0.293,0.133-0.583,0.209-0.872
			c0.195-0.738,0.682-1.129,1.434-1.222c0.488-0.061,1.033-0.155,1.441,0.067c0.705,0.383,1.086,0.016,1.555-0.393
			c2.924-2.544,6.188-4.507,9.996-5.347c4.387-0.967,8.576-0.497,12.281,2.295c2.697,2.033,4.17,4.862,4.996,8.055
			c0.893,3.45,0.68,6.917-0.102,10.35c-1.574,6.91-4.807,13.036-8.984,18.7c-2.463,3.339-5.314,6.293-8.693,8.723
			C246.441,210.836,245.355,211.694,244.316,212.678z M241.697,209.919c0.412,0.004,0.555-0.301,0.756-0.494
			c5.029-4.859,9.152-10.387,12.23-16.673c2.383-4.866,4.307-9.87,4.703-15.355c0.234-3.247-0.23-6.344-1.691-9.265
			c-0.557-1.117-1.303-2.103-2.273-2.898c-1.762-1.444-3.709-1.988-5.959-1.305c-4.203,1.274-7.664,3.665-10.617,6.861
			c-0.33,0.354-0.318,0.714-0.271,1.136c0.232,2.044,0.469,4.088,0.664,6.136c0.42,4.395,0.785,8.795,1.227,13.188
			c0.586,5.813,1.047,11.632,1.117,17.477C241.586,209.127,241.539,209.541,241.697,209.919z"/>
		<path fill-rule="evenodd" clip-rule="evenodd" d="M163.521,175.926c-0.482,1.685-0.951,3.374-1.453,5.053
			c-0.912,3.048-1.848,6.09-3.123,9.013c-0.525,1.205-1.139,2.359-1.887,3.443c-2.678,3.881-7.061,3.446-9.633,1.765
			c-1.215-0.794-2.141-1.866-2.93-3.066c-1.545-2.349-2.418-4.972-3.104-7.667c-0.936-3.676-1.375-7.427-1.641-11.204
			c-0.223-3.181-0.283-6.363-0.141-9.548c0.037-0.822,0.139-1.641,0.225-2.46c0.074-0.722,0.507-1.161,1.186-1.331
			c0.697-0.176,1.406-0.174,2.105,0.028c0.771,0.222,1.156,0.789,1.371,1.506c0.385,1.299,0.543,2.637,0.701,3.976
			c0.602,5.054,0.973,10.135,1.809,15.16c0.561,3.363,1.291,6.689,2.463,9.902c0.426,1.167,0.951,2.284,1.762,3.241
			c0.607,0.715,0.826,0.74,1.59,0.165c0.938-0.71,1.658-1.62,2.291-2.602c1.266-1.962,2.186-4.094,3.021-6.262
			c1.891-4.895,3.508-9.872,4.5-15.037c0.373-1.953,0.563-3.926,0.732-5.903c0.092-1.09,0.412-1.44,1.494-1.564
			c1.846-0.213,2.801,0.39,3.391,2.184c0.648,1.966,0.871,4.023,1.203,6.052c0.594,3.658,1.141,7.323,1.684,10.988
			c0.516,3.481,0.865,6.982,1.104,10.495c0.32,4.712,0.529,9.429,0.371,14.151c-0.195,5.913-1.146,11.695-3.326,17.227
			c-1.529,3.885-4.148,6.766-8.102,8.238c-4.672,1.739-9.115,1.344-13.139-1.805c-2.604-2.039-4.764-4.451-6.115-7.505
			c-0.658-1.489-1.082-3.039-0.803-4.693c0.068-0.402,0.182-0.806,0.336-1.184c0.354-0.867,1.092-1.203,1.994-0.95
			c0.615,0.173,0.748,0.337,0.527,0.974c-0.615,1.749-0.27,3.422,0.426,5.027c1.619,3.734,4.27,6.588,7.801,8.572
			c2.74,1.539,5.605,1.06,7.934-1.168c1.391-1.33,2.238-2.987,2.842-4.782c1.043-3.101,1.59-6.31,2.029-9.54
			c0.561-4.13,0.703-8.286,0.582-12.445c-0.102-3.593-0.271-7.184-0.527-10.772c-0.213-3.025-0.473-6.045-0.73-9.067
			c-0.186-2.187-0.385-4.373-0.58-6.56C163.682,175.954,163.602,175.94,163.521,175.926z"/>
		<path fill-rule="evenodd" clip-rule="evenodd" d="M214.643,228.59c0.453-0.444,0.58-0.917,0.754-1.35
			c1.07-2.651,1.686-5.43,2.23-8.222c1.433-7.307,2.682-14.647,3.752-22.015c0.643-4.442,1.121-8.909,1.672-13.364
			c0.488-3.937,0.965-7.874,1.461-11.809c0.393-3.119,0.807-6.235,1.221-9.351c0.059-0.443,0.133-0.892,0.27-1.316
			c0.244-0.766,0.752-1.062,1.547-0.971c0.709,0.082,0.838,0.289,0.68,1.021c-0.381,1.761-0.49,3.559-0.697,5.343
			c-0.445,3.866-0.867,7.735-1.248,11.608c-0.238,2.422-0.381,4.853-0.576,7.278c-0.322,4.028-0.586,8.06-1.006,12.08
			c-0.609,5.809-1.49,11.579-2.369,17.35c-0.57,3.736-1.176,7.47-2.24,11.108c-0.422,1.44-1.008,2.806-1.729,4.131
			c-1.734,3.189-6.461,3.172-8.287,0.091c-1.002-1.688-1.754-3.471-2.342-5.331c-1.137-3.583-1.732-7.273-2.238-10.984
			c-0.863-6.296-0.801-12.626-0.705-18.957c0.055-3.67,0.109-7.343,0.291-11.009c0.199-4.035,0.355-8.08,1.096-12.066
			c0.109-0.587,0.277-1.164,0.434-1.741c0.133-0.493,0.42-0.898,0.885-1.107c1.113-0.5,2.254-0.513,3.365,0
			c0.588,0.271,0.818,0.83,0.932,1.453c0.334,1.852,0.361,3.729,0.4,5.596c0.203,9.33,0.082,18.659-0.035,27.989
			c-0.082,6.747,0.25,13.476,1.414,20.14c0.193,1.105,0.449,2.2,0.695,3.294C214.346,227.824,214.492,228.154,214.643,228.59z"/>
		<path fill-rule="evenodd" clip-rule="evenodd" d="M199.551,187.196c-0.189,6.033-0.299,12.077-1.059,18.061
			c-0.711,5.585-1.627,11.124-3.369,16.424c-0.537,1.637-1.229,3.18-2.01,4.684c-2.1,4.05-6.625,3.719-8.936,1.425
			c-0.951-0.945-1.736-2.053-2.418-3.266c-1.936-3.438-3.191-7.222-4.135-11.157c-1.795-7.487-2.465-15.129-2-22.873
			c0.342-5.729,1.105-11.387,3.098-16.719c0.965-2.582,2.125-5.024,3.766-7.11c2.459-3.13,5.445-4.165,8.959-2.974
			c0.32,0.109,0.654,0.234,0.928,0.449c0.406,0.32,0.783,0.362,1.262,0.235c1.016-0.269,2.146,0,2.74,1.408
			c0.279,0.666,0.66,1.277,0.824,2.004c0.674,3.001,1.457,5.972,1.814,9.06C199.412,180.283,199.455,183.74,199.551,187.196z
			 M195.998,188.501c0.078-2.282-0.15-4.548-0.215-6.821c-0.041-1.441-0.123-2.884-0.34-4.307c-0.492-3.231-1.32-6.367-1.98-9.552
			c-0.121-0.595-0.266-1.183-0.4-1.773c-0.088-0.391-0.273-0.594-0.648-0.534c-0.559,0.09-1.139,0.142-1.674-0.046
			c-0.932-0.328-1.59,0.118-2.203,0.839c-0.559,0.657-1.012,1.405-1.42,2.192c-1.129,2.185-1.965,4.521-2.574,6.967
			c-1.551,6.225-2.035,12.629-2.137,19.065c-0.105,6.626,0.646,13.174,1.824,19.652c0.553,3.04,1.252,6.032,2.305,8.896
			c0.428,1.169,0.898,2.313,1.584,3.311c0.414,0.604,0.518,0.605,0.971,0.079c0.564-0.653,0.982-1.433,1.361-2.24
			c1.107-2.353,1.828-4.881,2.447-7.453C195.123,207.528,195.83,198.054,195.998,188.501z"/>
	</g>
	<g>
		<path fill-rule="evenodd" clip-rule="evenodd" d="M181.398,364.527c0.227,2.705,0.094,5.917,0.32,9.113
			c0.066,0.926-0.047,1.067-0.838,1.349c-0.717,0.256-1.412,0.141-2.092-0.132c-0.676-0.272-0.932-0.907-1.068-1.667
			c-0.381-2.137-0.621-4.297-0.861-6.456c-0.607-5.505-1.209-11.011-1.756-16.525c-0.367-3.688-0.645-7.389-0.949-11.085
			c-0.293-3.527-0.584-7.053-0.848-10.583c-0.145-1.958-0.227-3.92-0.348-5.879c-0.252-4.094-0.277-8.194-0.238-12.296
			c0.014-1.413,0.102-2.816,0.303-4.209c0.225-1.546,0.66-2.055,1.982-2.36c0.563-0.13,1.107-0.07,1.67,0.041
			c0.986,0.192,1.535,0.839,1.68,1.934c0.174,1.308,0.346,2.619,0.449,3.935c0.262,3.272,0.473,6.55,0.719,9.824
			c0.354,4.679,0.768,9.351,1.066,14.034c0.275,4.3,0.563,8.604,0.576,12.92c0.004,1.025,0.025,2.051,0.057,3.076
			c0.035,1.115,0.045,1.122,1.051,1.005c0.633-0.074,1.264-0.153,1.895-0.246c2.723-0.401,5.461-0.227,8.195-0.259
			c0.561-0.006,1.125-0.026,1.686,0c0.453,0.02,0.604-0.214,0.555-0.693c-0.078-0.764-0.148-1.527-0.23-2.29
			c-0.551-5.087-0.852-10.2-1.057-15.315c-0.17-4.183-0.189-8.374-0.063-12.562c0.121-4.014,0.322-8.017,0.895-11.985
			c0.049-0.336,0.125-0.667,0.191-1c0.379-1.898,1.174-2.304,3.043-2.013c0.645,0.1,0.914,0.664,1.027,1.348
			c0.301,1.808,0.426,3.639,0.51,5.473c0.168,3.625,0.281,7.253,0.473,10.876c0.23,4.346,0.523,8.686,0.785,13.029
			c0.186,3.111,0.355,6.221,0.541,9.33c0.266,4.429,0.594,8.854,0.789,13.287c0.141,3.199,0.252,6.399,0.492,9.591
			c0.195,2.594,0.412,5.187,0.605,7.782c0.061,0.808,0.07,1.621,0.121,2.429c0.039,0.618-0.24,0.968-0.717,1.14
			c-1.342,0.485-3.225,0.208-3.695-2.093c-0.525-2.542-0.834-5.12-1.205-7.687c-0.596-4.127-1.152-8.262-1.713-12.396
			c-0.156-1.138-0.289-2.282-0.393-3.428c-0.059-0.643-0.283-0.885-0.867-0.817c-3.5,0.405-7.023,0.45-10.516,0.957
			c-0.594,0.086-1.195,0.116-1.795,0.113c-0.496-0.004-0.67,0.25-0.646,0.775c0.016,0.298-0.004,0.599,0.002,0.898
			C181.25,357.884,181.318,360.96,181.398,364.527z"/>
		<path fill-rule="evenodd" clip-rule="evenodd" d="M234.189,333.772c0.066,4.787-0.139,9.566-0.498,14.329
			c-0.486,6.427-1.371,12.792-3.121,18.952c-0.813,2.859-1.986,5.534-3.639,7.895c-2.096,2.989-4.83,3.859-8.031,3.013
			c-1.281-0.339-2.285-1.247-3.201-2.272c-2.58-2.884-4.461-6.292-5.811-10.101c-1.551-4.377-2.49-8.936-3.133-13.584
			c-0.605-4.39-1.004-8.809-1.02-13.251c-0.027-7.666,0.436-15.276,2.58-22.622c0.969-3.313,2.334-6.395,4.586-8.842
			c2.41-2.616,5.271-3.63,8.564-2.925c0.4,0.086,0.828,0.19,1.168,0.425c1.58,1.095,3.264,1.999,4.652,3.442
			c1.408,1.46,2.473,3.181,3.311,5.116c1.344,3.104,2.674,6.203,3.049,9.707c0.275,2.542,0.629,5.07,0.547,7.644
			C234.162,331.721,234.189,332.746,234.189,333.772z M213.004,338.257c-0.031,3.506,0.182,6.995,0.449,10.485
			c0.326,4.256,0.803,8.483,1.617,12.654c0.777,3.98,1.943,7.794,3.781,11.314c0.5,0.955,1.016,1.898,1.719,2.68
			c0.6,0.665,0.76,0.694,1.461,0.207c1.049-0.728,1.805-1.79,2.459-2.945c1.184-2.092,2.105-4.335,2.738-6.712
			c1.707-6.396,2.559-12.972,3.076-19.612c0.213-2.722,0.283-5.453,0.357-8.185c0.117-4.137,0.389-8.275-0.084-12.406
			c-0.199-1.733-0.256-3.504-0.723-5.175c-1.037-3.72-2.453-7.239-4.434-10.445c-0.318-0.514-0.668-0.737-1.215-0.667
			c-0.631,0.081-1.15-0.208-1.631-0.685c-0.479-0.473-0.998-0.907-1.537-1.288c-0.697-0.495-0.854-0.464-1.492,0.149
			c-0.986,0.948-1.715,2.141-2.355,3.399c-1.275,2.499-2.055,5.213-2.578,8.02C213.428,325.377,213.035,331.798,213.004,338.257z"/>
		<path fill-rule="evenodd" clip-rule="evenodd" d="M156.728,380.325c-3.418,0.134-6.561-1.405-9.232-4.316
			c-1.912-2.085-3.566-4.38-4.621-7.184c-0.729-1.934-0.818-3.973-0.813-6.033c0-0.497,0.184-0.815,0.609-0.93
			c0.363-0.097,0.721-0.203,1.107-0.127c0.854,0.168,1.072,0.386,1.24,1.364c0.086,0.503,0.176,1.006,0.23,1.514
			c0.244,2.172,0.988,4.106,2.121,5.856c1.32,2.042,2.836,3.869,4.639,5.367c3.258,2.705,6.146,2.614,9.568-0.692
			c2.129-2.057,2.91-4.898,3.057-7.993c0.098-2.023-0.154-4.005-0.576-5.965c-1.754-8.173-5.729-14.664-11.51-19.793
			c-2.225-1.973-4.6-3.674-7.051-5.249c-2.578-1.656-5.182-3.262-7.568-5.271c-2.039-1.714-3.883-3.656-5.229-6.119
			c-2.627-4.817-2.945-9.938-0.955-15.068c1.877-4.839,5.367-7.372,9.994-7.594c6.084-0.292,11.25,4.425,12.457,11.214
			c0.111,0.624,0.113,1.273,0.16,1.911c0.041,0.615-0.252,0.933-0.742,1.109c-1.211,0.437-2.113-0.026-2.598-1.378
			c-0.75-2.102-1.531-4.18-2.842-5.933c-1.316-1.763-2.947-2.999-4.824-3.861c-0.689-0.316-1.289-0.259-1.926,0.143
			c-2.504,1.576-3.924,4.046-4.463,7.175c-0.943,5.461,0.498,10.116,3.822,14.088c1.621,1.934,3.531,3.438,5.551,4.761
			c2.014,1.316,4.066,2.555,6.09,3.85c3.977,2.542,7.633,5.581,10.775,9.367c3.893,4.691,6.555,10.156,7.814,16.477
			c0.496,2.484,0.652,5,0.25,7.507c-0.654,4.073-2.689,7.086-5.777,9.175C162.892,379.452,160.075,380.365,156.728,380.325z"/>
		<path fill-rule="evenodd" clip-rule="evenodd" d="M287.032,379.75c-2.624,0.176-4.846-0.89-6.75-2.878
			c-2.041-2.131-3.668-4.613-4.775-7.52c-0.641-1.678-0.896-3.428-0.77-5.251c0.037-0.56,0.049-1.175,0.6-1.4
			c0.606-0.249,1.248-0.273,1.852,0.072c0.321,0.184,0.306,0.557,0.314,0.897c0.131,5.004,2.518,8.629,5.573,11.834
			c0.608,0.635,1.312,1.127,2.082,1.492c0.927,0.438,1.752,0.312,2.511-0.421c0.996-0.964,1.67-2.182,2.146-3.55
			c1.102-3.166,1.133-6.421,0.535-9.701c-0.629-3.452-1.785-6.691-3.242-9.791c-2.132-4.538-4.707-8.727-7.721-12.562
			c-1.408-1.79-3.026-3.312-4.646-4.832c-0.752-0.705-1.499-1.42-2.231-2.151c-2.954-2.954-4.416-6.714-4.585-11.155
			c-0.16-4.221,0.322-8.35,1.403-12.387c0.353-1.312,0.835-2.562,1.533-3.689c1.987-3.209,4.783-4.496,8.104-4.014
			c5.072,0.733,8.96,5.302,9.742,11.125c0.16,1.187,0.267,2.374,0.23,3.571c-0.023,0.8-0.238,1.059-0.906,1.224
			c-1.275,0.314-1.94-0.152-2.297-1.646c-0.316-1.317-0.564-2.656-0.918-3.959c-0.9-3.328-2.808-5.689-5.516-7.23
			c-0.879-0.5-1.1-0.442-1.761,0.355c-0.706,0.856-1.134,1.898-1.483,2.988c-0.57,1.777-0.831,3.633-1.018,5.499
			c-0.318,3.148-0.383,6.295,0.096,9.443c0.498,3.273,1.746,6.05,3.938,8.272c1.819,1.847,3.844,3.422,5.578,5.375
			c5.766,6.499,10.248,13.916,12.42,22.943c0.914,3.804,0.975,7.599-0.322,11.318c-1.393,3.991-3.823,6.667-7.592,7.589
			C288.448,379.783,287.739,379.72,287.032,379.75z"/>
		<path fill-rule="evenodd" clip-rule="evenodd" d="M247.078,306.409c0.795,4.886,0.951,9.79,1.121,14.696
			c0.359,10.291,0.652,20.581,0.576,30.882c-0.002,0.166,0.027,0.332,0.051,0.591c0.943-0.089,1.855-0.177,2.77-0.26
			c0.445-0.041,0.896-0.118,1.342-0.092c1.041,0.062,2.07,0.248,3.113-0.099c0.338-0.112,0.746-0.012,1.109,0.069
			c0.336,0.076,0.629,0.282,0.68,0.741c0.051,0.467-0.059,0.849-0.438,1.083c-0.332,0.204-0.676,0.363-1.057,0.407
			c-2.232,0.257-4.463,0.53-6.697,0.768c-0.979,0.104-0.986,0.071-1.002,1.153c-0.031,2.35-0.043,4.701-0.082,7.051
			c-0.066,3.93-0.152,7.86-0.221,11.79c-0.008,0.465-0.061,0.939,0.092,1.488c0.936-0.151,1.881-0.297,2.822-0.46
			c2.371-0.41,4.756-0.601,7.148-0.754c1.643-0.105,3.279-0.33,4.918-0.519c0.41-0.048,0.787-0.236,1.15-0.476
			c0.729-0.48,1.523-0.437,2.293-0.205c0.746,0.224,0.879,0.902,0.348,1.554c-0.428,0.523-1.012,0.725-1.586,0.909
			c-1.697,0.543-3.445,0.792-5.189,1.026c-4.121,0.554-8.27,0.858-12.365,1.652c-0.332,0.064-0.672,0.106-1.006,0.097
			c-2.059-0.053-2.813-0.826-3.102-3.151c-0.404-3.259-0.5-6.549-0.734-9.825c-0.305-4.298-0.502-8.604-0.701-12.91
			c-0.176-3.881-0.301-7.765-0.447-11.646c-0.309-8.07-0.48-16.141-0.352-24.218c0.053-3.373,0.143-6.746,0.441-10.105
			c0.029-0.339,0.096-0.673,0.135-1.011c0.191-1.633,1.068-2.435,2.438-2.726c1.295-0.276,2.605-0.391,3.91-0.412
			c2.771-0.045,5.533-0.263,8.299-0.502c2.32-0.199,4.641,0,6.953,0.247c0.223,0.023,0.443,0.096,0.658,0.173
			c0.359,0.131,0.744,0.282,0.744,0.813c0.002,0.519-0.381,0.721-0.723,0.872c-0.453,0.198-0.932,0.312-1.426,0.318
			c-3.523,0.045-7.002,0.743-10.514,0.955c-1.496,0.09-2.996,0.1-4.492-0.03C247.762,306.316,247.469,306.184,247.078,306.409z"/>
	</g>
	<g>
		<path fill-rule="evenodd" clip-rule="evenodd" d="M194.055,263.908c0.357-0.9,0.7-1.804,1.07-2.698
			c1.971-4.775,4.482-9.23,7.852-13.168c1.69-1.977,3.622-3.683,5.852-5.041c2.207-1.345,4.579-1.771,7.114-1.335
			c2.021,0.346,3.483,1.476,4.491,3.23c0.987,1.719,1.43,3.613,1.736,5.543c0.55,3.461,0.457,6.942,0.267,10.425
			c-0.316,5.757-0.856,11.5-1.017,17.266c-0.084,2.994-0.274,5.99-0.074,8.985c0.107,1.605,0.26,3.211,0.77,4.755
			c0.127,0.381,0.197,0.8,0.586,1.088c0.821-0.755,1.366-1.691,1.906-2.627c1.808-3.127,3.129-6.468,4.314-9.866
			c1.564-4.489,2.968-9.031,4.34-13.583c0.155-0.516,0.163-1.006,0.101-1.54c-0.287-2.532-0.575-5.073-0.511-7.622
			c0.145-5.691,1.155-11.17,4.32-16.055c0.305-0.472,0.639-0.927,0.97-1.38c2.205-3.003,5.187-3.994,8.716-3.072
			c4.576,1.194,7.74,4.094,9.539,8.466c0.212,0.518,0.361,1.062,0.329,1.64c-0.032,0.561-0.298,0.895-0.85,1.032
			c-1.124,0.279-1.693,0.024-2.304-1.011c-1.025-1.743-2.035-3.499-3.43-4.99c-1.063-1.135-2.272-2.081-3.698-2.698
			c-1.814-0.787-1.716-0.924-2.805,0.847c-0.813,1.314-1.386,2.745-1.802,4.227c-1.337,4.779-1.709,9.632-1.164,14.575
			c0.429,3.913,0.957,7.806,1.844,11.642c1.379,5.969,3.357,11.729,6.227,17.16c0.594,1.124,1.214,2.232,2.048,3.235
			c0.522-0.192,0.743-0.643,1.011-1.032c1.183-1.711,2.013-3.594,2.663-5.555c1.061-3.198,2.014-6.429,2.67-9.739
			c0.087-0.44,0.252-0.863,0.353-1.301c0.281-1.208,1.731-1.265,2.496-0.928c0.322,0.144,0.364,0.398,0.328,0.743
			c-0.547,4.963-1.667,9.808-2.995,14.61c-0.251,0.903-0.575,1.782-1.008,2.616c-2.065,3.986-6.813,5.173-10.522,2.626
			c-1.314-0.904-2.34-2.096-3.26-3.382c-2.189-3.067-3.842-6.422-5.294-9.883c-0.939-2.242-1.703-4.548-2.354-6.938
			c-0.455,0.35-0.43,0.843-0.553,1.253c-1.211,4.053-2.338,8.132-3.815,12.102c-0.614,1.65-1.28,3.28-2.129,4.827
			c-0.359,0.655-0.763,1.289-1.174,1.914c-1.579,2.404-3.927,2.991-6.584,2.642c-1.571-0.206-2.742-1.132-3.588-2.47
			c-0.913-1.449-1.427-3.054-1.741-4.713c-0.546-2.878-0.741-5.778-0.682-8.718c0.064-3.372,0.225-6.734,0.438-10.097
			c0.19-3.025,0.411-6.049,0.642-9.071c0.297-3.925,0.449-7.853,0.164-11.785c-0.082-1.124-0.306-2.226-0.683-3.292
			c-0.2-0.567-0.464-1.107-0.858-1.569c-0.547-0.638-0.876-0.726-1.678-0.462c-1.043,0.341-1.973,0.903-2.867,1.518
			c-2.349,1.613-4.256,3.668-5.89,5.976c-4.569,6.454-7.351,13.604-8.277,21.466c-0.124,1.053,0.016,2.092,0.165,3.133
			c0.303,2.113,0.565,4.232,0.636,6.369c0.034,1.065-0.133,1.301-1.112,1.669c-0.902,0.341-1.84,0.346-2.771,0.224
			c-1.056-0.136-1.742-0.698-2.067-1.776c-0.789-2.623-1.335-5.296-1.816-7.987c-0.984-5.527-1.67-11.107-2.86-16.599
			c-0.523-2.415-1.09-4.819-2.006-7.124c-0.15-0.38-0.288-0.761-0.594-1.169c-0.579,0.627-0.943,1.309-1.306,1.985
			c-1.442,2.685-2.465,5.534-3.301,8.458c-1.364,4.774-2.089,9.647-2.351,14.599c-0.153,2.92-0.146,5.839-0.141,8.761
			c0.001,1.493-0.019,2.997-0.252,4.483c-0.227,1.465-0.706,2.018-2.154,2.363c-1.871,0.447-3.564,0.065-5.036-1.193
			c-1.122-0.958-2.005-2.122-2.804-3.352c-2.42-3.733-4.071-7.828-5.573-11.991c-0.315-0.871-0.604-1.751-0.99-2.888
			c-0.318,0.867-0.296,1.531-0.387,2.162c-0.475,3.232-1.126,6.415-2.379,9.449c-0.516,1.251-1.123,2.454-1.932,3.543
			c-1.353,1.822-3.116,2.768-5.433,2.911c-3.053,0.188-5.374-0.988-7.232-3.303c-1.933-2.409-3.068-5.209-4.025-8.103
			c-0.174-0.526-0.239-1.096-0.631-1.701c-0.131,0.437-0.238,0.763-0.324,1.094c-0.969,3.73-1.795,7.5-2.979,11.171
			c-0.949,2.938-2.156,5.756-4.109,8.192c-1.218,1.52-2.641,2.763-4.609,3.208c-2.82,0.639-5.27,0.011-7.248-2.166
			c-1.478-1.625-2.549-3.507-3.488-5.478c-2.173-4.563-3.526-9.386-4.491-14.322c-1.029-5.258-1.754-10.563-2.259-15.898
			c-0.52-5.483-0.873-10.974-0.875-16.56c-0.332,0.141-0.299,0.416-0.354,0.636c-1.554,6.247-3.141,12.486-5.172,18.6
			c-1.185,3.558-2.523,7.053-4.354,10.337c-1.044,1.871-2.247,3.625-3.7,5.212c-3.731,4.069-9.199,4.289-13.217,1.856
			c-3.784-2.292-6.389-5.613-8.094-9.657c-1.354-3.217-1.938-6.601-2.006-10.075c-0.112-5.726,1.121-11.156,3.745-16.248
			c1.78-3.45,4.158-6.417,7.436-8.563c3.505-2.294,7.317-3.181,11.458-2.248c1.791,0.404,3.357,1.26,4.642,2.596
			c1.224,1.274,1.696,2.786,1.471,4.536c-0.087,0.668-0.472,0.965-1.093,1.09c-0.657,0.133-1.264,0.076-1.795-0.36
			c-0.151-0.124-0.162-0.328-0.183-0.517c-0.114-1.194-0.793-2.075-1.601-2.883c-0.076-0.08-0.158-0.161-0.246-0.229
			c-3.508-2.57-4.695-2.384-7.598-0.174c-2.124,1.615-3.655,3.744-4.916,6.073c-2.062,3.808-3.174,7.915-3.714,12.179
			c-0.581,4.614-0.384,9.201,0.871,13.702c0.919,3.299,2.419,6.286,4.964,8.661c0.495,0.462,1.039,0.858,1.636,1.182
			c0.863,0.468,1.718,0.432,2.58,0.004c1.366-0.68,2.463-1.695,3.456-2.83c1.638-1.875,2.924-3.983,4.037-6.201
			c2.209-4.402,3.74-9.06,5.129-13.769c2.438-8.262,4.315-16.664,6.318-25.036c0.504-2.107,0.495-4.233,0.598-6.357
			c0.42-8.485,1.842-16.809,3.928-25.03c0.084-0.327,0.188-0.647,0.289-0.969c0.601-1.92,2.749-2.819,4.587-1.943
			c0.517,0.247,0.695,0.646,0.695,1.169c-0.004,1.124,0.055,2.253-0.034,3.371c-0.391,5-1.033,9.979-1.311,14.99
			c-0.145,2.617-0.198,5.24-0.27,7.86c-0.13,4.908-0.076,9.817-0.018,14.725c0.074,6.372,0.215,12.74,0.752,19.097
			c0.285,3.396,0.581,6.793,0.942,10.182c0.613,5.734,1.319,11.458,2.809,17.05c0.663,2.499,1.429,4.964,2.534,7.31
			c0.384,0.814,0.822,1.594,1.37,2.315c0.343,0.45,0.626,0.535,1.087,0.144c0.807-0.684,1.51-1.454,2.134-2.303
			c1.858-2.536,3.063-5.399,4.116-8.331c1.875-5.221,3.195-10.605,4.692-15.938c0.307-1.094,0.402-2.152,0.298-3.307
			c-0.475-5.344-0.202-10.63,1.65-15.738c0.76-2.087,1.695-4.089,3.136-5.805c2.755-3.279,6.286-4.323,10.394-3.396
			c2.37,0.536,4.053,2.027,5.069,4.244c0.378,0.832,0.229,1.165-0.661,1.337c-0.895,0.175-1.652,0.037-2.248-0.824
			c-0.831-1.198-2.026-1.97-3.402-2.472c-0.644-0.234-1.161-0.106-1.648,0.322c-0.799,0.706-1.379,1.576-1.871,2.51
			c-1.321,2.511-2.089,5.21-2.574,7.985c-0.684,3.897-0.709,7.814-0.35,11.756c0.387,4.229,1.118,8.385,2.331,12.452
			c0.592,1.977,1.286,3.932,2.525,5.608c1.142,1.546,1.04,1.634,2.409,0.142c1.256-1.371,2.069-3.023,2.762-4.732
			c1.406-3.465,2.081-7.104,2.52-10.793c0.414-3.459,0.587-6.935,0.674-10.415c0.036-1.424-0.295-2.827-0.298-4.255
			c0-1.46,0.376-1.942,1.835-2.11c0.371-0.043,0.748-0.051,1.124-0.045c1.49,0.025,2.22,0.506,2.648,1.944
			c0.65,2.187,1.208,4.402,1.819,6.601c2.118,7.624,4.77,15.054,8.045,22.258c0.109,0.239,0.23,0.472,0.354,0.701
			c0.033,0.059,0.104,0.096,0.249,0.224c0.26-1.664,0.291-3.277,0.365-4.887c0.425-9.176,1.879-18.156,5.085-26.803
			c0.468-1.265,0.974-2.515,1.65-3.688c1.685-2.92,5.755-3.59,8.327-1.368c1.041,0.901,1.743,2.05,2.324,3.277
			c1.433,3.03,2.298,6.245,3.049,9.495c0.276,1.2,0.535,2.406,0.8,3.608C193.927,263.902,193.991,263.906,194.055,263.908z"/>
		<path fill-rule="evenodd" clip-rule="evenodd" d="M291.432,261.951c0.406-0.363,0.406-0.847,0.539-1.252
			c1.328-4.049,3.133-7.857,5.68-11.291c1.434-1.937,3.08-3.674,5.029-5.107c2.482-1.825,5.223-2.532,8.27-1.875
			c2.16,0.465,3.701,1.718,4.672,3.688c0.756,1.531,1.127,3.17,1.332,4.85c0.48,3.887,0.334,7.777,0.033,11.667
			c-0.279,3.622-0.799,7.217-1.266,10.817c-0.682,5.241-1.256,10.488-1.031,15.787c0.063,1.462,0.244,2.909,0.635,4.325
			c0.143,0.506,0.299,1.002,0.605,1.442c0.428-0.05,0.621-0.396,0.865-0.667c1.111-1.237,1.943-2.659,2.68-4.138
			c3.068-6.154,5.293-12.619,7.186-19.217c0.578-2.015,0.553-4.069,0.863-6.097c0.598-3.908,1.6-7.691,3.377-11.243
			c0.621-1.243,1.354-2.415,2.248-3.485c2.357-2.821,5.451-3.686,8.967-3.333c1.658,0.166,3.205,0.722,4.551,1.76
			c1.969,1.519,3.512,4.056,2.611,7.589c-0.178,0.708-0.633,0.959-1.57,0.883c-0.809-0.066-0.994-0.263-1.045-1.122
			c-0.17-2.805-1.602-4.767-4.066-6.012c-1.084-0.547-1.402-0.466-2.242,0.459c-0.762,0.84-1.318,1.817-1.813,2.83
			c-1.506,3.088-2.395,6.368-3.004,9.733c-0.832,4.583-0.873,9.163,0.084,13.731c0.387,1.842,0.994,3.609,1.943,5.245
			c0.549,0.946,1.203,1.81,2.053,2.509c0.859,0.707,1.111,0.728,2.115,0.183c1.277-0.693,2.281-1.693,3.145-2.844
			c1.949-2.608,3.02-5.582,3.563-8.76c0.273-1.585,0.459-3.185,0.695-4.776c0.334-2.245,1.262-2.91,3.541-2.68
			c1.309,0.132,2.229,0.781,2.932,1.833c1.236,1.849,2.121,3.874,2.893,5.946c1.785,4.802,2.789,9.779,3.262,14.873
			c0.332,3.554,0.342,7.115,0.131,10.667c-0.258,4.306-0.781,8.58-2.451,12.62c-1.465,3.541-3.58,6.573-6.834,8.703
			c-3.078,2.014-6.438,2.722-10.076,2.128c-4.605-0.751-7.305-4.154-8.025-8.147c-0.631-3.5,0.041-6.854,1.232-10.132
			c1.814-4.995,4.83-9.106,9.129-12.25c2.973-2.172,6.055-4.159,9.541-5.412c0.596-0.214,0.637-0.544,0.574-1.013
			c-0.219-1.631-0.42-3.267-0.686-4.891c-0.42-2.55-0.982-5.072-1.684-7.559c-0.074-0.259-0.051-0.595-0.436-0.839
			c-0.207,1.051-0.385,2.028-0.596,2.998c-0.48,2.204-1.205,4.325-2.221,6.343c-0.711,1.416-1.588,2.715-2.721,3.83
			c-2.1,2.065-4.691,2.724-7.529,2.507c-4.363-0.333-7.309-2.763-9.33-6.496c-0.697-1.288-1.162-2.671-1.635-4.133
			c-0.295,0.281-0.336,0.595-0.428,0.891c-1.398,4.508-2.98,8.949-4.959,13.239c-0.629,1.364-1.32,2.695-2.234,3.891
			c-0.855,1.118-1.832,2.134-3.27,2.429c-3.404,0.698-5.771-0.073-7.246-3.106c-1.188-2.439-1.48-5.079-1.664-7.744
			c-0.348-5.077,0.266-10.092,0.895-15.108c0.521-4.159,1.092-8.312,1.564-12.476c0.313-2.754,0.404-5.529,0.318-8.303
			c-0.041-1.276-0.211-2.537-0.563-3.768c-0.072-0.251-0.164-0.499-0.264-0.739c-0.912-2.191-1.82-2.527-3.877-1.371
			c-2.125,1.195-3.814,2.896-5.316,4.782c-3.475,4.36-5.549,9.381-6.861,14.75c-0.695,2.844-1.076,5.735-1.244,8.656
			c-0.014,0.258,0.02,0.521,0.057,0.778c0.668,4.631,1.342,9.262,2.01,13.893c0.08,0.556,0.119,1.117,0.203,1.672
			c0.088,0.595-0.111,1.057-0.648,1.301c-1.588,0.722-3.193,0.73-4.768-0.024c-0.615-0.294-0.852-0.916-1.072-1.522
			c-0.996-2.716-1.674-5.513-2.178-8.356c-0.369-2.101-0.695-4.21-0.949-6.33c-0.025-0.211,0.023-0.462-0.318-0.656
			c-0.262,1.092-0.512,2.157-0.779,3.216c-0.586,2.322-1.18,4.644-2.012,6.895c-0.287,0.774-0.631,1.519-1.041,2.237
			c-1.275,2.244-3.26,3.224-6.193,2.833c-1.836-0.245-3.285-1.19-4.473-2.571c-1.385-1.61-2.342-3.471-3.121-5.43
			c-1.598-4.026-2.516-8.224-3.154-12.493c-0.82-5.471-0.85-10.974-0.648-16.483c0.057-1.533,0.189-3.063,0.334-4.591
			c0.088-0.929,0.416-1.279,1.273-1.443c0.816-0.156,1.648-0.167,2.457,0.023c0.98,0.229,1.645,0.833,1.973,1.81
			c0.383,1.147,0.553,2.334,0.645,3.525c0.205,2.613,0.355,5.23,0.531,7.846c0.479,7.107,1.299,14.165,3.084,21.081
			c0.381,1.488,0.854,2.95,1.518,4.339c0.258,0.539,0.576,1.05,0.883,1.562c0.174,0.289,0.395,0.293,0.641,0.053
			c0.402-0.398,0.74-0.843,1.055-1.311c0.988-1.476,1.664-3.096,2.229-4.769c1.857-5.514,3.148-11.162,3.93-16.924
			c0.094-0.7,0.072-1.424,0.029-2.133c-0.271-4.458-0.109-8.916,0.01-13.373c0.027-1.038,0.371-1.376,1.402-1.514
			c0.223-0.029,0.449-0.025,0.674-0.025c1.463,0.003,2.023,0.384,2.537,1.742c0.561,1.48,0.824,3.036,1.041,4.59
			c0.42,3.002,0.773,6.013,1.158,9.02C291.326,261.712,291.377,261.801,291.432,261.951z M355.121,287.927
			c-0.496,0.105-0.881,0.341-1.275,0.547c-2.398,1.249-4.658,2.717-6.77,4.407c-3.031,2.427-5.426,5.375-7.092,8.881
			c-1.664,3.503-2.67,7.151-2.127,11.083c0.318,2.293,1.191,4.33,2.928,5.916c1.207,1.103,2.607,1.747,4.297,1.528
			c1.068-0.139,1.992-0.628,2.859-1.23c1.539-1.066,2.682-2.496,3.617-4.095c1.908-3.249,2.914-6.801,3.408-10.504
			c0.656-4.914,0.76-9.849,0.412-14.793C355.34,289.109,355.373,288.542,355.121,287.927z"/>
		<path fill-rule="evenodd" clip-rule="evenodd" d="M264.777,238.833c-0.809,0.055-1.572-0.077-2.305-0.398
			c-1.311-0.576-2.08-1.798-2.012-3.201c0.068-1.409,0.949-2.515,2.348-2.947c2.449-0.756,5.141,0.802,5.691,3.295
			c0.252,1.148-0.205,2.189-1.244,2.736C266.482,238.725,265.646,238.903,264.777,238.833z"/>
	</g>
</g>
</svg>
