<?xml version="1.0" encoding="iso-8859-1"?>
<!-- Generator: Adobe Illustrator 21.0.0, SVG Export Plug-In . SVG Version: 6.00 Build 0)  -->
<svg xmlns="http://www.w3.org/2000/svg" xmlns:xlink="http://www.w3.org/1999/xlink" version="1.1" id="Capa_1" x="0px" y="0px" viewBox="0 0 512 512" style="enable-background:new 0 0 512 512;" xml:space="preserve" width="512" height="512">
<g>
	<path style="fill:#FAD964;" d="M256,22C120.69,22,11,131.69,11,267c0,102.993,63.558,191.129,153.586,227.361l0,0l52.631,14.572   C229.85,510.943,242.801,512,256,512c25.533,0,50.152-3.911,73.296-11.158L375.16,481.1C450.223,439.233,501,359.053,501,267   C501,131.69,391.31,22,256,22z"/>
	<path style="fill:#474979;" d="M273.884,58.585c0,0,3.347,35.912,27.638,49.27c24.291,13.358-7.14,42.299,9.935,50.646   c17.075,8.347,20.941,45.935-20.483,54.464c-41.425,8.529-69.546-17.609-70.182-43.22c-0.637-25.612-35.091-39.844-20.292-104.539   L273.884,58.585z"/>
	<path style="fill:#3B3F6D;" d="M301.522,107.855L301.522,107.855c-24.291-13.358-27.638-49.27-27.638-49.27l-73.385,6.621   c-13.164,57.545,12.64,75.166,18.953,96.381c33.908,5.483,58.218-13.859,58.218-34.961   C277.669,101.059,301.522,107.855,301.522,107.855z"/>
	<path style="fill:#474979;" d="M372.005,473.264c-0.29-0.72-0.553-1.451-0.788-2.191l-55.414-174.496l-83.865,9.752   l-62.565,149.936c-5.035,12.067-6.662,25.237-4.788,38.096c16.711,6.725,34.332,11.662,52.631,14.572l-2.821-14.991   c-1.309-6.954-0.194-14.146,3.157-20.378l53.528-99.526c1.863-3.465,6.934-3.145,8.347,0.526l41.836,108.676   c0.601,1.561,1.256,3.101,1.965,4.617l6.068,12.985c16.065-5.03,31.411-11.681,45.864-19.742L372.005,473.264z"/>
	<path style="fill:#F9BD91;" d="M263.404,132.852l-2.176-12.845c-3.314,4.039-7.373,7.503-11.982,10.216   c-3.64,2.142-8.063,2.736-12.126,1.645c-4.321-1.16-8.408-2.933-12.13-5.242l1.812,10.695c0.002,0.015,2.428,16.632-13.744,17.472   c4.41,11.063,21.895,38.621,40.692,33.749c24.942-6.465,25.297-31.266,28.79-46.112c0.222-0.943,0.53-1.854,0.897-2.738   C276.827,143.393,266.761,146.352,263.404,132.852z"/>
	<path style="fill:#EAA77A;" d="M243.606,188.242c8.122-18.134,4.675-42.143,1.413-56.309c-2.583,0.635-5.314,0.63-7.899-0.064   c-4.321-1.16-8.408-2.933-12.13-5.242l1.812,10.695c0.002,0.015,2.428,16.632-13.744,17.472   C216.658,163.825,228.976,183.846,243.606,188.242z"/>
	<polygon style="fill:#474979;" points="192.39,68.564 192.39,68.564 192.39,68.564  "/>
	<path style="fill:#EAA77A;" d="M397.149,85.238c-6.229-8.672-18.308-10.652-26.981-4.422L354.389,92.15   c1.059,0.705,1.941,1.712,2.499,2.984l13.966,31.17c0.104,0.237,0.171,0.482,0.247,0.724l21.625-14.811   C401.399,105.989,403.378,93.909,397.149,85.238z"/>
	<path style="fill:#EAA77A;" d="M134.803,172.803l11.679-34.55c0.086-0.255,0.211-0.485,0.324-0.723l-42.675-12.041   c-10.277-2.899-20.958,3.081-23.857,13.356c-2.899,10.276,3.08,20.957,13.356,23.857l40.87,11.532   C134.552,173.756,134.644,173.277,134.803,172.803z"/>
	<path style="fill:#6393E4;" d="M372.326,123.9l-13.015-29.048c-1.65-3.763-6.344-5.052-9.685-2.662l-64.304,41.263   c-3.468,2.482-2.465,3.646-3.442,7.797c-3.416,14.523-3.764,38.785-28.164,45.11c-18.727,4.855-36.133-23.209-40.043-33.608   c-0.728-1.936-2.357-3.383-4.36-3.9l-57.731-14.911c-3.375-0.871-6.85,1.01-7.965,4.313l-11.679,34.55   c-1.163,3.445,0.656,7.185,4.083,8.397l57.46,18.81c4.472,1.27,7.73,5.122,8.243,9.743l2.522,12.717   c0.254,2.293,0.866,4.525,1.809,6.618c0.619,1.375,1.441,2.649,2.327,3.868l7.922,10.893c2.037,3.333,3.423,7.022,4.085,10.871   l11.548,51.608c50.064,22.112,83.865-9.752,83.865-9.752l-11.852-58.134c-0.646-4.795-0.68-9.646-0.107-14.434   c0.455-3.801,1.822-7.418,3.629-10.793c2.226-4.157,3.466-8.79,3.474-13.508c0.001-0.859-0.025-1.719-0.078-2.578l-1.291-12.207   c-0.23-3.704,1.484-7.26,4.524-9.387l56.222-43.897C372.698,129.828,373.524,126.631,372.326,123.9z"/>
	<polygon style="fill:#474979;" points="199.087,70.261 199.087,70.26 199.087,70.26  "/>
	<path style="fill:#474979;" d="M201.722,14.474c10.614-7.631,21.747-6.661,28.139-4.89c7.523-6.646,12.677-7.485,18.66-5.256   c19.564,7.289,28.294,37.433,27.434,55.922l0,0l0,0.006c-1.955,0.169-4.042,1.045-5.33,2.125v0   c-0.697-1.619-1.624-3.601-2.689-4.564c-0.959-0.867-1.624-1.997-1.802-3.265c-0.943-6.712-5.448-25.889-25.838-19.349   c-2.432,12.555-11.003,34.953-41.208,35.058v0v0c-1.492-0.773-3.719-1.175-5.664-0.914l-0.001-0.006   C182.263,60.099,183.777,27.377,201.722,14.474z"/>
	<path style="fill:#F9BD91;" d="M199.97,93.061c0,0-4.218-13.845-2.716-22.634c-2.612-1.232-7.353-1.364-9.169,0.905   c-3.719,4.645,0.243,10.36,2.267,14.035c0.621,1.129,1.081,2.292,1.379,3.481c0.647,2.582,2.627,6.222,8.668,5.31   C200.255,93.792,200.111,93.433,199.97,93.061z"/>
	<path style="fill:#EAA77A;" d="M197.544,82.068c-1.039,1.083-2.434,1.84-4.037,2.057c-1.563,0.212-3.07-0.124-4.34-0.852   c0.419,0.748,0.832,1.453,1.184,2.093c0.621,1.129,1.081,2.292,1.379,3.481c0.647,2.582,2.627,6.222,8.668,5.31   c-0.143-0.365-0.287-0.724-0.428-1.096C199.97,93.061,198.432,88.006,197.544,82.068z"/>
	<path style="fill:#F9BD91;" d="M279.746,58.894c-2.355-1.703-6.89-0.313-9.079,1.571c3.79,8.072,3.413,22.54,3.413,22.54   c-0.037,0.396-0.081,0.781-0.121,1.171c6.065-0.731,7.004-4.766,6.939-7.428c-0.03-1.225,0.103-2.469,0.402-3.723   C282.273,68.944,284.569,62.38,279.746,58.894z"/>
	<path style="fill:#EAA77A;" d="M278.027,72.657c-1.646,0.223-3.235-0.155-4.546-0.966c0.737,5.99,0.6,11.314,0.6,11.314   c-0.037,0.396-0.081,0.781-0.121,1.171c6.065-0.731,7.004-4.766,6.939-7.428c-0.03-1.225,0.104-2.469,0.402-3.723   c0.162-0.68,0.36-1.432,0.556-2.223C280.843,71.776,279.527,72.453,278.027,72.657z"/>
	<path style="fill:#FCD2AE;" d="M268.098,56.506c-1.01-0.841-1.723-1.956-1.935-3.222c-1.237-7.399-7.289-29.894-34.148-15.543   c-1.056,0.564-2.296,0.732-3.464,0.47c-29.712-6.675-29.551,16.62-28.771,24.081c0.133,1.277-0.257,2.541-1.006,3.621   c-5.022,7.242,1.057,27.143,1.057,27.143c4.457,11.683,9.602,20.112,14.46,26.153c5.747,7.147,13.786,12.232,22.829,14.66   c4.063,1.091,8.486,0.497,12.126-1.645c8.069-4.75,14.462-11.793,18.097-20.213c3.072-7.117,5.785-16.612,6.968-29.06   C274.311,82.949,274.868,62.147,268.098,56.506z"/>
	<path style="fill:#F9BD91;" d="M232.064,116.796c-3.768-6.189-7.834-14.765-11.516-26.552c0,0-5.168-20.025-1.766-27.047   c0.507-1.047,0.747-2.291,0.602-3.566c-0.565-5.004-1.178-17.09,5.117-22.159c-25.624-3.719-25.463,17.716-24.721,24.819   c0.133,1.277-0.257,2.541-1.006,3.621c-5.022,7.242,1.057,27.143,1.057,27.143c4.457,11.682,9.602,20.112,14.46,26.153   c5.747,7.147,13.786,12.232,22.829,14.66c4.063,1.091,8.486,0.497,12.126-1.645c0.005-0.003,0.009-0.006,0.014-0.009   C242.572,129.466,236.52,124.114,232.064,116.796z"/>
	<path style="fill:#474979;" d="M235.716,7.877c0,0-26.106-19.721-50.578,3.247c-24.472,22.969-8.338,60.892,13.949,59.137   c22.287-1.755,34.228-37.797,52.475-37.138L235.716,7.877z"/>
	<path style="fill:#3B3F6D;" d="M221.998,1.477c-9.81-2.708-23.575-2.822-36.86,9.647c-24.472,22.969-8.338,60.892,13.949,59.137   c8.819-0.695,16.016-6.762,22.627-13.795C204.475,50.336,196.671,18.028,221.998,1.477z"/>
	<path style="fill:#FCD2AE;" d="M216.614,75.631c-3.188-10.19-14.032-15.864-24.224-12.677l-7.705,2.411   c0.197-3.269-0.503-6.695-3.957-7.731c-6.551-1.965-13.129,11.85-14.202,14.216c-0.053,0.036-0.108,0.067-0.161,0.103   c-0.07,0.047-0.144,0.089-0.212,0.137c-0.056,0.039-0.115,0.07-0.17,0.109l-78.366,56.184c-8.678,6.221-10.67,18.299-4.448,26.977   c6.211,8.664,18.286,10.678,26.976,4.448l75.746-54.305l18.045-5.646C214.127,96.667,219.802,85.821,216.614,75.631z"/>
	<path style="fill:#5D80D3;" d="M248.614,234.693c-15.455-22-4.175-48.439-4.175-48.439l-0.003-0.016   c-14.919-3.985-27.51-24.837-30.762-33.487c-0.728-1.936-2.357-3.383-4.36-3.9l-57.731-14.911c-3.375-0.871-6.85,1.011-7.965,4.313   l-11.679,34.55c-1.163,3.445,0.656,7.185,4.083,8.397l57.46,18.81c4.472,1.27,7.73,5.122,8.243,9.743l2.522,12.716   c0.254,2.293,0.866,4.525,1.809,6.618c0.619,1.375,1.441,2.649,2.327,3.868l7.922,10.894c2.037,3.333,3.423,7.022,4.085,10.871   l11.548,51.608c14.86,6.563,28.287,8.371,39.822,7.668C244.916,289.145,261.487,253.017,248.614,234.693z"/>
	<path style="fill:#F9BD91;" d="M124.724,148.668c-12.512,0-22.654-10.143-22.654-22.654c0-3.388,0.749-6.599,2.082-9.485   l-16.534,11.854c-8.678,6.221-10.67,18.299-4.448,26.977c4.045,5.643,10.565,8.458,17.018,8.027   c3.472-0.232,6.924-1.403,9.959-3.579l15.572-11.164C125.388,148.657,125.057,148.668,124.724,148.668z"/>
	<path style="fill:#F9BD91;" d="M490.943,10.21c-7.467-7.632-19.706-7.766-27.34-0.298l-5.799,5.674   c-1.392-3.677-4.262-8.915-9.025-7.51c-6.339,1.87-4.644,16.093-4.166,19.366l-74.43,53.362   c-8.678,6.221-10.669,18.299-4.448,26.977c6.211,8.664,18.286,10.678,26.976,4.448c79.689-57.21,79.931-57.066,82.222-59.308   l15.71-15.371C498.276,30.082,498.409,17.842,490.943,10.21z"/>
	<path style="fill:#EAA77A;" d="M376.835,76.036l-6.652,4.769c-8.678,6.221-10.669,18.299-4.448,26.977   c6.211,8.664,18.286,10.678,26.976,4.448l7.718-5.533C383.409,108.53,370.799,91.698,376.835,76.036z"/>
	<path style="fill:#3B3F6D;" d="M231.772,447.124c-5.215,5.073-12.331,8.202-20.181,8.202c-15.99,0-28.952-12.962-28.952-28.952   c0-0.707,0.034-1.405,0.084-2.099l-13.349,31.99c-5.035,12.067-6.662,25.237-4.788,38.096   c16.711,6.725,34.332,11.662,52.631,14.572l-2.821-14.991c-1.309-6.954-0.194-14.146,3.157-20.378L231.772,447.124z"/>
	<path style="fill:#3B3F6D;" d="M372.005,473.264c-0.29-0.72-0.553-1.451-0.788-2.191l-16.679-52.52   c-0.097,15.907-13.018,28.773-28.948,28.773c-8.864,0-16.793-3.988-22.104-10.262l17.776,46.176   c0.601,1.561,1.256,3.101,1.965,4.617l6.068,12.985c16.065-5.03,31.411-11.681,45.864-19.742L372.005,473.264z"/>
</g>















</svg>
