<?xml version="1.0" encoding="UTF-8"?>
<!DOCTYPE svg PUBLIC "-//W3C//DTD SVG 1.1//EN" "http://www.w3.org/Graphics/SVG/1.1/DTD/svg11.dtd">
<svg version="1.1" xmlns="http://www.w3.org/2000/svg" xmlns:xlink="http://www.w3.org/1999/xlink" x="0" y="0" width="592.647" height="404.441" viewBox="0, 0, 592.647, 404.441">
  <g id="Layer_1">
    <path d="M198.053,179.65 C204.24,171.406 210.922,162.501 215.427,156.26 C208.155,152.071 199.886,147.815 193.487,145.919 C183.054,161.681 170.745,180.378 163.077,192.233 C169.51,195.867 175.634,199.25 181.23,202.245 C185.524,196.395 191.022,189.019 198.053,179.65" fill="#EB8D30" id="path69879"/>
    <path d="M210.488,215.018 C218.026,213.257 228.185,180.053 231.739,166.41 C230.057,165.28 225.254,162.102 219.283,158.525 C215.506,163.776 209.743,171.495 201.616,182.324 C196.441,189.219 190.479,197.164 185.197,204.346 C198.427,211.292 208.022,215.594 210.488,215.018" fill="#EB8D30" id="path69881"/>
    <path d="M108.95,160.36 C112.521,162.535 116.184,164.751 119.905,166.987 C122.289,163.759 125.477,159.68 129.747,154.492 C133.488,149.947 137.263,145.524 140.294,142.024 C134.941,141.587 129.895,141.159 125.617,140.791 L108.95,160.36" fill="#EB8D30" id="path69883"/>
    <path d="M188.784,144.953 C188.296,144.91 187.826,144.887 187.386,144.9 C183.926,145 177.01,144.674 168.724,144.144 C157.562,157.217 146.125,171.524 140.799,179.395 C147.036,183.052 153.228,186.635 159.202,190.036 C167.148,177.703 179.654,158.743 188.784,144.953" fill="#EB8D30" id="path69885"/>
    <path d="M97.694,153.464 C100.096,154.947 102.571,156.465 105.099,158.011 L120.169,140.316 C116.746,140.015 114.284,139.794 113.237,139.699 L97.694,153.464" fill="#EB8D30" id="path69887"/>
    <path d="M149.372,160.603 C154.626,154.013 159.994,147.581 163.204,143.774 C157.594,143.383 151.609,142.929 145.792,142.467 C137.349,152.102 129.123,162.051 123.733,169.284 C128.109,171.903 132.541,174.537 136.968,177.144 C139.37,173.53 143.229,168.307 149.372,160.603" fill="#EB8D30" id="path69889"/>
    <path d="M166.296,100.215 C161.104,108.294 155.014,124.158 157.295,130.629 C157.749,131.915 158.497,132.717 159.587,133.079 C160.504,133.384 161.473,133.723 162.475,134.073 C168.372,136.135 175.71,138.698 179.125,136.747 C180.098,136.191 180.704,135.266 180.973,133.917 C182.589,125.831 178.671,106.393 177.172,103.424 C176.031,101.164 173.181,97.523 170.392,97.378 L170.231,97.374 C168.833,97.374 167.509,98.328 166.296,100.215" fill="#EB8D30" id="path69891"/>
    <path d="M127.412,133.561 C128.47,135.079 131.644,135.556 136.838,134.979 C148.007,133.737 147.309,126.194 146.748,120.131 L146.711,119.726 C146.654,119.106 146.606,118.279 146.549,117.311 C146.239,111.984 145.592,100.898 141.391,99.325 C141.071,99.205 140.727,99.145 140.358,99.145 C138.476,99.145 135.971,100.695 133.025,103.702 C129.559,107.236 129.886,110.761 130.266,114.844 C130.581,118.229 130.907,121.731 129.049,125.447 C126.999,129.546 126.463,132.202 127.412,133.561" fill="#EB8D30" id="path69893"/>
    <path d="M198.887,114.137 C198.271,115.494 194.209,130.281 200.586,135.462 C206.217,140.038 209.854,141.045 211.377,140.461 C211.638,140.361 212.436,140.057 212.704,138.372 C213.377,134.131 212.657,111.143 206.851,108.705 C204.376,107.665 201.166,111.07 198.887,114.137" fill="#EB8D30" id="path69895"/>
    <path d="M83.924,115.67 C87.299,118.601 96.474,117.302 101.954,116.525 C103.485,116.308 104.807,116.12 105.712,116.067 C108.58,115.893 114.561,109.62 114.468,106.123 C114.455,105.612 114.414,104.063 110.783,104.036 C109.893,104.03 108.91,104.021 107.866,104.021 C100.019,104.021 88.544,104.428 84.371,108.572 C83.228,109.707 82.672,111.056 82.672,112.698 C82.672,113.966 83.081,114.938 83.924,115.67" fill="#EB8D30" id="path69897"/>
    <path d="M71.655,142.459 L80.203,130.056 L75.883,123.835 C67.051,129.715 59.876,136.015 60.335,137.536 C63.881,139.646 69.579,141.73 71.655,142.459" fill="#EB8D30" id="path69899"/>
    <path d="M80.841,144.673 C82.961,147.099 86.122,149.391 88.325,150.1 C90.271,149.488 98.435,140.385 105.551,131.547 C102.347,127.743 98.764,124.563 97.776,124.717 C97.797,124.742 97.614,125.099 97.704,126.254 C97.921,129.105 93.924,132.71 87.8,137.884 C85.142,140.129 81.165,143.487 80.841,144.673" fill="#EB8D30" id="path69901"/>
    <path d="M48.818,131.498 C49.018,132.333 49.267,133.372 49.667,133.538 C49.838,133.606 50.558,133.737 52.649,132.446 C58.004,129.136 64.305,121.152 66.183,118.685 L60.081,112.236 C57.126,114.877 47.585,125.828 47.372,128.245 C48.243,129.095 48.548,130.368 48.818,131.498" fill="#EB8D30" id="path69903"/>
    <path d="M33.44,154.461 C34.706,152.428 37.96,145.711 37.512,144.437 C36.316,143.1 32.976,140.918 30.691,140.918 C30.387,140.918 30.102,140.955 29.841,141.041 C26.633,142.09 20.151,146.19 17.964,149.438 L17.817,152.314 C21.422,155.248 31.698,154.976 33.44,154.461" fill="#EB8D30" id="path69905"/>
    <path d="M50.075,150.563 C48.898,150.01 47.881,150.106 46.965,150.863 L46.912,150.906 C43.771,153.194 39.301,157.302 39.201,159.261 C39.187,159.519 39.264,159.641 39.393,159.756 C40.468,160.723 41.664,160.543 42.928,160.352 C43.338,160.291 43.825,160.218 44.328,160.218 C45.574,160.218 46.908,160.669 47.348,162.871 C47.379,163.025 47.414,163.076 47.416,163.076 C47.493,163.063 48.235,162.922 49.596,161.843 C52.033,159.91 53.996,157.021 53.996,155.914 C53.996,154.336 52.187,151.558 50.075,150.563" fill="#EB8D30" id="path69907"/>
    <path d="M65.354,159.869 C64.178,159.315 63.16,159.415 62.244,160.169 L62.19,160.21 C59.049,162.501 54.58,166.606 54.478,168.568 C54.465,168.824 54.542,168.947 54.67,169.063 C55.746,170.03 56.942,169.85 58.208,169.658 C58.616,169.596 59.104,169.523 59.607,169.523 C60.852,169.523 62.186,169.975 62.627,172.178 C62.658,172.331 62.693,172.38 62.694,172.382 C62.772,172.368 63.514,172.228 64.875,171.148 C67.31,169.217 69.274,166.325 69.274,165.219 C69.274,163.643 67.465,160.863 65.354,159.869" fill="#EB8D30" id="path69909"/>
    <path d="M84.034,169.812 C82.856,169.258 81.84,169.356 80.924,170.113 L80.87,170.155 C77.729,172.444 73.259,176.55 73.159,178.512 C73.145,178.769 73.223,178.891 73.351,179.006 C74.427,179.974 75.623,179.794 76.887,179.603 C77.296,179.54 77.785,179.466 78.287,179.466 C79.533,179.466 80.866,179.919 81.306,182.122 C81.337,182.273 81.373,182.325 81.374,182.325 C81.451,182.312 82.193,182.171 83.554,181.093 C85.991,179.16 87.954,176.269 87.954,175.163 C87.954,173.587 86.146,170.807 84.034,169.812" fill="#EB8D30" id="path69911"/>
    <path d="M99.312,179.119 C98.134,178.563 97.118,178.664 96.202,179.419 L96.148,179.462 C93.007,181.75 88.538,185.856 88.437,187.817 C88.423,188.075 88.501,188.196 88.629,188.311 C89.705,189.279 90.899,189.098 92.164,188.908 C92.574,188.846 93.062,188.773 93.565,188.773 C94.811,188.773 96.144,189.226 96.584,191.427 C96.615,191.58 96.65,191.631 96.652,191.631 C96.729,191.618 97.472,191.478 98.832,190.398 C101.269,188.465 103.232,185.576 103.232,184.47 C103.232,182.891 101.423,180.113 99.312,179.119" fill="#EB8D30" id="path69913"/>
    <path d="M115.863,193.1 C114.844,192.62 113.966,192.706 113.176,193.359 L113.129,193.395 C110.415,195.374 106.553,198.922 106.466,200.617 C106.453,200.839 106.52,200.946 106.631,201.044 C107.562,201.881 108.593,201.725 109.687,201.559 C110.04,201.506 110.463,201.444 110.897,201.444 C111.973,201.444 113.126,201.832 113.507,203.737 C113.532,203.87 113.564,203.913 113.564,203.913 C113.631,203.901 114.273,203.78 115.449,202.847 C117.555,201.177 119.25,198.679 119.25,197.725 C119.25,196.36 117.688,193.959 115.863,193.1" fill="#EB8D30" id="path69915"/>
    <path d="M132.631,204.366 C131.614,203.887 130.735,203.971 129.944,204.626 L129.897,204.661 C127.183,206.639 123.319,210.188 123.233,211.883 C123.221,212.104 123.287,212.21 123.398,212.31 C124.33,213.147 125.361,212.991 126.455,212.827 C126.808,212.772 127.23,212.709 127.664,212.709 C128.74,212.709 129.894,213.099 130.274,215.002 C130.3,215.135 130.332,215.178 130.332,215.18 C130.399,215.167 131.04,215.047 132.215,214.114 C134.322,212.444 136.018,209.946 136.018,208.99 C136.018,207.626 134.456,205.225 132.631,204.366" fill="#EB8D30" id="path69917"/>
    <path d="M154.938,226.932 C154.13,226.09 148.483,221.51 145.597,219.19 C143.712,221.614 141.317,225.319 141.527,226.924 C141.56,227.17 141.653,227.239 141.697,227.27 C142.428,227.79 143.621,228.784 145.002,229.932 C147.032,231.62 150.583,234.571 152.146,235.405 C152.358,234.35 152.907,233.01 153.521,231.508 C154.13,230.022 155.15,227.536 154.938,226.932" fill="#EB8D30" id="path69919"/>
    <path d="M226.531,143.844 C227.261,144.365 228.454,145.357 229.836,146.506 C231.865,148.193 235.416,151.145 236.98,151.979 C237.189,150.925 237.74,149.585 238.355,148.083 C238.964,146.597 239.983,144.108 239.771,143.507 C238.964,142.666 233.317,138.084 230.431,135.766 C228.545,138.188 226.151,141.895 226.36,143.498 C226.393,143.746 226.485,143.813 226.531,143.844" fill="#EB8D30" id="path69921"/>
    <path d="M166.634,256.413 C167.292,255.104 168.176,252.35 168.119,249.231 C168.076,246.907 166.887,244.887 165.015,243.961 C162.053,242.493 157.73,243.625 152.808,247.147 C153.649,248.073 156.867,249.915 159.067,251.172 C163.435,253.67 165.804,255.124 166.634,256.413" fill="#EB8D30" id="path69923"/>
    <path d="M179.71,261.424 C179.627,261.338 179.543,261.25 179.393,261.25 C179.263,261.25 179.083,261.317 178.813,261.506 L178.758,261.543 C174.786,263.942 168.508,268.7 168.573,271.262 C168.58,271.571 168.688,272.036 169.541,272.493 C172.559,274.12 174.872,275.633 176.728,276.848 C178.196,277.811 179.408,278.604 180.225,278.936 C181.289,276.375 181.937,263.745 179.71,261.424" fill="#EB8D30" id="path69925"/>
    <path d="M199.357,287.528 C199.084,287.528 198.743,287.708 198.474,287.881 L198.411,287.92 C195.431,289.551 187.573,294.563 186.991,298.116 C186.886,298.762 187.048,299.293 187.506,299.788 C191.357,303.959 194.211,303.624 197.232,303.266 L197.842,303.196 C198.407,303.01 199.801,300.157 200.39,295.368 C200.933,290.977 200.383,288.083 199.594,287.588 L199.357,287.528" fill="#EB8D30" id="path69927"/>
    <path d="M216.458,297.055 C216.795,300.479 218.074,308.366 222.738,309.922 C225.381,310.801 227.526,310.512 228.626,309.127 C229.511,308.012 229.527,306.327 228.668,304.932 C227.185,302.526 220.325,298.899 216.458,297.055" fill="#EB8D30" id="path69929"/>
    <path d="M196.644,220.594 C196.338,220.94 195.87,221.37 195.235,221.952 C192.423,224.52 186.573,229.866 186.707,236.567 C186.794,240.909 189.384,245.256 194.404,249.489 C210.436,262.997 228.632,261.493 231.837,260.249 C229.149,256.004 216.105,233.788 214.659,231.323 C207.134,226.155 198.586,220.891 196.644,220.594" fill="#EB8D30" id="path69931"/>
    <path d="M241.791,195.084 C234.851,206.647 228.886,220.098 231.058,224.672 C231.416,225.428 231.996,225.87 232.869,226.051 C236.9,223.842 242.853,220.534 245.016,219.223 L241.791,195.084" fill="#EB8D30" id="path69933"/>
    <path d="M468.458,140.793 C464.181,141.164 459.136,141.592 453.784,142.029 C456.812,145.528 460.587,149.949 464.327,154.492 C468.597,159.678 471.786,163.759 474.167,166.987 C477.888,164.751 481.551,162.535 485.124,160.36 L468.458,140.793" fill="#EB8D30" id="path69935"/>
    <path d="M444.701,160.603 C450.843,168.307 454.704,173.53 457.105,177.144 C461.533,174.536 465.964,171.903 470.339,169.284 C464.952,162.053 456.729,152.106 448.287,142.472 C442.469,142.934 436.485,143.39 430.875,143.781 C434.085,147.589 439.451,154.017 444.701,160.603" fill="#EB8D30" id="path69937"/>
    <path d="M383.585,215.018 C386.052,215.592 395.647,211.29 408.875,204.346 C403.592,197.162 397.629,189.215 392.453,182.319 C384.328,171.491 378.564,163.774 374.789,158.523 C368.818,162.101 364.015,165.281 362.334,166.41 C367.252,185.375 376.808,213.434 383.585,215.018" fill="#EB8D30" id="path69939"/>
    <path d="M396.016,179.645 C403.048,189.016 408.545,196.394 412.843,202.243 C418.437,199.25 424.563,195.865 430.997,192.233 C423.328,180.377 411.019,161.68 400.585,145.919 C394.181,147.813 385.913,152.068 378.643,156.256 C383.148,162.498 389.83,171.402 396.016,179.645" fill="#EB8D30" id="path69941"/>
    <path d="M406.687,144.9 C406.249,144.887 405.778,144.912 405.291,144.954 C414.419,158.742 426.924,177.703 434.871,190.035 C440.846,186.635 447.037,183.05 453.274,179.395 C447.95,171.525 436.515,157.221 425.355,144.149 C417.068,144.682 410.15,145.005 406.687,144.9" fill="#EB8D30" id="path69943"/>
    <path d="M480.837,139.7 C479.79,139.794 477.328,140.017 473.905,140.318 L488.974,158.012 C491.502,156.465 493.978,154.945 496.379,153.464 L480.837,139.7" fill="#EB8D30" id="path69945"/>
    <path d="M413.102,133.917 C413.371,135.266 413.976,136.191 414.949,136.747 C418.364,138.695 425.702,136.133 431.597,134.073 C432.601,133.723 433.57,133.384 434.486,133.079 C435.576,132.717 436.325,131.915 436.778,130.629 C439.059,124.158 432.97,108.294 427.776,100.215 C426.564,98.329 425.241,97.374 423.842,97.374 L423.681,97.378 C420.891,97.523 418.042,101.164 416.901,103.424 C415.403,106.395 411.484,125.833 413.102,133.917" fill="#EB8D30" id="path69947"/>
    <path d="M457.234,134.978 C462.429,135.556 465.604,135.079 466.662,133.561 C467.611,132.202 467.075,129.546 465.025,125.446 C463.167,121.73 463.493,118.229 463.807,114.844 C464.187,110.761 464.515,107.237 461.05,103.702 C458.103,100.696 455.597,99.145 453.715,99.145 C453.346,99.145 453.002,99.205 452.682,99.325 C448.482,100.898 447.834,111.982 447.524,117.309 C447.467,118.279 447.419,119.106 447.362,119.726 L447.325,120.132 C446.765,126.194 446.068,133.738 457.234,134.978" fill="#EB8D30" id="path69949"/>
    <path d="M381.37,138.372 C381.638,140.058 382.435,140.361 382.698,140.461 C384.22,141.045 387.859,140.037 393.488,135.462 C399.86,130.284 395.802,115.495 395.187,114.138 C393.192,111.455 390.483,108.515 388.182,108.515 C387.853,108.515 387.531,108.573 387.223,108.705 C381.414,111.144 380.695,134.132 381.37,138.372" fill="#EB8D30" id="path69951"/>
    <path d="M488.361,116.065 C489.266,116.12 490.588,116.308 492.12,116.525 C497.601,117.301 506.776,118.6 510.149,115.67 C510.992,114.938 511.402,113.966 511.402,112.698 C511.402,111.057 510.846,109.706 509.703,108.573 C504.972,103.876 490.874,103.979 483.29,104.036 C479.66,104.063 479.619,105.612 479.605,106.122 C479.512,109.621 485.495,115.893 488.361,116.065" fill="#EB8D30" id="path69953"/>
    <path d="M522.418,142.459 C524.493,141.731 530.181,139.654 533.663,137.589 C534.196,136.018 527.022,129.715 518.192,123.835 L513.87,130.056 L522.418,142.459" fill="#EB8D30" id="path69955"/>
    <path d="M496.371,126.254 C496.468,124.977 496.235,124.675 496.232,124.673 C495.346,124.516 491.739,127.726 488.522,131.548 C495.638,140.384 503.803,149.488 505.75,150.1 C507.952,149.391 511.111,147.1 513.231,144.673 C512.908,143.488 508.931,140.129 506.272,137.883 C500.149,132.709 496.151,129.105 496.371,126.254" fill="#EB8D30" id="path69957"/>
    <path d="M541.423,132.446 C543.514,133.737 544.235,133.605 544.407,133.537 C544.807,133.373 545.055,132.333 545.255,131.498 C545.526,130.368 545.831,129.095 546.703,128.246 C546.488,125.828 536.948,114.878 533.992,112.236 L527.89,118.686 C529.768,121.152 536.068,129.137 541.423,132.446" fill="#EB8D30" id="path69959"/>
    <path d="M564.233,141.041 L564.232,141.041 C562.03,140.321 557.917,142.923 556.503,144.523 C556.111,145.712 559.367,152.425 560.633,154.461 C562.375,154.975 572.651,155.249 576.256,152.313 L576.109,149.438 C573.92,146.191 567.44,142.089 564.233,141.041" fill="#EB8D30" id="path69961"/>
    <path d="M547.162,150.905 L547.108,150.862 C546.581,150.428 546.019,150.21 545.414,150.21 C544.967,150.21 544.498,150.327 543.998,150.563 C541.887,151.558 540.078,154.336 540.078,155.915 C540.078,157.02 542.042,159.911 544.478,161.843 C545.74,162.844 546.464,163.062 546.689,163.032 L546.724,162.871 C547.344,159.779 549.721,160.138 551.145,160.352 C552.407,160.542 553.603,160.725 554.681,159.756 C554.809,159.641 554.886,159.518 554.873,159.261 C554.772,157.3 550.303,153.194 547.162,150.905" fill="#EB8D30" id="path69963"/>
    <path d="M531.884,160.211 L531.831,160.169 C531.303,159.734 530.742,159.517 530.135,159.517 C529.689,159.517 529.218,159.634 528.72,159.87 C526.609,160.864 524.799,163.643 524.799,165.22 C524.799,166.325 526.762,169.217 529.2,171.15 C530.461,172.148 531.175,172.354 531.412,172.338 L531.447,172.178 C532.067,169.085 534.445,169.444 535.868,169.658 C537.13,169.85 538.325,170.03 539.403,169.061 C539.531,168.947 539.608,168.824 539.595,168.568 C539.494,166.603 535.025,162.499 531.884,160.211" fill="#EB8D30" id="path69965"/>
    <path d="M513.203,170.155 L513.15,170.113 C512.623,169.678 512.06,169.46 511.455,169.46 C511.009,169.46 510.539,169.578 510.04,169.812 C507.929,170.807 506.12,173.584 506.12,175.164 C506.12,176.269 508.082,179.161 510.52,181.094 C511.782,182.093 512.513,182.312 512.73,182.28 L512.766,182.121 C513.386,179.029 515.765,179.388 517.186,179.603 C518.452,179.793 519.647,179.974 520.722,179.005 C520.851,178.89 520.927,178.769 520.915,178.512 C520.814,176.55 516.344,172.443 513.203,170.155" fill="#EB8D30" id="path69967"/>
    <path d="M497.925,179.461 L497.873,179.418 C497.344,178.983 496.783,178.766 496.176,178.766 C495.731,178.766 495.26,178.883 494.761,179.119 C492.65,180.113 490.841,182.892 490.841,184.47 C490.841,185.576 492.804,188.467 495.242,190.399 C496.503,191.399 497.224,191.642 497.453,191.586 L497.489,191.426 C498.107,188.333 500.487,188.693 501.909,188.907 C503.173,189.098 504.371,189.279 505.444,188.311 C505.572,188.195 505.649,188.073 505.637,187.817 C505.536,185.852 501.066,181.747 497.925,179.461" fill="#EB8D30" id="path69969"/>
    <path d="M480.945,193.395 L480.898,193.359 C480.442,192.982 479.958,192.795 479.433,192.795 C479.048,192.795 478.642,192.896 478.21,193.101 C476.386,193.959 474.823,196.36 474.823,197.725 C474.823,198.679 476.519,201.177 478.625,202.848 C479.713,203.709 480.364,203.883 480.536,203.875 L480.567,203.737 C481.103,201.065 483.159,201.375 484.386,201.559 C485.479,201.725 486.512,201.881 487.442,201.044 C487.553,200.944 487.62,200.838 487.608,200.617 C487.521,198.922 483.66,195.373 480.945,193.395" fill="#EB8D30" id="path69971"/>
    <path d="M464.177,204.663 L464.13,204.625 C463.674,204.249 463.189,204.061 462.666,204.061 C462.28,204.061 461.874,204.163 461.441,204.366 C459.618,205.225 458.054,207.626 458.054,208.991 C458.054,209.946 459.751,212.444 461.857,214.114 C462.944,214.975 463.524,215.143 463.768,215.141 L463.799,215.002 C464.335,212.331 466.392,212.639 467.619,212.827 C468.712,212.991 469.745,213.147 470.675,212.31 C470.786,212.21 470.852,212.104 470.841,211.883 C470.754,210.188 466.891,206.639 464.177,204.663" fill="#EB8D30" id="path69973"/>
    <path d="M439.083,227.006 C438.923,227.534 439.942,230.022 440.552,231.508 C441.167,233.008 441.716,234.352 441.927,235.405 C443.492,234.569 447.042,231.62 449.07,229.932 C450.453,228.782 451.645,227.792 452.375,227.27 C452.42,227.239 452.514,227.172 452.546,226.922 C452.755,225.319 450.361,221.614 448.476,219.192 C445.589,221.512 439.939,226.098 439.083,227.006" fill="#EB8D30" id="path69975"/>
    <path d="M364.238,146.506 C365.62,145.357 366.814,144.365 367.542,143.844 C367.587,143.813 367.681,143.746 367.713,143.498 C367.922,141.894 365.528,138.188 363.643,135.766 C360.756,138.085 355.105,142.673 354.25,143.581 C354.09,144.109 355.109,146.596 355.718,148.082 C356.333,149.585 356.882,150.926 357.093,151.979 C358.658,151.144 362.208,148.193 364.238,146.506" fill="#EB8D30" id="path69977"/>
    <path d="M429.057,243.961 C427.186,244.887 425.997,246.907 425.955,249.229 C425.898,252.35 426.782,255.104 427.439,256.413 C428.269,255.124 430.639,253.67 435.007,251.17 C437.208,249.913 440.424,248.075 441.266,247.147 C437.75,244.631 434.537,243.334 431.91,243.334 C430.86,243.334 429.903,243.542 429.057,243.961" fill="#EB8D30" id="path69979"/>
    <path d="M415.317,261.543 L415.26,261.506 C414.99,261.317 414.811,261.25 414.68,261.25 C414.532,261.25 414.446,261.338 414.364,261.424 C412.137,263.745 412.787,276.375 413.849,278.936 C414.666,278.604 415.878,277.809 417.347,276.848 C419.205,275.631 421.514,274.12 424.533,272.493 C425.384,272.036 425.494,271.571 425.501,271.262 C425.564,268.7 419.289,263.942 415.317,261.543" fill="#EB8D30" id="path69981"/>
    <path d="M395.664,287.92 L395.6,287.881 C395.332,287.708 394.99,287.528 394.717,287.528 L394.481,287.588 C393.689,288.084 393.141,290.981 393.684,295.374 C394.275,300.159 395.667,303.01 396.247,303.198 L396.841,303.266 C399.867,303.624 402.716,303.959 406.569,299.788 C407.025,299.293 407.188,298.762 407.082,298.116 C406.5,294.557 398.641,289.549 395.664,287.92" fill="#EB8D30" id="path69983"/>
    <path d="M377.615,297.055 C373.75,298.899 366.889,302.526 365.406,304.932 C364.547,306.329 364.564,308.014 365.447,309.127 C366.546,310.514 368.693,310.803 371.335,309.92 C376.007,308.364 377.281,300.477 377.615,297.055" fill="#EB8D30" id="path69985"/>
    <path d="M407.367,236.567 C407.502,229.866 401.652,224.52 398.838,221.95 C398.204,221.37 397.734,220.942 397.428,220.594 C395.488,220.891 386.939,226.153 379.414,231.323 C377.967,233.788 364.924,256.004 362.236,260.249 C365.444,261.491 383.636,262.995 399.669,249.489 C404.689,245.256 407.28,240.909 407.367,236.567" fill="#EB8D30" id="path69987"/>
    <path d="M361.204,226.051 C362.077,225.87 362.658,225.428 363.015,224.672 C365.185,220.1 359.221,206.647 352.283,195.084 L349.058,219.223 C351.22,220.534 357.172,223.842 361.204,226.051" fill="#EB8D30" id="path69989"/>
    <path d="M344.271,112.366 C336.762,115.677 329.389,119.396 323.04,124.874 C325.478,121.44 328.695,118.611 332.019,115.993 C333.73,114.751 335.452,113.5 337.263,112.41 C339.035,111.234 340.907,110.252 342.768,109.245 C346.485,107.213 350.383,105.565 354.291,103.965 C358.228,102.44 362.232,101.103 366.266,99.889 C368.281,99.261 370.334,98.798 372.371,98.266 C374.408,97.729 376.455,97.243 378.519,96.84 C382.636,95.979 386.78,95.276 390.939,94.703 C399.262,93.597 407.652,93.091 416.028,93.271 C407.806,94.939 399.637,96.397 391.536,98.128 C387.507,99.098 383.446,99.865 379.458,100.952 C378.461,101.213 377.454,101.436 376.45,101.677 L373.463,102.479 C371.478,103.031 369.474,103.525 367.517,104.162 C363.548,105.267 359.641,106.558 355.759,107.907 C351.869,109.243 348.049,110.758 344.271,112.366 M443.988,163.171 C438.737,156.586 433.373,150.158 430.162,146.349 C435.771,145.958 441.755,145.502 447.573,145.041 C456.015,154.674 464.238,164.62 469.626,171.852 C465.25,174.472 460.819,177.103 456.391,179.714 C453.99,176.097 450.13,170.875 443.988,163.171 M434.158,192.604 C426.21,180.271 413.706,161.311 404.577,147.521 C405.064,147.48 405.536,147.456 405.973,147.469 C409.436,147.574 416.355,147.25 424.641,146.719 C435.801,159.79 447.235,174.095 452.56,181.963 C446.322,185.62 440.132,189.202 434.158,192.604 M425.241,251.797 C425.284,249.475 426.473,247.458 428.342,246.53 C429.19,246.11 430.146,245.903 431.197,245.903 C433.823,245.903 437.036,247.2 440.553,249.713 C439.711,250.641 436.494,252.481 434.294,253.739 C429.925,256.239 427.555,257.692 426.726,258.981 C426.068,257.672 425.184,254.92 425.241,251.797 M395.302,182.214 C389.117,173.97 382.434,165.065 377.929,158.824 C385.199,154.637 393.467,150.382 399.873,148.487 C410.306,164.247 422.615,182.947 430.284,194.801 C423.85,198.434 417.724,201.819 412.129,204.811 C407.832,198.961 402.334,191.584 395.302,182.214 M382.873,217.586 C376.093,216.002 366.54,187.943 361.621,168.978 C363.302,167.85 368.104,164.67 374.076,161.092 C377.85,166.343 383.614,174.06 391.74,184.889 C396.916,191.785 402.878,199.731 408.162,206.915 C394.933,213.858 385.338,218.161 382.873,217.586 M348.344,221.792 L351.57,197.651 C358.508,209.215 364.471,222.668 362.302,227.243 C361.944,227.997 361.363,228.44 360.491,228.622 C356.459,226.411 350.507,223.102 348.344,221.792 M366.83,146.412 C366.1,146.934 364.906,147.926 363.525,149.074 C361.495,150.762 357.944,153.713 356.38,154.548 C356.169,153.493 355.62,152.153 355.004,150.65 C354.396,149.166 353.376,146.677 353.538,146.15 C354.391,145.24 360.043,140.653 362.929,138.334 C364.815,140.758 367.209,144.463 367,146.066 C366.967,146.314 366.874,146.381 366.83,146.412 M386.51,111.273 C386.818,111.143 387.14,111.082 387.469,111.082 C389.77,111.082 392.48,114.024 394.473,116.706 C395.088,118.064 399.146,132.854 392.774,138.031 C387.146,142.606 383.506,143.614 381.984,143.03 C381.722,142.929 380.925,142.625 380.656,140.94 C379.982,136.702 380.7,113.713 386.51,111.273 M484.41,162.929 C480.837,165.103 477.174,167.319 473.455,169.556 C471.072,166.327 467.883,162.249 463.613,157.061 C459.873,152.518 456.099,148.098 453.07,144.597 C458.422,144.159 463.468,143.731 467.746,143.362 z M480.125,142.27 L495.666,156.033 C493.265,157.515 490.789,159.035 488.26,160.582 L473.191,142.887 C476.614,142.585 479.077,142.363 480.125,142.27 M532.949,140.158 C529.467,142.223 523.78,144.299 521.705,145.027 L513.157,132.624 L517.478,126.403 C526.309,132.285 533.483,138.586 532.949,140.158 M505.559,140.451 C508.217,142.697 512.194,146.057 512.517,147.241 C510.397,149.668 507.238,151.959 505.036,152.668 C503.089,152.056 494.924,142.952 487.809,134.117 C491.025,130.294 494.632,127.084 495.519,127.242 C495.521,127.244 495.755,127.545 495.657,128.822 C495.437,131.674 499.435,135.277 505.559,140.451 M545.989,130.813 C545.117,131.663 544.813,132.936 544.542,134.066 C544.342,134.903 544.093,135.942 543.693,136.105 C543.522,136.174 542.8,136.305 540.71,135.014 C535.355,131.704 529.054,123.721 527.176,121.253 L533.279,114.806 C536.234,117.447 545.775,128.396 545.989,130.813 M482.576,106.604 C490.16,106.548 504.259,106.445 508.989,111.141 C510.133,112.275 510.688,113.625 510.688,115.267 C510.688,116.535 510.278,117.507 509.435,118.238 C506.063,121.169 496.888,119.871 491.407,119.094 C489.875,118.876 488.552,118.689 487.647,118.635 C484.781,118.461 478.798,112.188 478.891,108.691 C478.906,108.181 478.946,106.631 482.576,106.604 M446.611,122.701 L446.649,122.294 C446.706,121.674 446.753,120.847 446.81,119.877 C447.122,114.551 447.768,103.468 451.968,101.894 C452.289,101.774 452.633,101.713 453.002,101.713 C454.884,101.713 457.39,103.265 460.336,106.27 C463.801,109.806 463.473,113.33 463.093,117.413 C462.779,120.798 462.454,124.299 464.312,128.013 C466.361,132.115 466.897,134.769 465.949,136.129 C464.89,137.646 461.715,138.125 456.52,137.546 C445.354,136.306 446.051,128.762 446.611,122.701 M423.128,99.941 C424.528,99.941 425.851,100.897 427.064,102.783 C432.256,110.863 438.345,126.727 436.065,133.199 C435.611,134.483 434.862,135.284 433.773,135.648 C432.856,135.953 431.887,136.292 430.884,136.642 C424.988,138.702 417.65,141.264 414.236,139.315 C413.262,138.76 412.657,137.834 412.388,136.486 C410.771,128.402 414.689,108.962 416.187,105.991 C417.328,103.731 420.177,100.091 422.969,99.946 L423.128,99.941 M398.956,252.055 C382.922,265.563 364.73,264.061 361.523,262.817 C364.21,258.573 377.253,236.356 378.7,233.893 C386.226,228.723 394.774,223.459 396.715,223.163 C397.022,223.51 397.49,223.938 398.125,224.52 C400.938,227.088 406.789,232.434 406.653,239.135 C406.567,243.479 403.976,247.827 398.956,252.055 M364.733,311.696 C363.85,310.583 363.833,308.895 364.692,307.5 C366.173,305.092 373.037,301.467 376.902,299.624 C376.567,303.045 375.293,310.932 370.622,312.489 C367.98,313.372 365.833,313.081 364.733,311.696 M405.855,302.356 C402.002,306.528 399.153,306.192 396.127,305.834 L395.534,305.766 C394.954,305.581 393.561,302.727 392.97,297.942 C392.427,293.549 392.976,290.653 393.767,290.159 L394.003,290.096 C394.276,290.096 394.62,290.276 394.887,290.45 L394.951,290.489 C397.928,292.118 405.787,297.127 406.367,300.684 C406.474,301.331 406.311,301.862 405.855,302.356 M423.82,275.061 C420.8,276.688 418.491,278.202 416.633,279.417 C415.166,280.377 413.953,281.172 413.135,281.504 C412.073,278.944 411.424,266.313 413.65,263.993 C413.733,263.909 413.818,263.819 413.966,263.819 C414.097,263.819 414.277,263.885 414.546,264.075 L414.603,264.112 C418.575,266.508 424.851,271.268 424.789,273.831 C424.781,274.139 424.671,274.602 423.82,275.061 M451.662,229.838 C450.932,230.358 449.739,231.35 448.357,232.5 C446.328,234.188 442.778,237.139 441.214,237.973 C441.003,236.918 440.454,235.579 439.838,234.075 C439.228,232.59 438.209,230.102 438.371,229.575 C439.225,228.667 444.876,224.079 447.762,221.76 C449.648,224.182 452.042,227.889 451.833,229.493 C451.8,229.739 451.707,229.807 451.662,229.838 M469.962,214.879 C469.031,215.715 467.999,215.559 466.905,215.395 C465.678,215.209 463.622,214.899 463.085,217.573 L463.054,217.709 C462.81,217.711 462.23,217.545 461.144,216.682 C459.038,215.012 457.341,212.514 457.341,211.559 C457.341,210.195 458.904,207.793 460.729,206.934 C461.161,206.733 461.566,206.629 461.952,206.629 C462.476,206.629 462.96,206.817 463.417,207.194 L463.463,207.231 C466.178,209.208 470.041,212.756 470.127,214.452 C470.139,214.674 470.072,214.78 469.962,214.879 M486.728,203.614 C485.798,204.45 484.765,204.292 483.672,204.128 C482.446,203.944 480.39,203.632 479.853,206.307 L479.822,206.444 C479.651,206.452 479,206.279 477.912,205.417 C475.805,203.747 474.109,201.248 474.109,200.292 C474.109,198.928 475.673,196.527 477.497,195.668 C477.928,195.464 478.335,195.364 478.719,195.364 C479.244,195.364 479.729,195.551 480.185,195.928 L480.231,195.963 C482.946,197.942 486.808,201.491 486.895,203.185 C486.906,203.407 486.84,203.514 486.728,203.614 M504.731,190.88 C503.657,191.848 502.459,191.668 501.196,191.476 C499.773,191.263 497.394,190.903 496.775,193.996 L496.74,194.155 C496.511,194.211 495.791,193.968 494.528,192.967 C492.09,191.036 490.127,188.144 490.127,187.038 C490.127,185.462 491.938,182.682 494.047,181.687 C494.546,181.452 495.017,181.335 495.463,181.335 C496.07,181.335 496.63,181.551 497.159,181.988 L497.212,182.029 C500.353,184.316 504.822,188.42 504.923,190.386 C504.936,190.641 504.859,190.765 504.731,190.88 M520.009,181.573 C518.933,182.542 517.738,182.361 516.473,182.171 C515.051,181.957 512.672,181.598 512.052,184.689 L512.017,184.849 C511.8,184.88 511.068,184.661 509.806,183.663 C507.369,181.729 505.406,178.837 505.406,177.733 C505.406,176.153 507.215,173.375 509.327,172.38 C509.826,172.146 510.295,172.028 510.742,172.028 C511.347,172.028 511.909,172.247 512.436,172.682 L512.49,172.724 C515.631,175.012 520.1,179.119 520.201,181.081 C520.214,181.337 520.137,181.458 520.009,181.573 M538.689,171.631 C537.611,172.599 536.417,172.417 535.154,172.227 C533.731,172.013 531.353,171.655 530.734,174.746 L530.698,174.907 C530.461,174.922 529.749,174.719 528.486,173.718 C526.049,171.785 524.085,168.894 524.085,167.789 C524.085,166.211 525.895,163.433 528.005,162.438 C528.505,162.202 528.975,162.085 529.421,162.085 C530.028,162.085 530.589,162.303 531.117,162.737 L531.17,162.78 C534.311,165.067 538.781,169.171 538.881,171.135 C538.894,171.393 538.817,171.514 538.689,171.631 M553.967,162.325 C552.889,163.292 551.693,163.112 550.431,162.92 C549.007,162.706 546.63,162.347 546.011,165.439 L545.975,165.6 C545.751,165.631 545.027,165.413 543.765,164.412 C541.328,162.479 539.365,159.589 539.365,158.482 C539.365,156.905 541.173,154.126 543.285,153.132 C543.784,152.897 544.254,152.78 544.7,152.78 C545.306,152.78 545.867,152.996 546.394,153.432 L546.448,153.475 C549.589,155.763 554.058,159.868 554.16,161.83 C554.172,162.087 554.095,162.209 553.967,162.325 M555.791,147.093 C557.204,145.491 561.316,142.889 563.518,143.609 L563.519,143.609 C566.726,144.657 573.207,148.76 575.395,152.006 L575.542,154.882 C571.937,157.816 561.661,157.542 559.919,157.029 C558.653,154.993 555.398,148.28 555.791,147.093 M280.556,220.842 C277.928,208.507 276.912,195.892 276.781,183.334 C276.703,170.764 277.587,158.22 279.25,145.803 C280.064,139.592 281.126,133.418 282.36,127.284 C283.644,121.159 285.029,115.053 286.869,109.075 C285.103,121.442 283.717,133.801 282.692,146.173 C282.235,152.365 281.777,158.548 281.559,164.741 C281.286,170.928 281.128,177.119 281.234,183.301 C281.249,189.484 281.455,195.665 281.934,201.819 C282.341,207.979 283.022,214.118 283.974,220.213 C285.865,232.409 289.005,244.415 294.045,255.864 C287.349,245.276 283.118,233.151 280.556,220.842 M248.375,112.366 C244.596,110.758 240.777,109.243 236.889,107.907 C233.006,106.558 229.098,105.267 225.129,104.162 C223.171,103.525 221.168,103.031 219.182,102.479 L216.195,101.677 C215.192,101.436 214.186,101.213 213.187,100.952 C209.201,99.865 205.139,99.098 201.111,98.128 C193.008,96.397 184.839,94.939 176.617,93.271 C184.994,93.091 193.384,93.597 201.708,94.703 C205.866,95.276 210.01,95.979 214.127,96.84 C216.193,97.243 218.238,97.729 220.274,98.266 C222.313,98.798 224.366,99.261 226.38,99.889 C230.416,101.103 234.418,102.44 238.354,103.965 C242.264,105.565 246.162,107.213 249.878,109.245 C251.74,110.252 253.612,111.234 255.383,112.41 C257.196,113.5 258.915,114.751 260.627,115.993 C263.952,118.611 267.168,121.44 269.608,124.874 C263.257,119.396 255.884,115.677 248.375,112.366 M17.251,152.006 C19.439,148.76 25.92,144.66 29.128,143.609 C29.388,143.525 29.673,143.486 29.979,143.486 C32.263,143.486 35.603,145.669 36.799,147.005 C37.247,148.278 33.994,154.995 32.727,157.029 C30.984,157.544 20.709,157.816 17.104,154.882 z M211.99,140.94 C211.723,142.625 210.924,142.929 210.663,143.03 C209.141,143.614 205.502,142.608 199.871,138.031 C193.497,132.849 197.558,118.063 198.173,116.706 C200.452,113.641 203.663,110.233 206.138,111.273 C211.943,113.711 212.665,136.7 211.99,140.94 M237.641,150.65 C237.027,152.152 236.477,153.493 236.267,154.548 C234.701,153.713 231.152,150.762 229.122,149.074 C227.74,147.926 226.546,146.934 225.816,146.412 C225.771,146.381 225.679,146.314 225.647,146.066 C225.437,144.463 227.831,140.758 229.716,138.334 C232.603,140.653 238.25,145.235 239.058,146.075 C239.27,146.677 238.25,149.166 237.641,150.65 M232.156,228.622 C231.281,228.44 230.704,227.997 230.345,227.243 C228.174,222.668 234.137,209.215 241.078,197.651 L244.302,221.792 C242.139,223.102 236.186,226.411 232.156,228.622 M200.902,184.893 C209.029,174.064 214.793,166.345 218.57,161.094 C224.541,164.67 229.343,167.849 231.025,168.978 C227.473,182.619 217.313,215.825 209.774,217.586 C207.31,218.163 197.713,213.86 184.483,206.915 C189.765,199.733 195.728,191.787 200.902,184.893 M162.363,194.802 C170.031,182.947 182.341,164.249 192.774,148.488 C199.172,150.384 207.442,154.639 214.714,158.829 C210.209,165.069 203.527,173.975 197.339,182.219 C190.308,191.588 184.811,198.964 180.517,204.811 C174.92,201.821 168.797,198.435 162.363,194.802 M164.303,246.53 C166.174,247.458 167.363,249.475 167.404,251.799 C167.462,254.918 166.577,257.672 165.922,258.981 C165.091,257.692 162.721,256.239 158.352,253.741 C156.153,252.483 152.936,250.641 152.095,249.715 C157.016,246.194 161.341,245.061 164.303,246.53 M168.011,146.712 C176.296,147.244 183.212,147.569 186.673,147.469 C187.111,147.456 187.583,147.48 188.07,147.521 C178.94,161.311 166.436,180.271 158.488,192.605 C152.513,189.203 146.323,185.62 140.085,181.965 C145.411,174.093 156.849,159.785 168.011,146.712 M136.255,179.714 C131.827,177.105 127.396,174.472 123.02,171.852 C128.409,164.619 136.635,154.67 145.078,145.034 C150.896,145.497 156.88,145.952 162.49,146.342 C159.281,150.15 153.913,156.582 148.658,163.171 C142.516,170.875 138.657,176.097 136.255,179.714 M70.941,145.027 C68.866,144.298 63.167,142.215 59.62,140.105 C59.162,138.584 66.339,132.285 75.169,126.403 L79.491,132.624 z M104.386,160.582 C101.857,159.035 99.381,157.515 96.98,156.033 L112.523,142.27 C113.57,142.363 116.032,142.585 119.456,142.885 z M96.989,128.822 C96.901,127.667 97.083,127.312 97.064,127.286 C98.05,127.131 101.634,130.312 104.836,134.117 C97.721,142.952 89.557,152.056 87.61,152.668 C85.409,151.959 82.249,149.668 80.127,147.241 C80.451,146.057 84.428,142.697 87.086,140.452 C93.211,135.279 97.209,131.674 96.989,128.822 M124.903,143.358 C129.181,143.729 134.228,144.156 139.581,144.592 C136.551,148.093 132.774,152.516 129.034,157.061 C124.763,162.249 121.574,166.327 119.191,169.556 C115.472,167.319 111.808,165.103 108.236,162.929 z M169.518,99.941 L169.679,99.946 C172.468,100.091 175.318,103.731 176.459,105.991 C177.957,108.961 181.876,128.4 180.259,136.486 C179.99,137.834 179.386,138.76 178.411,139.315 C174.995,141.266 167.66,138.702 161.762,136.642 C160.76,136.292 159.79,135.953 158.874,135.648 C157.786,135.284 157.035,134.483 156.582,133.199 C154.301,126.727 160.389,110.863 165.583,102.783 C166.797,100.897 168.118,99.941 169.518,99.941 M128.334,128.016 C130.193,124.301 129.868,120.798 129.553,117.413 C129.174,113.331 128.846,109.806 132.311,106.27 C135.258,103.265 137.763,101.713 139.645,101.713 C140.013,101.713 140.358,101.774 140.677,101.894 C144.878,103.468 145.524,114.553 145.835,119.879 C145.893,120.848 145.941,121.674 145.997,122.294 L146.035,122.7 C146.595,128.762 147.293,136.306 136.125,137.546 C130.93,138.125 127.756,137.646 126.698,136.129 C125.75,134.769 126.285,132.116 128.334,128.016 M107.152,106.59 C108.197,106.59 109.179,106.598 110.069,106.604 C113.7,106.631 113.741,108.181 113.754,108.691 C113.847,112.188 107.867,118.461 104.999,118.635 C104.094,118.689 102.772,118.876 101.241,119.094 C95.76,119.871 86.585,121.169 83.211,118.238 C82.369,117.507 81.959,116.535 81.959,115.267 C81.959,113.625 82.515,112.275 83.657,111.141 C87.831,106.997 99.305,106.59 107.152,106.59 M59.367,114.806 L65.47,121.253 C63.592,123.721 57.292,131.704 51.935,135.014 C49.844,136.306 49.124,136.174 48.953,136.105 C48.553,135.942 48.304,134.903 48.106,134.068 C47.834,132.936 47.53,131.663 46.658,130.813 C46.873,128.396 56.413,117.447 59.367,114.806 M43.614,162.784 C43.112,162.784 42.623,162.859 42.215,162.92 C40.95,163.112 39.755,163.292 38.68,162.325 C38.55,162.209 38.474,162.087 38.487,161.83 C38.588,159.87 43.058,155.763 46.198,153.475 L46.252,153.432 C47.168,152.675 48.185,152.578 49.362,153.132 C51.473,154.126 53.283,156.905 53.283,158.482 C53.283,159.589 51.319,162.479 48.882,164.412 C47.521,165.491 46.78,165.631 46.701,165.645 C46.701,165.645 46.665,165.594 46.634,165.439 C46.194,163.237 44.86,162.784 43.614,162.784 M64.16,173.718 C62.8,174.795 62.059,174.937 61.98,174.951 C61.98,174.949 61.943,174.898 61.913,174.746 C61.472,172.543 60.139,172.091 58.894,172.091 C58.391,172.091 57.902,172.166 57.494,172.227 C56.23,172.417 55.033,172.599 53.956,171.631 C53.83,171.514 53.752,171.393 53.765,171.135 C53.866,169.174 58.335,165.067 61.477,162.78 L61.53,162.737 C62.446,161.982 63.464,161.883 64.64,162.438 C66.751,163.431 68.56,166.211 68.56,167.789 C68.56,168.894 66.598,171.785 64.16,173.718 M77.574,182.035 C77.072,182.035 76.583,182.109 76.173,182.171 C74.908,182.361 73.714,182.542 72.638,181.573 C72.509,181.458 72.432,181.337 72.444,181.081 C72.546,179.119 77.016,175.012 80.156,172.724 L80.211,172.682 C81.125,171.925 82.144,171.827 83.321,172.38 C85.431,173.375 87.241,176.155 87.241,177.733 C87.241,178.837 85.277,181.729 82.84,183.663 C81.479,184.739 80.738,184.88 80.661,184.896 C80.66,184.893 80.623,184.842 80.592,184.689 C80.153,182.487 78.818,182.035 77.574,182.035 M98.119,192.967 C96.758,194.046 96.016,194.187 95.938,194.201 C95.937,194.2 95.902,194.148 95.871,193.996 C95.43,191.794 94.097,191.341 92.851,191.341 C92.348,191.341 91.861,191.415 91.451,191.476 C90.186,191.667 88.992,191.848 87.916,190.88 C87.788,190.765 87.71,190.644 87.724,190.386 C87.824,188.425 92.294,184.318 95.434,182.029 L95.488,181.988 C96.404,181.232 97.421,181.132 98.598,181.687 C100.71,182.682 102.518,185.459 102.518,187.038 C102.518,188.144 100.556,191.036 98.119,192.967 M114.735,205.417 C113.56,206.349 112.918,206.471 112.851,206.481 C112.851,206.481 112.819,206.437 112.793,206.307 C112.412,204.403 111.259,204.011 110.184,204.011 C109.75,204.011 109.327,204.075 108.974,204.128 C107.88,204.293 106.848,204.45 105.918,203.614 C105.806,203.514 105.74,203.409 105.752,203.186 C105.839,201.491 109.701,197.942 112.416,195.963 L112.462,195.928 C113.252,195.274 114.13,195.188 115.15,195.668 C116.974,196.527 118.537,198.928 118.537,200.292 C118.537,201.248 116.841,203.747 114.735,205.417 M131.503,216.682 C130.327,217.614 129.685,217.737 129.618,217.749 C129.618,217.747 129.586,217.704 129.561,217.573 C129.18,215.668 128.027,215.278 126.951,215.278 C126.516,215.278 126.095,215.342 125.741,215.395 C124.648,215.559 123.616,215.715 122.685,214.879 C122.573,214.78 122.507,214.674 122.52,214.452 C122.607,212.756 126.468,209.208 129.183,207.231 L129.23,207.194 C130.022,206.541 130.9,206.456 131.917,206.934 C133.743,207.793 135.306,210.195 135.306,211.559 C135.306,212.514 133.609,215.012 131.503,216.682 M140.813,229.493 C140.603,227.889 142.999,224.182 144.883,221.76 C147.771,224.079 153.417,228.661 154.225,229.5 C154.437,230.104 153.417,232.59 152.808,234.077 C152.194,235.579 151.644,236.918 151.434,237.973 C149.87,237.139 146.319,234.188 144.29,232.5 C142.907,231.35 141.714,230.358 140.984,229.838 C140.939,229.807 140.847,229.739 140.813,229.493 M176.013,279.417 C174.158,278.202 171.846,276.688 168.827,275.061 C167.975,274.604 167.866,274.139 167.858,273.831 C167.796,271.268 174.072,266.508 178.044,264.112 L178.1,264.075 C178.37,263.885 178.549,263.819 178.68,263.819 C178.83,263.819 178.914,263.909 178.996,263.993 C181.223,266.313 180.575,278.944 179.511,281.504 C178.695,281.174 177.482,280.379 176.013,279.417 M193.69,252.055 C188.67,247.827 186.08,243.479 185.993,239.135 C185.857,232.434 191.708,227.088 194.519,224.52 C195.155,223.938 195.625,223.51 195.93,223.163 C197.872,223.459 206.421,228.723 213.946,233.893 C215.393,236.356 228.436,258.573 231.124,262.817 C227.919,264.061 209.723,265.563 193.69,252.055 M186.791,302.356 C186.334,301.862 186.171,301.331 186.278,300.684 C186.86,297.131 194.718,292.12 197.698,290.489 L197.761,290.45 C198.031,290.276 198.37,290.096 198.644,290.096 L198.88,290.159 C199.67,290.651 200.218,293.545 199.677,297.936 C199.085,302.725 197.694,305.581 197.127,305.764 L196.519,305.834 C193.498,306.194 190.643,306.528 186.791,302.356 M227.912,311.696 C226.813,313.081 224.668,313.368 222.025,312.489 C217.36,310.934 216.082,303.047 215.745,299.625 C219.611,301.467 226.472,305.092 227.955,307.5 C228.813,308.895 228.797,310.583 227.912,311.696 M588.258,159.688 C588.093,157.868 587.583,155.8 586.601,153.409 C543.541,44.272 347.186,88.895 321.925,109.965 C319.949,111.614 317.887,114.812 315.844,119.079 C315.138,116.708 313.664,112.095 313.664,112.095 L310.255,100.595 C309.245,97.616 308.032,91.755 307.107,86.882 C308.333,85.713 309.436,84.504 310.536,83.285 C312.087,81.552 313.535,79.768 314.973,77.978 C317.823,74.383 320.554,70.722 323.198,66.999 C324.522,65.138 325.827,63.269 327.099,61.356 L327.576,60.633 C327.717,60.43 327.961,60.033 328.09,59.768 C328.384,59.191 328.617,58.651 328.844,58.106 C329.293,57.02 329.696,55.944 330.087,54.865 C331.636,50.548 333.009,46.211 334.341,41.857 C336.967,33.141 339.454,24.39 341.391,15.481 C341.852,13.246 342.308,11.013 342.499,8.7 C342.533,8.117 342.568,7.538 342.463,6.899 C342.43,6.736 342.392,6.568 342.291,6.378 C342.244,6.286 342.162,6.178 342.046,6.09 C341.939,6 341.706,5.957 341.689,5.956 C341.447,5.915 341.19,5.845 340.935,5.751 C339.911,5.376 338.907,4.836 337.909,4.31 C335.912,3.241 333.93,2.111 331.839,1.193 C330.792,0.747 329.72,0.329 328.592,0.121 C327.501,-0.094 326.197,-0.095 325.351,0.732 C326.23,-0.056 327.499,0.006 328.564,0.26 C329.663,0.511 330.705,0.966 331.721,1.452 C333.751,2.446 335.672,3.649 337.631,4.805 C338.616,5.377 339.592,5.961 340.684,6.414 C340.957,6.528 341.246,6.624 341.561,6.69 L341.601,6.699 L341.619,6.739 C341.649,6.801 341.676,6.913 341.695,7.028 C341.754,7.515 341.708,8.078 341.65,8.623 C341.376,10.828 340.833,13.036 340.286,15.224 C337.997,23.975 335.155,32.598 332.184,41.151 C330.681,45.419 329.131,49.681 327.438,53.844 C327.012,54.881 326.577,55.915 326.115,56.908 C325.885,57.401 325.646,57.894 325.405,58.319 C325.269,58.555 325.21,58.639 325.023,58.899 L324.537,59.579 C323.221,61.395 321.854,63.198 320.476,64.983 C317.721,68.557 314.88,72.069 311.955,75.478 C310.482,77.167 309.001,78.855 307.458,80.444 C307.032,80.884 306.6,81.322 306.167,81.755 C306.012,80.89 305.976,80.14 305.801,79.683 C303.223,72.972 299.676,81.578 294.045,78.238 C288.414,74.897 285.198,78.238 285.198,78.238 L284.097,80.939 C283.691,80.616 283.283,80.295 282.85,79.991 C281.766,79.249 280.605,78.598 279.557,78.048 C278.509,77.502 277.651,76.98 276.808,76.32 C275.142,75.017 273.637,73.266 272.208,71.439 C271.487,70.531 270.799,69.58 270.118,68.618 C269.409,67.655 268.806,66.739 268.204,65.733 C265.832,61.736 263.841,57.393 261.944,53.034 C260.057,48.66 258.291,44.219 256.569,39.755 C253.109,30.834 249.957,21.789 246.407,12.854 C245.953,11.739 245.493,10.627 244.982,9.528 C244.727,8.977 244.46,8.43 244.155,7.889 C244,7.618 243.838,7.349 243.629,7.079 C243.521,6.945 243.413,6.808 243.208,6.666 L243.033,6.57 L242.922,6.53 L242.697,6.453 C240.349,5.755 238.004,5.308 235.633,4.881 C233.268,4.472 230.884,4.133 228.486,3.971 C227.286,3.895 226.081,3.861 224.88,3.963 C224.282,4.026 223.678,4.099 223.109,4.314 C222.545,4.483 221.985,5.005 222.111,5.637 C222.015,5 222.574,4.528 223.133,4.38 C223.697,4.19 224.298,4.141 224.89,4.102 C226.081,4.047 227.274,4.127 228.463,4.249 C230.836,4.502 233.192,4.93 235.528,5.427 C237.854,5.937 240.205,6.488 242.425,7.243 C242.764,7.368 242.75,7.36 242.938,7.606 C243.088,7.816 243.228,8.067 243.361,8.322 C243.623,8.834 243.863,9.374 244.09,9.921 C244.545,11.012 244.96,12.131 245.368,13.252 C248.547,22.262 251.354,31.439 254.476,40.516 C256.028,45.059 257.631,49.591 259.368,54.088 C261.123,58.582 262.953,63.052 265.306,67.397 C265.891,68.471 266.567,69.584 267.241,70.578 C267.905,71.599 268.583,72.615 269.313,73.612 C270.761,75.606 272.306,77.601 274.35,79.345 C275.358,80.208 276.533,80.973 277.586,81.571 C278.638,82.176 279.544,82.741 280.416,83.384 C281.101,83.906 281.757,84.491 282.4,85.106 L279.073,93.271 C279.073,93.271 275.59,104.625 274.114,114.129 C272.968,112.312 271.831,110.892 270.721,109.965 C245.459,88.895 49.105,44.272 6.045,153.409 C5.063,155.8 4.553,157.868 4.388,159.688 C0.499,169.547 -1.792,181.415 1.776,191.83 C6.23,204.832 15.395,200.903 15.395,200.903 C15.395,200.903 18.759,197.591 17.924,195.268 C17.089,192.942 11.268,187.212 9.028,189.66 C6.788,192.108 0.384,177.767 6.509,172.828 C7.871,171.729 9.115,170.791 10.238,169.982 C17.354,173.654 28.495,173.166 29.802,176.018 C32.03,180.879 29.432,184.962 38.711,184.962 C47.992,184.962 50.961,177.91 57.272,189.417 C63.584,200.924 60.242,186.075 69.893,194.613 C79.545,203.152 80.287,189.787 90.681,207.234 C101.075,224.682 94.766,201.296 105.902,216.143 C117.038,230.993 108.129,205.379 122.235,226.167 C136.341,246.956 124.915,220.598 135.269,235.819 C145.622,251.038 143.395,245.098 137.083,253.637 C130.773,262.174 130.773,267 138.569,264.401 C146.364,261.803 158.985,255.786 159.728,265.106 C160.47,274.424 161.584,283.706 156.758,288.532 C151.933,293.356 167.152,289.274 170.123,285.561 C173.091,281.848 181.258,298.553 176.803,307.092 C172.35,315.629 164.553,367.6 179.402,376.508 C180.145,369.084 174.947,317.114 201.304,314.516 C203.902,319.713 204.737,308.856 210.305,316.28 C215.875,323.704 215.411,317.858 219.863,321.383 C224.319,324.909 226.175,325.653 228.589,332.334 C231,339.016 236.755,321.569 236.755,321.569 C236.755,321.569 225.896,282.59 236.199,293.45 C246.5,304.307 250.119,319.62 242.879,326.579 C235.641,333.542 245.804,354.143 238.842,372.518 C231.882,390.893 225.357,393.401 226.314,398.133 C227.984,406.387 244.55,407.598 243.158,395.348 C241.766,383.098 244.315,335.811 248.077,339.573 C250.119,341.614 257.914,342.729 257.914,336.045 C257.914,329.364 247.056,310.153 255.687,307.928 C264.317,305.7 257.079,256.42 259.305,253.637 C260.705,251.887 265.179,232.25 273.072,220.223 C273.842,228.213 275.977,235.26 277.031,241.387 C285.41,290.096 287.415,312.477 296.323,315.104 C303.514,317.223 311.506,245.239 315.2,214.829 C325.839,224.969 331.702,251.588 333.34,253.637 C335.568,256.42 328.329,305.7 336.959,307.928 C345.589,310.153 334.733,329.364 334.733,336.045 C334.733,342.729 342.527,341.614 344.57,339.573 C348.331,335.811 350.879,383.098 349.488,395.348 C348.096,407.598 364.661,406.387 366.332,398.133 C367.29,393.401 360.763,390.893 353.803,372.518 C346.842,354.143 357.005,333.542 349.767,326.579 C342.527,319.62 346.147,304.307 356.448,293.45 C366.75,282.59 355.892,321.569 355.892,321.569 C355.892,321.569 361.645,339.016 364.058,332.334 C366.471,325.653 368.328,324.909 372.783,321.383 C377.236,317.858 376.772,323.704 382.34,316.28 C387.909,308.856 388.744,319.713 391.343,314.516 C417.698,317.114 412.501,369.084 413.245,376.508 C428.092,367.6 420.296,315.629 415.843,307.092 C411.388,298.553 419.554,281.848 422.524,285.561 C425.494,289.274 440.713,293.356 435.888,288.532 C431.062,283.706 432.176,274.424 432.918,265.106 C433.662,255.786 446.282,261.803 454.078,264.401 C461.873,267 461.873,262.174 455.563,253.637 C449.251,245.098 447.025,251.038 457.377,235.819 C467.732,220.598 456.305,246.956 470.411,226.167 C484.518,205.379 475.608,230.993 486.744,216.143 C497.881,201.296 491.57,224.682 501.964,207.234 C512.358,189.787 513.101,203.152 522.752,194.613 C532.404,186.075 529.062,200.924 535.374,189.417 C541.684,177.91 544.654,184.962 553.934,184.962 C563.214,184.962 560.617,180.879 562.843,176.018 C564.15,173.166 575.292,173.654 582.408,169.982 C583.531,170.791 584.775,171.729 586.137,172.828 C592.262,177.767 585.859,192.108 583.619,189.66 C581.378,187.212 575.558,192.942 574.722,195.268 C573.887,197.591 577.251,200.903 577.251,200.903 C577.251,200.903 586.416,204.832 590.87,191.83 C594.439,181.415 592.148,169.547 588.258,159.688" fill="#0B0B09" id="path69991"/>
  </g>
</svg>
