<?xml version="1.0" encoding="utf-8"?>
<svg version="1.1" id="Layer_1" xmlns="http://www.w3.org/2000/svg" xmlns:xlink="http://www.w3.org/1999/xlink" x="0px" y="0px"
	 viewBox="0 0 2498.914 1661.892" enable-background="new 0 0 2498.914 1661.892" xml:space="preserve">
<path d="M978.925,45.048c-3.027-4.017-8.65-8.995-4.289-14.102c14.015,5.184,9.453,7.923,29.753,37.529
	c30.886,48.544,32.781,57.613,64.872,101.41c20.134,31.15,54.884,67.374,61.73,77.725c0.703,1.013,44.546,60.946,46.882,64.771
	c14.109,23.011,33.598,50.985,33.598,50.985c1.32-0.76,2.668-1.521,4.017-2.281c2.181,1.162,4.39,2.324,6.585,3.515
	c5.523-1.162,11.046-2.41,16.541-3.716c50.347-89.622,118.051-166.612,118.051-166.612c14.748-20.974,29.552-41.904,44.831-62.519
	c11.391-14.374,19.18-31.317,30.643-45.648c4.705-7.532,10.487-14.288,15.709-21.447c7.646-6.685,10.128-17.143,17.387-24.13
	c1.98-2.181,5.15-1.951,7.804-2.525c-2.881,11.526-31.641,44.875-38.791,53.323c-9.411,12.667-17.732,26.095-27.243,38.691
	c-45.276,65.869-151.24,194.273-163.987,234.64c0.516,0.387,1.578,1.162,2.109,1.549c0.158,2.31,0.416,4.634,0.832,6.929
	c12.903-5.441,19.798-1.222,31.216,8.55c4.16-1.721,7.962-4.146,11.749-6.556c1.836,2.381,5.208,4.648,3.787,8.12
	c-3.821,16.866-21.919,44.126-22.795,57.67c-1.219,9.081,2.74,18.463-1.09,27.243c4.648,6.283,12.51,8.909,17.215,15.192
	c1.019-0.416,3.056-1.234,4.074-1.65c4.275-8.091,4.505-17.918,9.899-25.421c4.892-2.697,10.731-0.531,15.981-0.158
	c8.937,0.875,16.928,5.136,24.904,8.937c231.209-46.815,334.743-67.143,695.34,8.894c148.108,37.145,230.867,77.941,341.889,153.113
	c14.222,11.517,39.586,46.154,40.369,47.155c17.281,25.213,35.737,46.581,33.727,67.927c0.02,20.852-11.284,47.705-24.875,58.23
	c-8.866,6.872-14.016,17.875-24.359,22.896c-11.821,5.495-21.648,14.575-33.942,19.08c-5.509,1.521-12.811-0.287-15.823,5.968
	c-3.529,6.757-11.333,7.933-17.502,11.175c-4.347,2.051-8.909,3.888-13.758,4.017c-12.065,0.344-24.201,2.582-36.166,0
	c-7.56-0.646-16.082-3.902-23.025,0.459c-7.302,6.542-16.942,9.612-26.439,11.161c-11.907,2.037-23.671,4.964-35.735,5.968
	c-7.173,1.119-14.661-0.143-21.605,2.324c-21.259,7.407-68.371,13.577-69.391,13.657c-41.642,2.979-22.83-1.745-46.911,8.952
	c-1.921,0.892-40.792,22.036-72.446,23.412c-44.543,3.455-47.499,20.935-74.713,28.333c-63.076,7.229-61.114,10.222-72.948,15.034
	c-11.116,4.513-45.19,20.211-81.082,22.638c-12.164,11.17,28.183,52.739,0.229,89.016c-5.423,6.398-14.561,6.943-20.988,11.893
	c-5.337,3.328-8.521,8.866-12.122,13.815c-15.272,19.789-15.107,48.513-11.29,73.881c0.402,19.18-13.844,36.711-31.862,42.334
	c-14.905,4.804-53.635,40.613-51.616,83.866c0.615,120.932,133.173,224.122,57.168,292.998c-25.23,18.047-34.483,7.147-44.042-2.812
	c-21.918-30.022,1.57-126.748-31.475-225.387c-2.137-11.376-11.204-19.051-17.774-27.917c-8.961-12.392-37.892-1.002-45.62,1.176
	c-5.423,1.865-11.491,2.869-15.766,6.986c-8.335,6.958-14.131,17.201-24.574,21.389c-19.161,7.265-17.508,5.993-69.577-15.493
	c-14.288-0.976-28.892-1.262-42.808,2.769c-14.001,4.304-30.313,3.084-42.478-5.466c-13.202-8.545-25.105-97.077-38.734-110.463
	c-8.823-15.536-21.72-28.146-31.848-42.779c-39.015-53.075-4.504-115.536,4.06-196.638c-9.439,2.39-9.046,8.106-20.314,17.373
	c-7.374,6.527-8.894,17.774-17.315,23.24c-18.018-5.272-27.074-34-47.112-42.435c3.558,18.162,12.022,34.817,16.828,52.606
	c10.091,44.587,7.731,25.786,10.114,45.404c0.617,6.011,4.418,11.247,4.591,17.358c0.821,21.959,6.717,5.609,0.703,58.975
	c-2.488,20.764-19.207,37.262-23.814,42.937c-5.437,7.273-8.278,16.125-13.958,23.255c-2.697,3.888-6.628,7.46-6.857,12.495
	c-4.027,36.116-10.473,95.972-28.648,107.88c-22.325,8.902-37.874-0.638-50.712-2.31c-6.8-0.904-13.198,3.099-19.984,1.894
	c-30.023-5.424-15.936,13.499-61.902,21.347c-15.651-0.66-26.64-12.825-39.092-20.615c-9.382-6.7-21.16-8.192-31.36-13.155
	c-44.646-5.425-42.669,77.744-48.733,118.783c-0.846,5.25-0.703,10.573-0.043,15.852c1.32,10.501,0.545,21.131,1.506,31.661
	c1.291,12.051,0.33,24.201,1.033,36.295c1.262,15.551-1.822,31.231-7.417,45.72c-4.117,10.874-9.913,22.236-20.73,27.759
	c-6.37-0.201-12.696-1.879-17.315-6.47c-41.52-41.369-26.386-93.336-4.433-140.861c7.775-16.455,12.151-34.243,19.496-50.884
	c5.882-15.063,8.593-31.159,11.161-47.069c2.848-44.122,8.338-43.73-8.177-87.122c-4.404-11.864-12.639-21.748-21.117-30.929
	c-14.965-16.521-37.235-15.618-52.133-38.217c-8.191-25.894-5.753-53.998-14.704-79.763c-1.965-6.915-8.206-11.104-12.725-16.254
	c-5.624-5.48-12.208-12.18-20.801-10.889c-9.985-1.822-19.926-7.101-25.464-15.881c-17.457-17.037,21.944-66.526-7.087-103.333
	c-13.098-7.259-29.108-0.244-42.693-6.068c-69.532-26.176-18.304-10.924-100.636-21.777c-16.483-4.619-32.694-10.358-48.56-16.756
	c-27.114-6.513-55.647-3.486-82.546-11.19c-10.229-1.736-18.578-8.407-28.218-11.72c-17.199-1.898-55.433,3.444-86.534-8.148
	c-8.163-2.267-15.407-7.862-24.13-7.862c-13.018-0.338-53.086-2.273-62.089-5.064c-26.669-9.828-56.764-1.886-91.01-14.905
	c-6.097-2.195-10.515-7.202-16.297-9.927c-5.365-2.941-11.677-3.07-17.215-5.509c-33.244-14.354-38.251-15.68-72.848-53.338
	c-17.256-23.325-24.534-44.155,9.583-102.056c43.736-77.365,145.588-128.626,224.368-168.663
	c122.844-53.516,140.866-53.193,224.77-73.092c104.011-23.479,233.053-46.284,340.21-44.529
	c30.365,0.434,119.871,6.423,133.373,8.607c108.119,16.255,70.589,17.213,93.219,12.466c7.991-2.252,16.34-2.353,24.574-2.697
	c6.427,4.505,11.003,10.946,15.78,17.043c2.123,3.343,6.499,3.601,9.339,6.083c4.433,3.759,7.704,8.607,11.161,13.227
	c20.639-10.774,13.147-14,20.93-20.572c3.931-3.414,6.886-7.704,10.386-11.505c-0.158-5.451,2.539-10.472,1.98-15.924
	c-0.359-4.404,1.377-8.651,4.433-11.764c-0.266-20.165-10.037-15.412-13.428-27.056c-5.222-14.223-0.446-37.516,23.857-38.662
	c4.591,0.1,7.89-3.486,11.663-5.552c-0.358-1.29-35.634-60.493-99.918-140.044c-57.218-67.985-80.942-115.034-95.213-135.625
	C1001.204,75.389,990.559,59.853,978.925,45.048 M1310.915,463.744c-6.728,7.876-9.109,18.32-11.419,28.161
	c5.093-2.195,5.911-8.392,10.042-11.62c4.361-3.429,8.507-7.546,14.088-8.866c1.506-0.947,5.667-0.932,3.802-3.5
	C1322.219,465.566,1316.667,463.816,1310.915,463.744z"/>
</svg>
